<svg xmlns="http://www.w3.org/2000/svg" xmlns:xlink="http://www.w3.org/1999/xlink" width="153" zoomAndPan="magnify" viewBox="0 0 114.75 114.749996" height="153" preserveAspectRatio="xMidYMid meet" version="1.0"><defs><g/><clipPath id="8b959ac63d"><path d="M 0.707031 0.707031 L 113.792969 0.707031 L 113.792969 113.792969 L 0.707031 113.792969 Z M 0.707031 0.707031 " clip-rule="nonzero"/></clipPath><clipPath id="e7e2dfffad"><path d="M 57.25 0.707031 C 26.023438 0.707031 0.707031 26.023438 0.707031 57.25 C 0.707031 88.476562 26.023438 113.792969 57.25 113.792969 C 88.476562 113.792969 113.792969 88.476562 113.792969 57.25 C 113.792969 26.023438 88.476562 0.707031 57.25 0.707031 Z M 57.25 0.707031 " clip-rule="nonzero"/></clipPath><clipPath id="c2ebc3a0c3"><path d="M 11 22 L 103 22 L 103 83 L 11 83 Z M 11 22 " clip-rule="nonzero"/></clipPath><clipPath id="b9592985ff"><path d="M 14.742188 11.449219 L 110.347656 24.839844 L 100.488281 95.246094 L 4.882812 81.859375 Z M 14.742188 11.449219 " clip-rule="nonzero"/></clipPath><clipPath id="03e3b90862"><path d="M 14.742188 11.449219 L 110.347656 24.839844 L 100.488281 95.246094 L 4.882812 81.859375 Z M 14.742188 11.449219 " clip-rule="nonzero"/></clipPath><clipPath id="6ee9035286"><path d="M 14.742188 11.449219 L 110.347656 24.839844 L 100.488281 95.246094 L 4.882812 81.859375 Z M 14.742188 11.449219 " clip-rule="nonzero"/></clipPath><clipPath id="6382139a44"><path d="M 80.230469 39.675781 L 101.183594 39.675781 L 101.183594 50.898438 L 80.230469 50.898438 Z M 80.230469 39.675781 " clip-rule="nonzero"/></clipPath><clipPath id="92339de8ba"><path d="M 11 37 L 27 37 L 27 53 L 11 53 Z M 11 37 " clip-rule="nonzero"/></clipPath><clipPath id="586e77a698"><path d="M 11.21875 45.0625 L 19.414062 37.390625 L 26.574219 45.039062 L 18.375 52.710938 Z M 11.21875 45.0625 " clip-rule="nonzero"/></clipPath><clipPath id="6f614d69da"><path d="M 11.21875 45.0625 L 19.414062 37.390625 L 26.574219 45.039062 L 18.375 52.710938 Z M 11.21875 45.0625 " clip-rule="nonzero"/></clipPath><clipPath id="45d28151cf"><path d="M 14 72 L 24 72 L 24 82 L 14 82 Z M 14 72 " clip-rule="nonzero"/></clipPath><clipPath id="7f504cd053"><path d="M 14.25 76.839844 L 19.167969 72.238281 L 23.769531 77.15625 L 18.851562 81.757812 Z M 14.25 76.839844 " clip-rule="nonzero"/></clipPath><clipPath id="02c11625a5"><path d="M 14.25 76.839844 L 19.167969 72.238281 L 23.769531 77.15625 L 18.851562 81.757812 Z M 14.25 76.839844 " clip-rule="nonzero"/></clipPath><clipPath id="f0003338f6"><path d="M 86.054688 72.222656 L 100.273438 72.222656 L 100.273438 79.707031 L 86.054688 79.707031 Z M 86.054688 72.222656 " clip-rule="nonzero"/></clipPath></defs><g clip-path="url(#8b959ac63d)"><g clip-path="url(#e7e2dfffad)"><path fill="#d9d9d9" d="M 0.707031 0.707031 L 113.792969 0.707031 L 113.792969 113.792969 L 0.707031 113.792969 Z M 0.707031 0.707031 " fill-opacity="1" fill-rule="nonzero"/></g></g><g clip-path="url(#c2ebc3a0c3)"><g clip-path="url(#b9592985ff)"><g clip-path="url(#03e3b90862)"><g clip-path="url(#6ee9035286)"><path fill="#000000" d="M 95.359375 22.765625 C 95.207031 22.730469 95.046875 22.726562 94.886719 22.757812 L 78.550781 25.730469 C 77.929688 25.84375 77.507812 26.417969 77.585938 27.039062 C 77.699219 27.976562 77.066406 28.84375 76.136719 29.011719 C 75.210938 29.179688 74.308594 28.59375 74.078125 27.675781 C 73.929688 27.070312 73.332031 26.683594 72.710938 26.792969 L 18.351562 36.6875 C 18.242188 36.707031 18.140625 36.753906 18.046875 36.800781 L 12.316406 36.816406 C 12.003906 36.816406 11.699219 36.945312 11.476562 37.167969 C 11.257812 37.390625 11.132812 37.691406 11.136719 38.007812 L 11.199219 54.136719 C 11.203125 54.789062 11.722656 55.316406 12.386719 55.316406 C 14.882812 55.328125 16.925781 57.359375 16.9375 59.84375 C 16.949219 62.328125 14.921875 64.367188 12.425781 64.394531 C 11.773438 64.402344 11.246094 64.933594 11.25 65.582031 L 11.316406 81.714844 C 11.316406 82.03125 11.445312 82.328125 11.667969 82.550781 C 11.851562 82.730469 12.089844 82.847656 12.34375 82.882812 C 12.398438 82.890625 12.457031 82.898438 12.515625 82.898438 L 78.457031 82.710938 C 78.785156 82.710938 79.101562 82.570312 79.324219 82.332031 C 79.550781 82.089844 79.664062 81.765625 79.636719 81.441406 L 79.621094 81.328125 C 79.617188 80.847656 79.804688 80.402344 80.140625 80.0625 C 80.480469 79.722656 80.929688 79.535156 81.410156 79.53125 C 81.886719 79.53125 82.34375 79.714844 82.683594 80.050781 C 83.023438 80.390625 83.214844 80.839844 83.214844 81.273438 C 83.214844 81.296875 83.199219 81.402344 83.199219 81.425781 C 83.179688 81.753906 83.292969 82.078125 83.519531 82.320312 C 83.746094 82.5625 84.054688 82.695312 84.394531 82.695312 L 101.003906 82.648438 C 101.320312 82.644531 101.625 82.523438 101.84375 82.300781 C 102.066406 82.078125 102.191406 81.773438 102.1875 81.460938 L 102.121094 65.300781 C 102.117188 64.671875 101.628906 64.152344 100.992188 64.121094 C 98.578125 63.980469 96.667969 62.015625 96.660156 59.617188 C 96.648438 57.21875 98.535156 55.234375 100.953125 55.09375 C 101.585938 55.058594 102.078125 54.539062 102.078125 53.90625 L 102.007812 37.75 C 102.007812 37.433594 101.878906 37.132812 101.65625 36.910156 C 101.429688 36.691406 101.132812 36.570312 100.8125 36.570312 L 98.65625 36.574219 L 96.273438 23.710938 C 96.183594 23.226562 95.8125 22.867188 95.359375 22.765625 Z M 94.148438 25.300781 L 96.234375 36.582031 L 84.199219 36.613281 C 83.570312 36.617188 83.050781 37.105469 83.015625 37.730469 C 82.964844 38.675781 82.183594 39.417969 81.238281 39.421875 C 80.300781 39.425781 79.515625 38.6875 79.453125 37.742188 C 79.414062 37.117188 78.90625 36.636719 78.257812 36.628906 L 31.171875 36.765625 L 72.191406 29.296875 C 73.050781 30.804688 74.796875 31.667969 76.570312 31.34375 C 78.351562 31.019531 79.671875 29.597656 79.933594 27.890625 Z M 99.628906 38.9375 L 99.6875 52.882812 C 96.5625 53.578125 94.261719 56.347656 94.273438 59.621094 C 94.289062 62.898438 96.609375 65.65625 99.742188 66.335938 L 99.800781 80.277344 L 85.472656 80.316406 C 85.292969 79.585938 84.910156 78.914062 84.359375 78.367188 C 83.566406 77.585938 82.511719 77.15625 81.398438 77.160156 C 80.28125 77.164062 79.234375 77.597656 78.449219 78.382812 C 77.898438 78.933594 77.527344 79.605469 77.351562 80.339844 L 13.691406 80.519531 L 13.636719 66.648438 C 16.871094 66.054688 19.328125 63.210938 19.316406 59.832031 C 19.300781 56.453125 16.820312 53.625 13.578125 53.050781 L 13.519531 39.179688 L 77.304688 39.003906 C 77.878906 40.632812 79.449219 41.792969 81.25 41.785156 C 83.058594 41.78125 84.613281 40.613281 85.175781 38.980469 Z M 81.082031 43.21875 C 80.753906 43.21875 80.488281 43.484375 80.488281 43.8125 L 80.492188 45 C 80.496094 45.296875 80.71875 45.542969 81.007812 45.582031 C 81.035156 45.585938 81.0625 45.589844 81.089844 45.589844 C 81.417969 45.589844 81.6875 45.324219 81.683594 44.996094 L 81.679688 43.808594 C 81.675781 43.484375 81.402344 43.21875 81.082031 43.21875 Z M 70.296875 44.023438 L 68.832031 44.023438 C 68.503906 44.027344 68.234375 44.292969 68.234375 44.617188 C 68.238281 44.917969 68.460938 45.164062 68.75 45.203125 C 68.777344 45.207031 68.804688 45.210938 68.835938 45.210938 L 70.300781 45.207031 C 70.628906 45.207031 70.894531 44.9375 70.894531 44.613281 C 70.890625 44.285156 70.617188 44.019531 70.296875 44.023438 Z M 66.996094 44.035156 C 66.878906 44.042969 66.769531 44.082031 66.679688 44.152344 C 66.546875 44.242188 66.46875 44.386719 66.449219 44.539062 C 66.425781 44.691406 66.464844 44.851562 66.566406 44.972656 C 66.65625 45.105469 66.804688 45.1875 66.957031 45.207031 C 67.027344 45.21875 67.113281 45.21875 67.1875 45.195312 C 67.261719 45.179688 67.324219 45.140625 67.394531 45.089844 C 67.515625 45 67.605469 44.855469 67.625 44.703125 C 67.648438 44.550781 67.597656 44.390625 67.507812 44.269531 C 67.46875 44.203125 67.40625 44.148438 67.335938 44.113281 C 67.230469 44.050781 67.113281 44.027344 66.996094 44.035156 Z M 64.582031 44.039062 L 23.144531 44.152344 C 22.988281 44.15625 22.835938 44.21875 22.726562 44.328125 C 22.613281 44.441406 22.554688 44.59375 22.554688 44.75 L 22.636719 64.871094 C 22.640625 65.167969 22.859375 65.417969 23.148438 65.457031 C 23.175781 65.460938 23.203125 65.460938 23.234375 65.460938 C 23.5625 65.460938 23.828125 65.195312 23.824219 64.867188 L 23.746094 45.335938 L 64.585938 45.222656 C 64.914062 45.21875 65.179688 44.953125 65.179688 44.628906 C 65.175781 44.300781 64.902344 44.035156 64.582031 44.039062 Z M 81.101562 48.230469 C 80.773438 48.230469 80.507812 48.496094 80.507812 48.824219 L 80.519531 51.375 C 80.519531 51.675781 80.742188 51.917969 81.03125 51.957031 C 81.058594 51.960938 81.089844 51.96875 81.117188 51.964844 C 81.445312 51.964844 81.710938 51.699219 81.710938 51.371094 L 81.699219 48.820312 C 81.695312 48.492188 81.417969 48.222656 81.101562 48.230469 Z M 73.679688 48.683594 C 73.351562 48.683594 73.085938 48.953125 73.085938 49.277344 L 73.191406 74.167969 L 23.867188 74.308594 L 23.851562 71.617188 C 23.851562 71.289062 23.570312 71.023438 23.253906 71.023438 C 22.925781 71.027344 22.660156 71.289062 22.664062 71.617188 L 22.675781 74.90625 C 22.679688 75.203125 22.902344 75.449219 23.1875 75.488281 C 23.21875 75.492188 23.246094 75.496094 23.273438 75.496094 L 73.792969 75.355469 C 73.949219 75.351562 74.101562 75.289062 74.210938 75.179688 C 74.324219 75.066406 74.382812 74.914062 74.382812 74.757812 L 74.277344 49.273438 C 74.277344 48.945312 74 48.679688 73.679688 48.683594 Z M 81.128906 54.605469 C 80.800781 54.609375 80.535156 54.875 80.535156 55.199219 L 80.546875 57.75 C 80.546875 58.046875 80.769531 58.296875 81.058594 58.335938 C 81.085938 58.339844 81.113281 58.34375 81.140625 58.34375 C 81.472656 58.339844 81.738281 58.074219 81.738281 57.746094 L 81.726562 55.195312 C 81.722656 54.867188 81.449219 54.601562 81.128906 54.605469 Z M 81.152344 60.980469 C 80.824219 60.984375 80.558594 61.25 80.558594 61.578125 L 80.570312 64.125 C 80.574219 64.425781 80.796875 64.671875 81.082031 64.710938 C 81.113281 64.714844 81.140625 64.71875 81.171875 64.714844 C 81.5 64.714844 81.765625 64.449219 81.761719 64.125 L 81.75 61.574219 C 81.75 61.246094 81.472656 60.980469 81.152344 60.980469 Z M 81.179688 67.359375 C 80.851562 67.359375 80.585938 67.625 80.585938 67.953125 L 80.597656 70.5 C 80.597656 70.800781 80.820312 71.046875 81.109375 71.085938 C 81.136719 71.089844 81.167969 71.09375 81.195312 71.09375 C 81.523438 71.089844 81.789062 70.828125 81.789062 70.5 L 81.777344 67.949219 C 81.777344 67.621094 81.503906 67.355469 81.179688 67.359375 Z M 81.207031 73.734375 C 80.878906 73.738281 80.613281 74.003906 80.613281 74.328125 L 80.621094 75.511719 C 80.621094 75.8125 80.84375 76.058594 81.132812 76.097656 C 81.160156 76.101562 81.1875 76.105469 81.214844 76.105469 C 81.542969 76.105469 81.8125 75.839844 81.8125 75.511719 L 81.804688 74.324219 C 81.800781 73.996094 81.527344 73.734375 81.207031 73.734375 Z M 23.242188 67.472656 C 22.914062 67.472656 22.648438 67.738281 22.648438 68.066406 L 22.652344 69.179688 C 22.65625 69.476562 22.878906 69.722656 23.167969 69.765625 C 23.195312 69.765625 23.222656 69.765625 23.253906 69.765625 C 23.582031 69.765625 23.847656 69.503906 23.84375 69.175781 L 23.839844 68.0625 C 23.839844 67.734375 23.5625 67.464844 23.242188 67.472656 Z M 23.242188 67.472656 " fill-opacity="1" fill-rule="nonzero"/></g></g></g></g><g clip-path="url(#6382139a44)"><path fill="#000000" d="M 80.226562 45.171875 L 80.226562 45.085938 C 90.027344 45.085938 90.742188 44.269531 90.742188 39.683594 L 90.90625 39.683594 C 90.90625 44.269531 91.617188 45.085938 101.417969 45.085938 L 101.417969 45.171875 C 91.617188 45.171875 90.90625 45.988281 90.90625 50.574219 L 90.742188 50.574219 C 90.742188 45.988281 90.027344 45.171875 80.226562 45.171875 " fill-opacity="1" fill-rule="evenodd"/></g><g clip-path="url(#92339de8ba)"><g clip-path="url(#586e77a698)"><g clip-path="url(#6f614d69da)"><path fill="#000000" d="M 19.414062 37.507812 L 19.355469 37.507812 L 19.296875 37.503906 C 18.902344 44.5625 17.730469 45.0625 11.292969 44.996094 L 11.285156 45.113281 C 17.722656 45.183594 18.839844 45.707031 18.445312 52.765625 L 18.5625 52.765625 C 18.957031 45.707031 20.132812 45.207031 26.566406 45.273438 L 26.574219 45.15625 C 20.140625 45.089844 19.019531 44.566406 19.414062 37.507812 " fill-opacity="1" fill-rule="evenodd"/></g></g></g><g clip-path="url(#45d28151cf)"><g clip-path="url(#7f504cd053)"><g clip-path="url(#02c11625a5)"><path fill="#000000" d="M 19.21875 72.265625 L 19.183594 72.265625 L 19.148438 72.261719 C 18.910156 76.542969 18.195312 76.84375 14.296875 76.804688 L 14.292969 76.875 C 18.191406 76.917969 18.871094 77.234375 18.632812 81.511719 L 18.703125 81.511719 C 18.941406 77.234375 19.652344 76.929688 23.554688 76.972656 L 23.558594 76.902344 C 19.65625 76.859375 18.980469 76.542969 19.21875 72.265625 " fill-opacity="1" fill-rule="evenodd"/></g></g></g><g clip-path="url(#f0003338f6)"><path fill="#000000" d="M 86.054688 75.878906 L 86.054688 75.824219 C 92.574219 75.824219 93.046875 75.277344 93.046875 72.230469 L 93.15625 72.230469 C 93.15625 75.277344 93.628906 75.824219 100.152344 75.824219 L 100.152344 75.878906 C 93.628906 75.878906 93.15625 76.421875 93.15625 79.472656 L 93.046875 79.472656 C 93.046875 76.421875 92.574219 75.878906 86.054688 75.878906 " fill-opacity="1" fill-rule="evenodd"/></g><path stroke-linecap="butt" transform="matrix(0.341018, 0, 0, 0.341018, 4.368278, 42.74957)" fill="none" stroke-linejoin="miter" d="M 82.779683 8.83281 C 81.244757 8.83281 80.168019 8.878628 79.572376 8.970266 C 78.988188 9.050448 78.507092 9.17645 78.174906 9.394088 C 77.567809 9.737728 77.143986 10.585374 76.891984 11.868296 C 76.811801 12.372302 76.674345 13.403222 76.468161 14.857965 L 74.875962 26.072084 L 73.478493 35.968917 C 73.478493 36.186555 73.432674 36.392739 73.352491 36.610378 C 73.260854 36.862381 73.134853 37.125838 72.963033 37.389295 C 72.802667 37.629844 72.53921 37.893301 72.19557 38.145304 C 72.02375 38.317124 71.725929 38.488944 71.302106 38.752401 L 73.386855 38.752401 C 74.245955 38.752401 74.875962 38.706582 75.265421 38.706582 C 76.078702 38.706582 76.674345 38.649309 77.098168 38.569126 C 77.739629 38.443125 78.20927 38.236941 78.507092 37.973484 C 78.930914 37.629844 79.228736 37.045655 79.457829 36.186555 C 79.618195 35.590913 79.790015 34.399627 80.007653 32.681427 L 80.385657 30.001035 L 89.858667 30.001035 C 91.48523 30.001035 92.584878 29.955216 93.100338 29.920852 C 94.08544 29.829215 94.761265 29.611576 95.185088 29.267936 C 95.620365 28.935751 95.918186 28.420291 96.090006 27.652828 C 96.250372 27.091549 96.433646 25.8659 96.674194 23.97588 L 81.244757 23.97588 L 82.310041 16.427254 C 82.390224 15.957613 82.436043 15.671246 82.436043 15.487971 C 82.516225 15.247423 82.653681 15.109967 82.733864 15.01833 C 82.859865 14.938147 83.031685 14.903783 83.203505 14.903783 C 83.363871 14.857965 83.753329 14.857965 84.26879 14.857965 L 91.909053 14.857965 C 93.695981 14.857965 94.841448 14.812146 95.402726 14.777782 C 96.250372 14.686145 96.857469 14.468506 97.201109 14.170685 C 97.613477 13.872863 97.957117 13.368858 98.140392 12.635759 C 98.300757 12.211936 98.426758 11.570475 98.506941 10.803012 C 98.610033 10.37919 98.690216 9.737728 98.816217 8.83281 Z M 82.779683 8.83281 " stroke="#000000" stroke-width="11.200008" stroke-opacity="1" stroke-miterlimit="4"/><g fill="#ff914d" fill-opacity="1"><g transform="translate(29.555669, 52.980116)"><g><path d="M 3.046875 -7.21875 C 2.515625 -7.21875 2.15625 -7.203125 1.953125 -7.171875 C 1.75 -7.140625 1.578125 -7.09375 1.46875 -7.03125 C 1.265625 -6.90625 1.125 -6.625 1.03125 -6.1875 C 1 -6.015625 0.953125 -5.65625 0.890625 -5.171875 L 0.34375 -1.34375 L -0.125 2.03125 C -0.125 2.109375 -0.140625 2.1875 -0.171875 2.25 C -0.203125 2.34375 -0.25 2.421875 -0.3125 2.515625 C -0.359375 2.609375 -0.453125 2.6875 -0.5625 2.78125 C -0.625 2.84375 -0.734375 2.890625 -0.875 2.984375 L -0.15625 2.984375 C 0.125 2.984375 0.34375 2.96875 0.484375 2.96875 C 0.75 2.96875 0.953125 2.953125 1.109375 2.921875 C 1.328125 2.875 1.484375 2.8125 1.578125 2.71875 C 1.734375 2.609375 1.828125 2.40625 1.90625 2.109375 C 1.96875 1.90625 2.015625 1.5 2.09375 0.921875 L 2.21875 0 L 5.453125 0 C 6.015625 0 6.390625 -0.015625 6.5625 -0.03125 C 6.890625 -0.0625 7.125 -0.125 7.265625 -0.25 C 7.421875 -0.359375 7.515625 -0.53125 7.578125 -0.796875 C 7.640625 -0.984375 7.6875 -1.40625 7.78125 -2.046875 L 2.515625 -2.046875 L 2.875 -4.625 C 2.90625 -4.78125 2.921875 -4.890625 2.921875 -4.953125 C 2.953125 -5.03125 3 -5.078125 3.03125 -5.109375 C 3.0625 -5.140625 3.125 -5.15625 3.1875 -5.15625 C 3.25 -5.171875 3.375 -5.171875 3.546875 -5.171875 L 6.15625 -5.171875 C 6.765625 -5.171875 7.15625 -5.171875 7.34375 -5.1875 C 7.640625 -5.21875 7.84375 -5.296875 7.953125 -5.390625 C 8.109375 -5.5 8.21875 -5.671875 8.28125 -5.921875 C 8.328125 -6.0625 8.375 -6.28125 8.40625 -6.546875 C 8.4375 -6.6875 8.46875 -6.90625 8.515625 -7.21875 Z M 3.046875 -7.21875 "/></g></g></g><path stroke-linecap="butt" transform="matrix(0.362633, 0, 0, 0.362633, 9.611194, 53.263103)" fill="none" stroke-linejoin="miter" d="M 73.039398 9.486247 C 71.03582 9.486247 69.732418 9.486247 69.118418 9.583195 C 68.342839 9.66937 67.72884 9.917124 67.297963 10.315685 C 66.910174 10.703475 66.597788 11.40365 66.382349 12.448526 L 65.865297 15.572384 L 64.561894 24.868554 C 64.335684 26.613606 64.206421 27.744658 64.174105 28.304798 L 64.174105 28.660271 C 64.174105 29.220411 64.249508 29.651288 64.432631 30.006762 C 64.691157 30.394551 65.122034 30.653077 65.725262 30.825428 C 66.339262 30.911603 67.470314 30.997779 69.204593 30.997779 L 85.631777 30.997779 L 85.631777 30.254516 C 85.631777 29.004973 85.631777 28.089359 85.545602 27.561535 C 85.502514 26.645922 85.330163 25.999606 84.985462 25.654905 C 84.716163 25.299431 84.242199 25.094765 83.552796 25.008589 C 83.068059 24.922414 81.980095 24.868554 80.288903 24.868554 L 70.723435 24.868554 C 70.820382 24.448449 70.86347 24.136063 70.86347 24.0068 C 70.906557 23.748274 70.949645 23.575923 71.03582 23.478976 C 71.121996 23.392801 71.251259 23.306625 71.380522 23.306625 L 81.150657 23.306625 C 82.68027 23.306625 83.714375 23.263538 84.285286 23.177362 C 85.14704 23.048099 85.771812 22.789573 86.159601 22.434099 C 86.504303 22.089398 86.805917 21.48617 86.978267 20.656732 C 87.16139 20.053504 87.322969 18.922452 87.549179 17.177401 L 87.807706 15.572384 C 87.980056 14.182806 88.109319 13.277964 88.152407 12.75014 C 88.195495 12.405439 88.195495 12.093053 88.195495 11.845299 C 88.195495 10.972773 88.023144 10.358773 87.592267 10.057159 C 87.236794 9.755545 86.579706 9.583195 85.631777 9.540107 C 85.103953 9.486247 84.069848 9.486247 82.497147 9.486247 Z M 73.125574 15.572384 L 81.592306 15.572384 C 81.549218 16.100208 81.50613 16.401822 81.463042 16.574173 C 81.463042 16.757296 81.419955 16.875787 81.333779 16.961962 C 81.247604 17.048138 81.064481 17.134313 80.816727 17.177401 L 71.822171 17.177401 C 71.897574 16.660348 71.940662 16.358735 71.940662 16.2187 C 72.026837 16.014033 72.069925 15.927858 72.123785 15.83091 C 72.20996 15.744735 72.296135 15.65856 72.382311 15.615472 C 72.468486 15.572384 72.727012 15.572384 73.125574 15.572384 Z M 89.671248 9.44316 L 90.748441 17.317436 L 91.847177 24.868554 C 92.094931 26.613606 92.321142 27.787746 92.407317 28.390973 C 92.622755 29.091148 92.838194 29.608201 93.09672 29.963674 C 93.441422 30.351463 93.926158 30.60999 94.583245 30.793112 C 95.186473 30.911603 96.619139 30.997779 98.881243 30.997779 L 102.963802 30.997779 C 104.74117 30.997779 105.915309 30.911603 106.529309 30.825428 C 107.229484 30.696165 107.703449 30.437639 108.037378 30.092937 C 108.392852 29.737464 108.619062 29.177324 108.780641 28.434061 C 108.952992 27.830833 109.136114 26.645922 109.383869 24.868554 L 110.698043 15.615472 C 110.956569 13.795017 111.085833 12.620877 111.085833 12.093053 L 111.085833 11.802211 C 111.085833 11.01586 110.956569 10.45572 110.654956 10.143335 C 110.353342 9.798633 109.739342 9.626282 108.823729 9.540107 C 108.306676 9.44316 107.477238 9.44316 106.270783 9.44316 L 105.398257 9.44316 L 104.35338 16.757296 L 103.437767 23.306625 C 103.394679 23.823678 103.351591 24.136063 103.265416 24.308414 C 103.222328 24.491537 103.179241 24.56694 103.093065 24.653116 C 103.00689 24.739291 102.920714 24.782379 102.748364 24.825467 C 102.565241 24.825467 102.274399 24.868554 101.746575 24.868554 L 98.008717 24.868554 L 96.705314 15.529296 C 96.532964 14.010455 96.360613 13.008666 96.220578 12.491614 C 96.058999 11.40365 95.703526 10.660387 95.272649 10.272598 C 94.917175 9.884808 94.27086 9.626282 93.32293 9.540107 C 92.752018 9.44316 91.534791 9.44316 89.671248 9.44316 Z M 120.823652 9.44316 C 118.809302 9.44316 117.505899 9.486247 116.902671 9.583195 C 116.116321 9.66937 115.513093 9.917124 115.082216 10.315685 C 114.683655 10.660387 114.382041 11.40365 114.166603 12.448526 C 114.080427 12.965579 113.897305 13.967367 113.64955 15.529296 L 112.346148 24.825467 C 112.119937 26.570518 111.990674 27.70157 111.947586 28.304798 L 111.947586 28.617184 C 111.947586 29.220411 112.033762 29.651288 112.216885 29.963674 C 112.475411 30.351463 112.906288 30.60999 113.509515 30.793112 C 114.123515 30.868516 115.254567 30.954691 116.988847 30.954691 L 133.405258 30.954691 L 133.405258 30.254516 C 133.405258 28.951113 133.405258 28.089359 133.329855 27.561535 C 133.286767 26.613606 133.114416 25.999606 132.758943 25.654905 C 132.500417 25.299431 132.01568 25.094765 131.326277 25.008589 C 130.852312 24.922414 129.764348 24.868554 128.073156 24.868554 L 118.507688 24.868554 C 118.604635 24.39459 118.647723 24.092976 118.647723 23.952941 C 118.690811 23.705186 118.733898 23.522064 118.809302 23.435888 C 118.895477 23.349713 119.035512 23.306625 119.164775 23.306625 C 119.294038 23.263538 119.509477 23.263538 119.811091 23.263538 L 128.93491 23.263538 C 130.464523 23.263538 131.498628 23.22045 132.058768 23.134275 C 132.931294 23.048099 133.545293 22.789573 133.943855 22.434099 C 134.277784 22.04631 134.59017 21.443083 134.762521 20.613644 C 134.934872 20.053504 135.107222 18.922452 135.333433 17.177401 L 135.581187 15.529296 C 135.76431 14.139718 135.893573 13.234877 135.93666 12.75014 C 135.979748 12.362351 135.979748 12.049965 135.979748 11.802211 C 135.979748 10.929685 135.807397 10.315685 135.37652 10.014072 C 135.021047 9.755545 134.36396 9.583195 133.405258 9.486247 C 132.888206 9.44316 131.854101 9.44316 130.2814 9.44316 Z M 120.899055 15.572384 L 129.365787 15.572384 C 129.322699 16.057121 129.279612 16.401822 129.236524 16.574173 C 129.236524 16.757296 129.204208 16.843471 129.118033 16.918875 C 129.031857 17.00505 128.848735 17.091225 128.590208 17.134313 L 119.595652 17.134313 C 119.681828 16.617261 119.724915 16.315647 119.724915 16.175612 C 119.811091 16.014033 119.854178 15.88477 119.908038 15.787823 C 119.994213 15.701647 120.080389 15.615472 120.155792 15.615472 C 120.241968 15.572384 120.511266 15.572384 120.899055 15.572384 Z M 138.974343 15.615472 L 138.748132 17.177401 L 137.875607 23.306625 L 137.67094 24.922414 L 136.798414 30.997779 C 138.661957 30.997779 139.879184 30.954691 140.450096 30.911603 C 141.225675 30.793112 141.839675 30.566902 142.184376 30.297604 C 142.615253 29.963674 142.970727 29.43585 143.143077 28.703359 C 143.304656 28.089359 143.573954 26.829044 143.843252 24.922414 L 144.047919 23.306625 L 144.920445 17.177401 C 145.00662 16.703436 145.049708 16.401822 145.049708 16.261787 C 145.135883 16.014033 145.275918 15.83091 145.362094 15.744735 C 145.480585 15.65856 145.609848 15.615472 145.792971 15.615472 C 145.879146 15.572384 146.008409 15.572384 146.137672 15.572384 C 146.310023 15.572384 146.525461 15.572384 146.751672 15.615472 L 154.701351 15.615472 L 154.475141 17.177401 L 153.613387 23.306625 L 153.397949 24.922414 L 152.525423 30.997779 C 154.647492 30.997779 156.03707 30.911603 156.65107 30.825428 C 157.38356 30.653077 157.922157 30.394551 158.256086 30.006762 C 158.61156 29.651288 158.826998 29.091148 158.999349 28.390973 C 159.1717 27.830833 159.344051 26.645922 159.559489 24.922414 L 159.785699 23.306625 L 160.658225 17.177401 L 160.862892 15.615472 C 161.13219 13.708841 161.261453 12.448526 161.261453 11.888386 L 161.261453 11.576 C 161.218365 10.832738 160.992155 10.315685 160.658225 10.057159 C 160.388927 9.798633 159.95805 9.66937 159.387138 9.583195 C 158.870086 9.486247 158.040648 9.486247 156.866508 9.486247 L 144.661919 9.486247 C 143.530867 9.486247 142.701428 9.486247 142.184376 9.583195 C 141.484201 9.66937 140.967149 9.841721 140.611675 10.100247 C 140.180798 10.401861 139.836097 10.972773 139.577571 11.802211 C 139.448308 12.362351 139.222097 13.622666 138.974343 15.615472 Z M 171.634815 0.588638 L 170.417588 9.486247 L 169.501975 9.486247 C 168.198572 9.486247 167.282958 9.486247 166.722818 9.583195 C 165.850292 9.66937 165.247065 9.917124 164.816188 10.272598 C 164.417627 10.660387 164.116013 11.40365 163.857487 12.491614 C 163.771311 13.008666 163.59896 14.064315 163.383522 15.615472 L 169.545062 15.615472 L 169.329624 17.177401 L 168.46787 23.306625 L 168.252431 24.922414 C 167.983133 26.52743 167.821554 27.615395 167.724607 28.175535 L 167.724607 28.82185 C 167.724607 29.349674 167.821554 29.780551 167.983133 30.092937 C 168.295519 30.523814 168.984922 30.825428 170.115974 30.954691 C 170.719202 30.954691 171.764078 30.997779 173.293692 30.997779 L 177.236216 30.997779 C 178.93818 30.997779 180.069232 30.954691 180.629372 30.911603 C 181.501897 30.793112 182.148213 30.566902 182.536002 30.211428 C 182.891476 29.877499 183.193089 29.263499 183.408528 28.477149 C 183.580879 27.873921 183.764001 26.689009 183.968668 24.922414 L 174.413972 24.922414 L 174.640182 23.306625 L 175.501936 17.177401 L 175.717374 15.615472 L 179.11053 15.615472 C 180.941757 15.615472 182.105125 15.572384 182.665265 15.529296 C 183.537791 15.410805 184.194878 15.184595 184.582668 14.915297 C 184.981229 14.581367 185.272071 14.064315 185.498281 13.36414 C 185.670632 12.75014 185.896842 11.489825 186.144597 9.486247 L 176.5899 9.486247 L 176.97769 6.707091 C 177.236216 5.18825 177.376251 4.24032 177.376251 3.841759 C 177.462426 3.45397 177.462426 3.141584 177.462426 2.89383 C 177.462426 2.409093 177.419338 2.021304 177.290075 1.752006 C 177.020777 1.148778 176.320602 0.804077 175.114147 0.717901 C 174.457059 0.631726 173.293692 0.588638 171.634815 0.588638 Z M 171.634815 0.588638 " stroke="#000000" stroke-width="11.406019" stroke-opacity="1" stroke-miterlimit="4"/><g fill="#ff914d" fill-opacity="1"><g transform="translate(32.723352, 64.504712)"><g><path d="M 3.375 -7.796875 C 2.640625 -7.796875 2.171875 -7.796875 1.953125 -7.765625 C 1.671875 -7.734375 1.453125 -7.640625 1.296875 -7.5 C 1.15625 -7.359375 1.046875 -7.109375 0.953125 -6.71875 L 0.765625 -5.59375 L 0.296875 -2.21875 C 0.21875 -1.59375 0.171875 -1.1875 0.15625 -0.96875 L 0.15625 -0.84375 C 0.15625 -0.640625 0.1875 -0.484375 0.25 -0.359375 C 0.34375 -0.21875 0.5 -0.125 0.71875 -0.0625 C 0.9375 -0.03125 1.359375 0 1.984375 0 L 7.9375 0 L 7.9375 -0.265625 C 7.9375 -0.71875 7.9375 -1.0625 7.90625 -1.25 C 7.890625 -1.578125 7.828125 -1.8125 7.703125 -1.9375 C 7.609375 -2.0625 7.4375 -2.140625 7.1875 -2.171875 C 7.015625 -2.203125 6.609375 -2.21875 6 -2.21875 L 2.53125 -2.21875 C 2.5625 -2.375 2.578125 -2.484375 2.578125 -2.53125 C 2.59375 -2.625 2.609375 -2.6875 2.640625 -2.71875 C 2.671875 -2.75 2.71875 -2.78125 2.765625 -2.78125 L 6.3125 -2.78125 C 6.859375 -2.78125 7.25 -2.796875 7.453125 -2.828125 C 7.765625 -2.875 7.984375 -2.984375 8.125 -3.109375 C 8.25 -3.234375 8.359375 -3.453125 8.421875 -3.75 C 8.484375 -3.96875 8.546875 -4.375 8.625 -5.015625 L 8.71875 -5.59375 C 8.78125 -6.09375 8.828125 -6.421875 8.84375 -6.609375 C 8.875 -6.734375 8.875 -6.84375 8.875 -6.953125 C 8.875 -7.265625 8.796875 -7.484375 8.640625 -7.59375 C 8.515625 -7.703125 8.28125 -7.765625 7.9375 -7.78125 C 7.75 -7.796875 7.375 -7.796875 6.796875 -7.796875 Z M 3.40625 -5.59375 L 6.46875 -5.59375 C 6.453125 -5.40625 6.4375 -5.296875 6.421875 -5.234375 C 6.421875 -5.171875 6.40625 -5.125 6.375 -5.09375 C 6.34375 -5.0625 6.28125 -5.03125 6.1875 -5.015625 L 2.921875 -5.015625 C 2.96875 -5.203125 2.984375 -5.3125 2.984375 -5.359375 C 3.015625 -5.4375 3.03125 -5.46875 3.046875 -5.5 C 3.078125 -5.53125 3.109375 -5.5625 3.140625 -5.578125 C 3.171875 -5.59375 3.265625 -5.59375 3.40625 -5.59375 Z M 3.40625 -5.59375 "/></g></g></g><g fill="#ff914d" fill-opacity="1"><g transform="translate(41.497127, 64.504712)"><g><path d="M 0.625 -7.8125 L 1.03125 -4.96875 L 1.421875 -2.21875 C 1.515625 -1.59375 1.59375 -1.171875 1.625 -0.9375 C 1.703125 -0.6875 1.78125 -0.5 1.875 -0.375 C 2 -0.234375 2.171875 -0.140625 2.40625 -0.078125 C 2.625 -0.03125 3.15625 0 3.96875 0 L 5.453125 0 C 6.09375 0 6.515625 -0.03125 6.734375 -0.0625 C 7 -0.109375 7.171875 -0.203125 7.296875 -0.328125 C 7.421875 -0.453125 7.5 -0.65625 7.5625 -0.921875 C 7.625 -1.15625 7.6875 -1.578125 7.78125 -2.21875 L 8.25 -5.578125 C 8.34375 -6.234375 8.390625 -6.65625 8.390625 -6.84375 L 8.390625 -6.96875 C 8.390625 -7.25 8.34375 -7.453125 8.234375 -7.5625 C 8.125 -7.6875 7.90625 -7.75 7.578125 -7.78125 C 7.390625 -7.8125 7.09375 -7.8125 6.640625 -7.8125 L 6.328125 -7.8125 L 5.953125 -5.171875 L 5.625 -2.78125 C 5.609375 -2.59375 5.59375 -2.484375 5.5625 -2.421875 C 5.546875 -2.359375 5.53125 -2.328125 5.5 -2.296875 C 5.46875 -2.265625 5.4375 -2.25 5.375 -2.234375 C 5.3125 -2.234375 5.203125 -2.21875 5.015625 -2.21875 L 3.65625 -2.21875 L 3.1875 -5.609375 C 3.125 -6.15625 3.0625 -6.515625 3.015625 -6.703125 C 2.9375 -7.109375 2.8125 -7.375 2.65625 -7.515625 C 2.53125 -7.65625 2.296875 -7.75 1.953125 -7.78125 C 1.75 -7.8125 1.3125 -7.8125 0.625 -7.8125 Z M 0.625 -7.8125 "/></g></g></g><g fill="#ff914d" fill-opacity="1"><g transform="translate(50.050377, 64.504712)"><g><path d="M 3.375 -7.8125 C 2.640625 -7.8125 2.171875 -7.796875 1.953125 -7.765625 C 1.671875 -7.734375 1.453125 -7.640625 1.296875 -7.5 C 1.15625 -7.375 1.046875 -7.109375 0.953125 -6.71875 C 0.921875 -6.53125 0.859375 -6.171875 0.765625 -5.609375 L 0.296875 -2.234375 C 0.21875 -1.609375 0.171875 -1.203125 0.15625 -0.96875 L 0.15625 -0.859375 C 0.15625 -0.640625 0.1875 -0.484375 0.25 -0.375 C 0.34375 -0.234375 0.5 -0.140625 0.71875 -0.078125 C 0.9375 -0.046875 1.359375 -0.015625 1.984375 -0.015625 L 7.9375 -0.015625 L 7.9375 -0.265625 C 7.9375 -0.734375 7.9375 -1.0625 7.90625 -1.25 C 7.890625 -1.59375 7.828125 -1.8125 7.703125 -1.9375 C 7.609375 -2.0625 7.4375 -2.140625 7.1875 -2.171875 C 7.015625 -2.203125 6.609375 -2.21875 6 -2.21875 L 2.53125 -2.21875 C 2.5625 -2.390625 2.578125 -2.5 2.578125 -2.546875 C 2.59375 -2.640625 2.609375 -2.703125 2.640625 -2.734375 C 2.671875 -2.765625 2.71875 -2.78125 2.765625 -2.78125 C 2.8125 -2.796875 2.890625 -2.796875 3.015625 -2.796875 L 6.3125 -2.796875 C 6.859375 -2.796875 7.25 -2.8125 7.453125 -2.84375 C 7.765625 -2.875 7.984375 -2.984375 8.125 -3.109375 C 8.25 -3.25 8.359375 -3.46875 8.421875 -3.765625 C 8.484375 -3.96875 8.546875 -4.375 8.625 -5.015625 L 8.71875 -5.609375 C 8.78125 -6.109375 8.828125 -6.4375 8.84375 -6.609375 C 8.875 -6.75 8.875 -6.859375 8.875 -6.96875 C 8.875 -7.28125 8.796875 -7.5 8.640625 -7.609375 C 8.515625 -7.703125 8.28125 -7.765625 7.9375 -7.796875 C 7.75 -7.8125 7.375 -7.8125 6.796875 -7.8125 Z M 3.40625 -5.59375 L 6.46875 -5.59375 C 6.453125 -5.421875 6.4375 -5.296875 6.421875 -5.234375 C 6.421875 -5.171875 6.40625 -5.140625 6.375 -5.109375 C 6.34375 -5.078125 6.28125 -5.046875 6.1875 -5.03125 L 2.921875 -5.03125 C 2.96875 -5.21875 2.984375 -5.328125 2.984375 -5.375 C 3.015625 -5.4375 3.03125 -5.484375 3.046875 -5.515625 C 3.078125 -5.546875 3.109375 -5.578125 3.140625 -5.578125 C 3.171875 -5.59375 3.265625 -5.59375 3.40625 -5.59375 Z M 3.40625 -5.59375 "/></g></g></g><g fill="#ff914d" fill-opacity="1"><g transform="translate(59.060431, 64.504712)"><g><path d="M 0.9375 -5.578125 L 0.859375 -5.015625 L 0.546875 -2.78125 L 0.46875 -2.203125 L 0.15625 0 C 0.828125 0 1.28125 -0.015625 1.484375 -0.03125 C 1.765625 -0.078125 1.984375 -0.15625 2.109375 -0.25 C 2.265625 -0.375 2.390625 -0.5625 2.453125 -0.828125 C 2.515625 -1.0625 2.609375 -1.515625 2.703125 -2.203125 L 2.78125 -2.78125 L 3.109375 -5.015625 C 3.140625 -5.1875 3.15625 -5.296875 3.15625 -5.34375 C 3.1875 -5.4375 3.234375 -5.5 3.265625 -5.53125 C 3.3125 -5.5625 3.359375 -5.578125 3.421875 -5.578125 C 3.453125 -5.59375 3.5 -5.59375 3.546875 -5.59375 C 3.609375 -5.59375 3.6875 -5.59375 3.765625 -5.578125 L 6.640625 -5.578125 L 6.5625 -5.015625 L 6.25 -2.78125 L 6.171875 -2.203125 L 5.859375 0 C 6.625 0 7.140625 -0.03125 7.359375 -0.0625 C 7.625 -0.125 7.8125 -0.21875 7.9375 -0.359375 C 8.0625 -0.484375 8.140625 -0.6875 8.203125 -0.9375 C 8.265625 -1.15625 8.328125 -1.578125 8.40625 -2.203125 L 8.484375 -2.78125 L 8.796875 -5.015625 L 8.890625 -5.578125 C 8.984375 -6.265625 9.03125 -6.71875 9.03125 -6.9375 L 9.03125 -7.046875 C 9.015625 -7.3125 8.9375 -7.5 8.796875 -7.59375 C 8.703125 -7.6875 8.546875 -7.734375 8.34375 -7.765625 C 8.15625 -7.796875 7.859375 -7.796875 7.4375 -7.796875 L 3.015625 -7.796875 C 2.59375 -7.796875 2.296875 -7.796875 2.109375 -7.765625 C 1.859375 -7.734375 1.671875 -7.671875 1.546875 -7.578125 C 1.390625 -7.46875 1.265625 -7.265625 1.171875 -6.96875 C 1.125 -6.75 1.046875 -6.296875 0.9375 -5.578125 Z M 0.9375 -5.578125 "/></g></g></g><g fill="#ff914d" fill-opacity="1"><g transform="translate(68.228002, 64.504712)"><g><path d="M 3.625 -11.03125 L 3.1875 -7.796875 L 2.84375 -7.796875 C 2.375 -7.796875 2.046875 -7.796875 1.84375 -7.765625 C 1.53125 -7.734375 1.3125 -7.640625 1.15625 -7.515625 C 1.015625 -7.375 0.890625 -7.109375 0.796875 -6.703125 C 0.765625 -6.515625 0.703125 -6.140625 0.625 -5.578125 L 2.859375 -5.578125 L 2.78125 -5.015625 L 2.46875 -2.78125 L 2.390625 -2.203125 C 2.296875 -1.625 2.234375 -1.234375 2.203125 -1.03125 L 2.203125 -0.78125 C 2.203125 -0.59375 2.234375 -0.4375 2.296875 -0.328125 C 2.40625 -0.171875 2.65625 -0.0625 3.078125 -0.015625 C 3.296875 -0.015625 3.671875 0 4.21875 0 L 5.65625 0 C 6.265625 0 6.671875 -0.015625 6.875 -0.03125 C 7.203125 -0.078125 7.4375 -0.15625 7.578125 -0.28125 C 7.703125 -0.40625 7.8125 -0.625 7.890625 -0.90625 C 7.953125 -1.140625 8.015625 -1.5625 8.09375 -2.203125 L 4.625 -2.203125 L 4.703125 -2.78125 L 5.03125 -5.015625 L 5.109375 -5.578125 L 6.328125 -5.578125 C 7 -5.578125 7.421875 -5.59375 7.625 -5.609375 C 7.9375 -5.65625 8.171875 -5.734375 8.3125 -5.828125 C 8.453125 -5.953125 8.5625 -6.140625 8.640625 -6.390625 C 8.703125 -6.609375 8.78125 -7.078125 8.890625 -7.796875 L 5.421875 -7.796875 L 5.5625 -8.796875 C 5.65625 -9.359375 5.703125 -9.703125 5.703125 -9.84375 C 5.734375 -9.984375 5.734375 -10.09375 5.734375 -10.1875 C 5.734375 -10.359375 5.71875 -10.5 5.671875 -10.59375 C 5.578125 -10.8125 5.328125 -10.953125 4.875 -10.984375 C 4.640625 -11.015625 4.21875 -11.03125 3.625 -11.03125 Z M 3.625 -11.03125 "/></g></g></g><path stroke-linecap="butt" transform="matrix(0.24742, 0, 0, 0.24742, 57.495007, 64.114095)" fill="none" stroke-linejoin="miter" d="M 46.720793 14.853128 C 46.641854 15.626735 46.499763 16.984494 46.152429 19.131649 C 45.868247 21.215652 45.599852 22.841806 45.441973 23.978535 C 45.220943 25.557325 45.09464 26.630902 45.047276 27.183478 L 45.047276 27.704479 C 45.047276 28.288632 45.173579 28.762269 45.347246 29.109602 C 45.599852 29.441148 46.026126 29.693755 46.720793 29.835846 C 47.304946 29.914785 48.504826 29.993725 50.336223 29.993725 L 60.36154 29.993725 C 62.287664 29.993725 63.534908 29.914785 64.11906 29.835846 C 64.940031 29.662179 65.492608 29.362209 65.824154 28.841208 C 66.07676 28.462298 66.297791 27.862358 66.471458 27.088751 C 66.597761 26.536175 66.771428 25.525749 66.97667 23.978535 L 68.25549 14.853128 C 68.523885 13.226974 68.6344 12.121821 68.6344 11.616608 L 68.6344 11.190335 C 68.6344 10.543031 68.555461 10.069394 68.33443 9.769424 C 68.129187 9.437878 67.750278 9.185271 67.229277 9.090544 C 66.645125 8.932665 65.318941 8.885301 63.21915 8.885301 L 53.414863 8.885301 C 51.70977 8.885301 50.557253 8.885301 49.957313 8.964241 C 49.104766 9.058968 48.504826 9.311574 48.125917 9.737848 C 47.699643 10.164121 47.352309 11.016668 47.099703 12.342851 C 47.004976 12.769125 46.878672 13.621671 46.720793 14.853128 Z M 54.86735 14.853128 L 62.208724 14.853128 L 61.135147 22.447108 C 61.056208 22.952321 61.008844 23.268079 60.929904 23.425958 C 60.929904 23.599625 60.835177 23.725928 60.74045 23.820656 C 60.66151 23.899595 60.535207 23.931171 60.36154 23.978535 L 51.48874 23.978535 L 52.562317 16.431918 C 52.609681 16.179311 52.641256 15.958281 52.641256 15.879341 C 52.720196 15.484644 52.814923 15.247825 52.909651 15.153098 C 53.035954 15.026795 53.241197 14.932067 53.493803 14.900491 C 53.699046 14.853128 54.188471 14.853128 54.86735 14.853128 Z M 74.396984 35.077429 L 75.249531 29.993725 L 85.195908 29.993725 C 86.774698 29.993725 87.832488 29.962149 88.432428 29.867422 C 89.206035 29.741118 89.758612 29.535876 90.090158 29.188542 C 90.516431 28.809632 90.816401 28.162328 90.990068 27.278206 C 91.132159 26.678266 91.290038 25.604688 91.511069 23.978535 C 92.221524 18.910618 92.663586 15.879341 92.774101 14.853128 C 93.042495 13.416429 93.168798 12.469155 93.168798 11.948154 C 93.200374 11.616608 93.200374 11.364002 93.200374 11.142971 C 93.200374 10.62197 93.168798 10.195697 92.995131 9.911515 C 92.742525 9.311574 91.937342 9.011604 90.611158 8.932665 C 90.090158 8.837937 89.111308 8.837937 87.674609 8.837937 L 78.059777 8.837937 C 76.402047 8.837937 75.249531 8.885301 74.665378 8.964241 C 73.623377 9.058968 72.912921 9.358938 72.486648 9.864151 C 72.186678 10.258849 71.934071 10.890365 71.713041 11.821851 C 71.634101 12.342851 71.507798 13.321701 71.286767 14.853128 L 71.081525 16.431918 L 69.186977 29.993725 L 68.429157 36.024703 C 68.381794 36.356249 68.33443 36.57728 68.302854 36.703583 C 68.25549 36.861462 68.176551 37.082492 68.002884 37.256159 C 67.923945 37.429826 67.750278 37.587705 67.497671 37.8561 C 67.324004 38.013979 66.97667 38.282373 66.45567 38.708646 L 68.508097 38.708646 C 69.108037 38.708646 69.61325 38.661283 70.039523 38.613919 C 70.734191 38.534979 71.286767 38.487616 71.760405 38.313949 C 72.265617 38.140282 72.644527 37.935039 72.944497 37.714008 C 73.418134 37.382463 73.765468 36.908826 74.018074 36.387825 C 74.191741 36.024703 74.318044 35.59843 74.396984 35.077429 Z M 76.070502 23.978535 L 77.128291 16.431918 C 77.20723 16.005645 77.301958 15.705674 77.349321 15.579371 C 77.428261 15.326765 77.475625 15.200462 77.554564 15.105734 C 77.680867 14.979431 77.901898 14.900491 78.154504 14.900491 C 78.328171 14.853128 78.628141 14.853128 79.101779 14.853128 L 86.727335 14.853128 L 85.653757 22.447108 C 85.622182 22.841806 85.574818 23.078624 85.527454 23.268079 C 85.495878 23.473322 85.401151 23.646989 85.274848 23.773292 C 85.195908 23.820656 85.101181 23.852231 84.974878 23.931171 C 84.895938 23.931171 84.753847 23.931171 84.595968 23.978535 Z M 104.251905 0.138804 C 102.294205 0.138804 100.983809 0.186168 100.336505 0.265107 C 99.562898 0.39141 99.010322 0.69138 98.631412 1.117654 C 98.331442 1.464988 98.078836 2.096504 97.905169 2.94905 C 97.763078 3.470051 97.605199 4.52784 97.336804 6.153994 L 97.226289 7.306511 L 103.273055 7.306511 Z M 97.005258 8.837937 L 94.447618 26.883508 C 94.400255 27.309782 94.368679 27.578176 94.273951 27.736055 C 94.226588 27.941298 94.147648 28.162328 93.973981 28.367571 C 93.847678 28.557026 93.642435 28.762269 93.295102 29.109602 C 93.121435 29.267481 92.821465 29.567452 92.316252 29.993725 L 94.321315 29.993725 C 95.852742 29.993725 96.910531 29.962149 97.478895 29.914785 C 98.410382 29.835846 99.089261 29.567452 99.515535 29.188542 C 99.910232 28.809632 100.210202 28.162328 100.368081 27.278206 C 100.557536 26.725629 100.715415 25.652052 100.936446 24.025898 L 103.067812 8.837937 Z M 122.86584 8.837937 L 106.351696 8.837937 L 106.351696 9.564181 C 106.351696 10.685122 106.399059 11.521881 106.399059 12.042881 C 106.477999 12.974368 106.651666 13.621671 106.904272 14.000581 C 107.204242 14.395279 107.709455 14.632097 108.483062 14.774188 C 109.004063 14.821552 110.061853 14.853128 111.593279 14.853128 L 120.98708 14.853128 C 120.939716 15.326765 120.892353 15.626735 120.844989 15.800402 C 120.844989 15.958281 120.813413 16.100372 120.718686 16.179311 C 120.639746 16.258251 120.513443 16.352978 120.339776 16.384554 C 120.260837 16.384554 119.992442 16.431918 119.660896 16.431918 L 110.740732 16.431918 C 109.161942 16.431918 108.056789 16.479282 107.456849 16.558221 C 106.730605 16.652948 106.178029 16.905555 105.783331 17.284465 C 105.451785 17.631798 105.151815 18.310678 104.930785 19.336892 C 104.851845 19.842104 104.693966 20.868318 104.472936 22.399744 L 104.220329 23.978535 C 103.999298 25.683628 103.872995 26.851933 103.825632 27.436085 L 103.825632 27.704479 C 103.825632 28.367571 103.920359 28.841208 104.172965 29.188542 C 104.425572 29.488512 104.851845 29.693755 105.451785 29.835846 C 106.051726 29.914785 107.377909 29.993725 109.430336 29.993725 L 118.666259 29.993725 C 120.813413 29.993725 122.171173 29.914785 122.771113 29.835846 C 123.371053 29.693755 123.84469 29.535876 124.176236 29.267481 C 124.570934 28.983299 124.855116 28.509662 125.044571 27.909722 C 125.249813 27.309782 125.50242 26.030962 125.755026 23.978535 L 126.354966 19.636862 L 127.033846 14.853128 C 127.254877 13.321701 127.38118 12.295488 127.38118 11.790275 C 127.428544 11.521881 127.428544 11.364002 127.428544 11.190335 C 127.428544 10.290424 127.207513 9.690484 126.78124 9.406302 C 126.528633 9.185271 126.10236 9.058968 125.50242 8.964241 C 124.997207 8.885301 124.097297 8.837937 122.86584 8.837937 Z M 111.514339 22.399744 L 119.913503 22.399744 C 119.866139 22.873381 119.834563 23.173352 119.7872 23.347019 C 119.739836 23.504898 119.70826 23.694352 119.613533 23.773292 C 119.566169 23.852231 119.487229 23.899595 119.313563 23.931171 C 119.234623 23.931171 118.982017 23.978535 118.634683 23.978535 L 110.267095 23.978535 C 110.361823 23.646989 110.409186 23.378594 110.409186 23.268079 C 110.440762 22.920745 110.488126 22.715502 110.567065 22.620775 C 110.661793 22.526048 110.740732 22.447108 110.867035 22.447108 C 110.961763 22.399744 111.167006 22.399744 111.514339 22.399744 Z M 111.514339 22.399744 " stroke="#000000" stroke-width="11.200008" stroke-opacity="1" stroke-miterlimit="4"/><g fill="#ff914d" fill-opacity="1"><g transform="translate(68.536145, 71.536709)"><g><path d="M 0.515625 -3.75 C 0.5 -3.5625 0.46875 -3.21875 0.375 -2.6875 C 0.3125 -2.171875 0.25 -1.78125 0.203125 -1.484375 C 0.140625 -1.09375 0.109375 -0.828125 0.109375 -0.703125 L 0.109375 -0.578125 C 0.109375 -0.421875 0.140625 -0.3125 0.171875 -0.21875 C 0.25 -0.140625 0.34375 -0.078125 0.515625 -0.046875 C 0.671875 -0.015625 0.96875 0 1.421875 0 L 3.890625 0 C 4.375 0 4.671875 -0.015625 4.828125 -0.046875 C 5.03125 -0.078125 5.171875 -0.15625 5.25 -0.28125 C 5.3125 -0.375 5.359375 -0.53125 5.40625 -0.71875 C 5.4375 -0.859375 5.484375 -1.109375 5.53125 -1.484375 L 5.859375 -3.75 C 5.921875 -4.15625 5.953125 -4.421875 5.953125 -4.546875 L 5.953125 -4.65625 C 5.953125 -4.8125 5.921875 -4.9375 5.875 -5 C 5.8125 -5.09375 5.71875 -5.15625 5.59375 -5.171875 C 5.453125 -5.21875 5.125 -5.234375 4.609375 -5.234375 L 2.171875 -5.234375 C 1.75 -5.234375 1.46875 -5.234375 1.3125 -5.203125 C 1.109375 -5.1875 0.96875 -5.125 0.859375 -5.015625 C 0.765625 -4.90625 0.671875 -4.703125 0.609375 -4.375 C 0.59375 -4.265625 0.5625 -4.0625 0.515625 -3.75 Z M 2.53125 -3.75 L 4.359375 -3.75 L 4.09375 -1.875 C 4.0625 -1.75 4.0625 -1.671875 4.03125 -1.625 C 4.03125 -1.578125 4.015625 -1.546875 4 -1.53125 C 3.96875 -1.515625 3.9375 -1.5 3.890625 -1.484375 L 1.703125 -1.484375 L 1.96875 -3.359375 C 1.96875 -3.421875 1.984375 -3.46875 1.984375 -3.5 C 2 -3.59375 2.03125 -3.65625 2.046875 -3.671875 C 2.078125 -3.703125 2.140625 -3.734375 2.203125 -3.734375 C 2.25 -3.75 2.359375 -3.75 2.53125 -3.75 Z M 2.53125 -3.75 "/></g></g></g><g fill="#ff914d" fill-opacity="1"><g transform="translate(74.573041, 71.536709)"><g><path d="M 1.328125 1.25 L 1.546875 0 L 4 0 C 4.390625 0 4.65625 -0.015625 4.8125 -0.03125 C 5 -0.0625 5.140625 -0.109375 5.21875 -0.203125 C 5.328125 -0.296875 5.390625 -0.453125 5.4375 -0.671875 C 5.46875 -0.828125 5.515625 -1.09375 5.5625 -1.484375 C 5.75 -2.75 5.859375 -3.5 5.890625 -3.75 C 5.953125 -4.109375 5.984375 -4.34375 5.984375 -4.46875 C 5.984375 -4.546875 5.984375 -4.609375 5.984375 -4.671875 C 5.984375 -4.796875 5.984375 -4.90625 5.9375 -4.96875 C 5.875 -5.125 5.671875 -5.203125 5.34375 -5.21875 C 5.21875 -5.234375 4.96875 -5.234375 4.609375 -5.234375 L 2.234375 -5.234375 C 1.828125 -5.234375 1.546875 -5.234375 1.390625 -5.203125 C 1.140625 -5.1875 0.96875 -5.109375 0.859375 -4.984375 C 0.78125 -4.890625 0.71875 -4.734375 0.671875 -4.5 C 0.640625 -4.375 0.609375 -4.125 0.5625 -3.75 L 0.5 -3.359375 L 0.046875 0 L -0.140625 1.484375 C -0.15625 1.578125 -0.171875 1.625 -0.171875 1.65625 C -0.1875 1.703125 -0.21875 1.75 -0.25 1.796875 C -0.28125 1.84375 -0.3125 1.875 -0.375 1.9375 C -0.421875 1.984375 -0.5 2.046875 -0.640625 2.15625 L -0.125 2.15625 C 0.015625 2.15625 0.140625 2.140625 0.25 2.140625 C 0.421875 2.109375 0.5625 2.109375 0.671875 2.0625 C 0.796875 2.015625 0.890625 1.96875 0.96875 1.90625 C 1.09375 1.828125 1.171875 1.71875 1.234375 1.578125 C 1.28125 1.484375 1.3125 1.390625 1.328125 1.25 Z M 1.75 -1.484375 L 2 -3.359375 C 2.03125 -3.46875 2.046875 -3.53125 2.0625 -3.5625 C 2.078125 -3.640625 2.09375 -3.671875 2.109375 -3.6875 C 2.140625 -3.71875 2.203125 -3.734375 2.265625 -3.734375 C 2.296875 -3.75 2.375 -3.75 2.5 -3.75 L 4.390625 -3.75 L 4.125 -1.875 C 4.109375 -1.78125 4.09375 -1.71875 4.09375 -1.671875 C 4.078125 -1.609375 4.0625 -1.578125 4.03125 -1.546875 C 4 -1.53125 3.984375 -1.515625 3.953125 -1.5 C 3.921875 -1.5 3.890625 -1.5 3.859375 -1.484375 Z M 1.75 -1.484375 "/></g></g></g><g fill="#ff914d" fill-opacity="1"><g transform="translate(80.652153, 71.536709)"><g><path d="M 2.640625 -7.390625 C 2.15625 -7.390625 1.828125 -7.390625 1.671875 -7.359375 C 1.484375 -7.328125 1.34375 -7.25 1.25 -7.15625 C 1.171875 -7.0625 1.109375 -6.90625 1.0625 -6.703125 C 1.03125 -6.5625 1 -6.3125 0.921875 -5.90625 L 0.890625 -5.625 L 2.390625 -5.625 Z M 0.84375 -5.234375 L 0.21875 -0.765625 C 0.203125 -0.671875 0.1875 -0.609375 0.171875 -0.5625 C 0.15625 -0.5 0.140625 -0.453125 0.09375 -0.40625 C 0.0625 -0.359375 0.015625 -0.3125 -0.078125 -0.21875 C -0.109375 -0.171875 -0.1875 -0.109375 -0.3125 0 L 0.171875 0 C 0.5625 0 0.828125 -0.015625 0.96875 -0.015625 C 1.1875 -0.046875 1.359375 -0.109375 1.46875 -0.203125 C 1.5625 -0.296875 1.640625 -0.453125 1.671875 -0.671875 C 1.71875 -0.8125 1.765625 -1.078125 1.8125 -1.484375 L 2.34375 -5.234375 Z M 0.84375 -5.234375 "/></g></g></g><g fill="#ff914d" fill-opacity="1"><g transform="translate(83.079577, 71.536709)"><g><path d="M 4.8125 -5.234375 L 0.734375 -5.234375 L 0.734375 -5.0625 C 0.734375 -4.78125 0.734375 -4.578125 0.734375 -4.453125 C 0.765625 -4.21875 0.796875 -4.0625 0.859375 -3.953125 C 0.9375 -3.859375 1.0625 -3.796875 1.25 -3.765625 C 1.390625 -3.765625 1.640625 -3.75 2.03125 -3.75 L 4.359375 -3.75 C 4.34375 -3.640625 4.328125 -3.5625 4.3125 -3.515625 C 4.3125 -3.46875 4.3125 -3.4375 4.28125 -3.421875 C 4.265625 -3.40625 4.234375 -3.375 4.1875 -3.375 C 4.171875 -3.375 4.109375 -3.359375 4.03125 -3.359375 L 1.8125 -3.359375 C 1.421875 -3.359375 1.15625 -3.34375 1 -3.328125 C 0.828125 -3.3125 0.6875 -3.25 0.59375 -3.140625 C 0.5 -3.0625 0.4375 -2.890625 0.375 -2.640625 C 0.359375 -2.515625 0.3125 -2.265625 0.265625 -1.875 L 0.203125 -1.484375 C 0.140625 -1.0625 0.109375 -0.78125 0.109375 -0.640625 L 0.109375 -0.578125 C 0.109375 -0.40625 0.125 -0.28125 0.1875 -0.203125 C 0.25 -0.125 0.359375 -0.078125 0.5 -0.046875 C 0.65625 -0.015625 0.984375 0 1.484375 0 L 3.78125 0 C 4.3125 0 4.640625 -0.015625 4.796875 -0.046875 C 4.9375 -0.078125 5.0625 -0.109375 5.140625 -0.171875 C 5.234375 -0.25 5.3125 -0.375 5.359375 -0.515625 C 5.40625 -0.671875 5.46875 -0.984375 5.53125 -1.484375 L 5.6875 -2.5625 L 5.859375 -3.75 C 5.90625 -4.125 5.9375 -4.390625 5.9375 -4.515625 C 5.953125 -4.578125 5.953125 -4.609375 5.953125 -4.65625 C 5.953125 -4.875 5.890625 -5.03125 5.78125 -5.109375 C 5.71875 -5.15625 5.625 -5.1875 5.46875 -5.203125 C 5.34375 -5.234375 5.125 -5.234375 4.8125 -5.234375 Z M 2 -1.875 L 4.09375 -1.875 C 4.078125 -1.765625 4.0625 -1.6875 4.0625 -1.640625 C 4.046875 -1.609375 4.03125 -1.5625 4.015625 -1.546875 C 4 -1.515625 3.984375 -1.515625 3.9375 -1.5 C 3.921875 -1.5 3.859375 -1.484375 3.765625 -1.484375 L 1.703125 -1.484375 C 1.71875 -1.578125 1.734375 -1.640625 1.734375 -1.671875 C 1.75 -1.75 1.75 -1.8125 1.78125 -1.828125 C 1.796875 -1.84375 1.8125 -1.875 1.84375 -1.875 C 1.875 -1.875 1.921875 -1.875 2 -1.875 Z M 2 -1.875 "/></g></g></g></svg>