<svg xmlns="http://www.w3.org/2000/svg" xmlns:xlink="http://www.w3.org/1999/xlink" width="153" zoomAndPan="magnify" viewBox="0 0 114.75 60" height="80" preserveAspectRatio="xMidYMid meet" version="1.0"><defs><g/><clipPath id="af654e9d75"><path d="M 77.070312 18.03125 L 98.027344 18.03125 L 98.027344 29 L 77.070312 29 Z M 77.070312 18.03125 " clip-rule="nonzero"/></clipPath><clipPath id="fc4e6346f0"><path d="M 17 14 L 78 14 L 78 49 L 17 49 Z M 17 14 " clip-rule="nonzero"/></clipPath><clipPath id="7ee96e3b85"><path d="M 25.953125 0.871094 L 81.910156 17.484375 L 69.34375 59.8125 L 13.386719 43.199219 Z M 25.953125 0.871094 " clip-rule="nonzero"/></clipPath><clipPath id="7870c27f60"><path d="M 25.953125 0.871094 L 81.910156 17.484375 L 69.34375 59.8125 L 13.386719 43.199219 Z M 25.953125 0.871094 " clip-rule="nonzero"/></clipPath><clipPath id="ac0f2f7ea3"><path d="M 25.953125 0.871094 L 81.910156 17.484375 L 69.34375 59.8125 L 13.386719 43.199219 Z M 25.953125 0.871094 " clip-rule="nonzero"/></clipPath><clipPath id="c032f95ac1"><path d="M 17 11 L 34 11 L 34 27 L 17 27 Z M 17 11 " clip-rule="nonzero"/></clipPath><clipPath id="08b8132c98"><path d="M 17.851562 18.566406 L 26.046875 10.894531 L 33.207031 18.542969 L 25.011719 26.214844 Z M 17.851562 18.566406 " clip-rule="nonzero"/></clipPath><clipPath id="ac3569db2f"><path d="M 17.851562 18.566406 L 26.046875 10.894531 L 33.207031 18.542969 L 25.011719 26.214844 Z M 17.851562 18.566406 " clip-rule="nonzero"/></clipPath><clipPath id="8c5eee8f3a"><path d="M 47 43 L 57 43 L 57 53 L 47 53 Z M 47 43 " clip-rule="nonzero"/></clipPath><clipPath id="834ead09aa"><path d="M 47.175781 47.675781 L 52.09375 43.074219 L 56.699219 47.992188 L 51.78125 52.59375 Z M 47.175781 47.675781 " clip-rule="nonzero"/></clipPath><clipPath id="0ff55a4d42"><path d="M 47.175781 47.675781 L 52.09375 43.074219 L 56.699219 47.992188 L 51.78125 52.59375 Z M 47.175781 47.675781 " clip-rule="nonzero"/></clipPath><clipPath id="9a65c69c95"><path d="M 80.621094 48.753906 L 94.839844 48.753906 L 94.839844 56.238281 L 80.621094 56.238281 Z M 80.621094 48.753906 " clip-rule="nonzero"/></clipPath><clipPath id="ac59d2918e"><path d="M 8 0.0664062 L 62 0.0664062 L 62 51 L 8 51 Z M 8 0.0664062 " clip-rule="nonzero"/></clipPath><clipPath id="198ffa11a1"><path d="M 64 28 L 99 28 L 99 52 L 64 52 Z M 64 28 " clip-rule="nonzero"/></clipPath><clipPath id="5d74cb1134"><path d="M 65.46875 24.089844 L 101.785156 29.175781 L 98.046875 55.855469 L 61.730469 50.769531 Z M 65.46875 24.089844 " clip-rule="nonzero"/></clipPath><clipPath id="41a81f87d2"><path d="M 65.46875 24.089844 L 101.785156 29.175781 L 98.046875 55.855469 L 61.730469 50.769531 Z M 65.46875 24.089844 " clip-rule="nonzero"/></clipPath><clipPath id="7daa8adb4f"><path d="M 65.46875 24.089844 L 101.785156 29.175781 L 98.046875 55.855469 L 61.730469 50.769531 Z M 65.46875 24.089844 " clip-rule="nonzero"/></clipPath><clipPath id="44b68252d1"><path d="M 11 2 L 103 2 L 103 59.933594 L 11 59.933594 Z M 11 2 " clip-rule="nonzero"/></clipPath><clipPath id="877c3f972d"><path d="M 54 21 L 107 21 L 107 59.933594 L 54 59.933594 Z M 54 21 " clip-rule="nonzero"/></clipPath></defs><g clip-path="url(#af654e9d75)"><path fill="#000000" d="M 77.070312 23.53125 L 77.070312 23.445312 C 86.871094 23.445312 87.585938 22.628906 87.585938 18.042969 L 87.746094 18.042969 C 87.746094 22.628906 88.460938 23.445312 98.261719 23.445312 L 98.261719 23.53125 C 88.460938 23.53125 87.746094 24.34375 87.746094 28.929688 L 87.585938 28.929688 C 87.585938 24.34375 86.871094 23.53125 77.070312 23.53125 " fill-opacity="1" fill-rule="evenodd"/></g><g clip-path="url(#fc4e6346f0)"><g clip-path="url(#7ee96e3b85)"><g clip-path="url(#7870c27f60)"><g clip-path="url(#ac0f2f7ea3)"><path fill="#000000" d="M 63.054688 20.253906 C 62.308594 24.617188 55.28125 31.316406 45.476562 36.585938 C 40.617188 39.199219 35.835938 41.050781 31.753906 42.042969 C 32.496094 37.679688 39.519531 30.980469 49.332031 25.710938 C 54.179688 23.105469 58.949219 21.253906 63.03125 20.261719 Z M 72.082031 19.785156 L 72.148438 19.804688 C 73.230469 20.140625 74.023438 20.695312 74.453125 21.492188 C 76.621094 25.449219 68.875 33.773438 57.171875 40.0625 C 47.894531 45.046875 38.894531 47.269531 34.488281 46.003906 L 34.421875 45.984375 C 33.304688 45.652344 32.488281 45.085938 32.050781 44.285156 C 31.90625 44.015625 31.804688 43.734375 31.746094 43.433594 C 36.085938 42.242188 41.011719 40.261719 46.015625 37.574219 C 56.664062 31.851562 64.429688 24.652344 65.855469 19.695312 C 68.386719 19.300781 70.53125 19.324219 72.082031 19.785156 Z M 63.054688 18.859375 C 58.71875 20.050781 53.789062 22.03125 48.785156 24.722656 C 38.140625 30.441406 30.378906 37.644531 28.949219 42.601562 C 24.601562 43.273438 21.402344 42.730469 20.347656 40.808594 C 18.179688 36.847656 25.925781 28.527344 37.628906 22.238281 C 49.332031 15.945312 60.589844 14.054688 62.753906 18.011719 C 62.902344 18.28125 63.003906 18.5625 63.058594 18.863281 Z M 74.753906 18.003906 C 75.984375 18.386719 76.890625 19.019531 77.378906 19.917969 C 79.84375 24.421875 71.035156 33.890625 57.714844 41.046875 C 47.160156 46.726562 36.914062 49.253906 31.902344 47.808594 L 31.828125 47.789062 C 30.554688 47.410156 29.628906 46.769531 29.128906 45.851562 C 28.84375 45.320312 28.707031 44.753906 28.714844 44.15625 C 23.003906 45.292969 18.742188 44.785156 17.429688 42.378906 C 14.964844 37.875 23.773438 28.40625 37.089844 21.25 C 50.40625 14.089844 63.214844 11.9375 65.679688 16.445312 C 65.960938 16.976562 66.097656 17.539062 66.089844 18.140625 C 69.628906 17.4375 72.609375 17.367188 74.679688 17.984375 Z M 74.753906 18.003906 " fill-opacity="1" fill-rule="evenodd"/></g></g></g></g><g clip-path="url(#c032f95ac1)"><g clip-path="url(#08b8132c98)"><g clip-path="url(#ac3569db2f)"><path fill="#000000" d="M 26.046875 11.011719 L 25.929688 11.011719 C 25.535156 18.070312 24.363281 18.566406 17.925781 18.5 L 17.917969 18.621094 C 24.355469 18.6875 25.472656 19.210938 25.078125 26.269531 L 25.199219 26.269531 C 25.589844 19.210938 26.765625 18.710938 33.203125 18.777344 L 33.207031 18.660156 C 26.773438 18.59375 25.65625 18.070312 26.046875 11.011719 " fill-opacity="1" fill-rule="evenodd"/></g></g></g><g clip-path="url(#8c5eee8f3a)"><g clip-path="url(#834ead09aa)"><g clip-path="url(#0ff55a4d42)"><path fill="#000000" d="M 52.144531 43.097656 L 52.074219 43.097656 C 51.835938 47.375 51.125 47.679688 47.222656 47.636719 L 47.21875 47.710938 C 51.121094 47.75 51.796875 48.066406 51.558594 52.347656 L 51.628906 52.347656 C 51.867188 48.070312 52.582031 47.765625 56.480469 47.804688 L 56.484375 47.734375 C 52.585938 47.695312 51.90625 47.375 52.144531 43.097656 " fill-opacity="1" fill-rule="evenodd"/></g></g></g><g clip-path="url(#9a65c69c95)"><path fill="#000000" d="M 80.621094 52.410156 L 80.621094 52.355469 C 87.140625 52.355469 87.613281 51.8125 87.613281 48.761719 L 87.722656 48.761719 C 87.722656 51.8125 88.195312 52.355469 94.71875 52.355469 L 94.71875 52.410156 C 88.195312 52.410156 87.722656 52.953125 87.722656 56.003906 L 87.613281 56.003906 C 87.613281 52.953125 87.140625 52.410156 80.621094 52.410156 " fill-opacity="1" fill-rule="evenodd"/></g><g clip-path="url(#ac59d2918e)"><path stroke-linecap="butt" transform="matrix(0.341018, 0, 0, 0.341018, 5.986956, 15.652624)" fill="none" stroke-linejoin="miter" d="M 82.77531 8.842181 C 81.240384 8.842181 80.1751 8.876545 79.579457 8.968182 C 78.983815 9.05982 78.502719 9.185821 78.170533 9.40346 C 77.563436 9.735645 77.139613 10.58329 76.887611 11.866213 C 76.807428 12.381673 76.669972 13.412593 76.463788 14.855881 L 74.883044 26.07 L 73.47412 35.966833 C 73.47412 36.184471 73.428301 36.390655 73.348119 36.608294 C 73.267936 36.860297 73.13048 37.123754 72.95866 37.387211 C 72.798295 37.639214 72.534837 37.891217 72.191197 38.143219 C 72.030832 38.326494 71.721556 38.486859 71.297733 38.750317 L 73.393937 38.750317 C 74.241583 38.750317 74.883044 38.704498 75.261048 38.704498 C 76.074329 38.704498 76.669972 38.658679 77.093795 38.567042 C 77.746711 38.441041 78.216352 38.234857 78.502719 37.982854 C 78.926541 37.639214 79.235817 37.043571 79.453456 36.184471 C 79.613821 35.588829 79.785641 34.397543 80.00328 32.690798 L 80.392739 29.998951 L 89.854294 29.998951 C 91.480856 29.998951 92.580505 29.953132 93.095965 29.918768 C 94.081066 29.838586 94.756891 29.609492 95.192169 29.265852 C 95.615991 28.933667 95.913813 28.418207 96.085633 27.662199 C 96.245998 27.089466 96.429273 25.863816 96.681275 23.985251 L 81.240384 23.985251 L 82.305668 16.425171 C 82.385851 15.955529 82.43167 15.669163 82.43167 15.497343 C 82.511852 15.24534 82.649308 15.107884 82.729491 15.027701 C 82.855492 14.936064 83.038767 14.9017 83.199132 14.9017 C 83.370952 14.855881 83.748956 14.855881 84.264416 14.855881 L 91.904679 14.855881 C 93.703062 14.855881 94.848529 14.810063 95.398353 14.775699 C 96.245998 14.695516 96.853095 14.466423 97.196735 14.168601 C 97.620558 13.882235 97.964198 13.366775 98.136018 12.633676 C 98.307838 12.209853 98.433839 11.579846 98.514022 10.800929 C 98.605659 10.377106 98.685842 9.735645 98.811843 8.842181 Z M 82.77531 8.842181 " stroke="#000000" stroke-width="11.200008" stroke-opacity="1" stroke-miterlimit="4"/></g><g fill="#ff914d" fill-opacity="1"><g transform="translate(31.174348, 25.88317)"><g><path d="M 3.046875 -7.21875 C 2.515625 -7.21875 2.15625 -7.203125 1.953125 -7.171875 C 1.75 -7.140625 1.578125 -7.09375 1.46875 -7.03125 C 1.265625 -6.90625 1.125 -6.625 1.03125 -6.1875 C 1 -6.015625 0.953125 -5.65625 0.890625 -5.171875 L 0.34375 -1.34375 L -0.125 2.03125 C -0.125 2.109375 -0.140625 2.1875 -0.171875 2.25 C -0.203125 2.34375 -0.25 2.421875 -0.3125 2.515625 C -0.359375 2.609375 -0.453125 2.6875 -0.5625 2.78125 C -0.625 2.84375 -0.734375 2.890625 -0.875 2.984375 L -0.15625 2.984375 C 0.125 2.984375 0.34375 2.96875 0.484375 2.96875 C 0.75 2.96875 0.953125 2.953125 1.109375 2.921875 C 1.328125 2.875 1.484375 2.8125 1.578125 2.71875 C 1.734375 2.609375 1.828125 2.40625 1.90625 2.109375 C 1.96875 1.90625 2.015625 1.5 2.09375 0.921875 L 2.21875 0 L 5.453125 0 C 6.015625 0 6.390625 -0.015625 6.5625 -0.03125 C 6.890625 -0.0625 7.125 -0.125 7.265625 -0.25 C 7.421875 -0.359375 7.515625 -0.53125 7.578125 -0.796875 C 7.640625 -0.984375 7.6875 -1.40625 7.78125 -2.046875 L 2.515625 -2.046875 L 2.875 -4.625 C 2.90625 -4.78125 2.921875 -4.890625 2.921875 -4.953125 C 2.953125 -5.03125 3 -5.078125 3.03125 -5.109375 C 3.0625 -5.140625 3.125 -5.15625 3.1875 -5.15625 C 3.25 -5.171875 3.375 -5.171875 3.546875 -5.171875 L 6.15625 -5.171875 C 6.765625 -5.171875 7.15625 -5.171875 7.34375 -5.1875 C 7.640625 -5.21875 7.84375 -5.296875 7.953125 -5.390625 C 8.109375 -5.5 8.21875 -5.671875 8.28125 -5.921875 C 8.328125 -6.0625 8.375 -6.28125 8.40625 -6.546875 C 8.4375 -6.6875 8.46875 -6.90625 8.515625 -7.21875 Z M 3.046875 -7.21875 "/></g></g></g><g clip-path="url(#198ffa11a1)"><g clip-path="url(#5d74cb1134)"><g clip-path="url(#41a81f87d2)"><g clip-path="url(#7daa8adb4f)"><path fill="#000000" d="M 96.09375 28.386719 C 96.035156 28.375 95.972656 28.375 95.914062 28.382812 L 89.707031 29.507812 C 89.472656 29.550781 89.3125 29.769531 89.339844 30.003906 C 89.386719 30.359375 89.144531 30.6875 88.789062 30.753906 C 88.441406 30.816406 88.097656 30.59375 88.007812 30.246094 C 87.953125 30.015625 87.726562 29.867188 87.488281 29.910156 L 66.839844 33.652344 C 66.800781 33.660156 66.761719 33.679688 66.726562 33.695312 L 64.550781 33.703125 C 64.429688 33.703125 64.316406 33.75 64.230469 33.832031 C 64.144531 33.917969 64.097656 34.03125 64.101562 34.152344 L 64.125 40.265625 C 64.128906 40.511719 64.324219 40.710938 64.578125 40.710938 C 65.527344 40.71875 66.300781 41.488281 66.304688 42.429688 C 66.3125 43.371094 65.542969 44.144531 64.59375 44.152344 C 64.34375 44.15625 64.144531 44.355469 64.148438 44.601562 L 64.175781 50.714844 C 64.175781 50.835938 64.222656 50.949219 64.308594 51.03125 C 64.378906 51.101562 64.46875 51.144531 64.566406 51.160156 C 64.585938 51.164062 64.609375 51.164062 64.628906 51.164062 L 89.679688 51.101562 C 89.804688 51.101562 89.925781 51.050781 90.007812 50.957031 C 90.09375 50.867188 90.136719 50.746094 90.128906 50.621094 L 90.121094 50.578125 C 90.121094 50.398438 90.191406 50.226562 90.320312 50.097656 C 90.445312 49.96875 90.617188 49.898438 90.800781 49.898438 C 90.980469 49.898438 91.15625 49.96875 91.285156 50.09375 C 91.414062 50.222656 91.484375 50.394531 91.488281 50.558594 C 91.484375 50.566406 91.480469 50.605469 91.480469 50.617188 C 91.472656 50.742188 91.515625 50.863281 91.601562 50.953125 C 91.6875 51.046875 91.804688 51.097656 91.933594 51.097656 L 98.246094 51.082031 C 98.363281 51.082031 98.480469 51.035156 98.5625 50.949219 C 98.648438 50.863281 98.695312 50.75 98.695312 50.632812 L 98.667969 44.507812 C 98.664062 44.269531 98.476562 44.074219 98.238281 44.058594 C 97.320312 44.007812 96.59375 43.261719 96.589844 42.351562 C 96.585938 41.445312 97.300781 40.691406 98.222656 40.640625 C 98.460938 40.625 98.648438 40.429688 98.648438 40.191406 L 98.621094 34.066406 C 98.617188 33.945312 98.570312 33.832031 98.484375 33.75 C 98.398438 33.664062 98.289062 33.621094 98.164062 33.617188 L 97.34375 33.621094 L 96.441406 28.746094 C 96.40625 28.5625 96.265625 28.425781 96.09375 28.386719 Z M 95.632812 29.347656 L 96.425781 33.625 L 91.855469 33.632812 C 91.617188 33.632812 91.417969 33.820312 91.40625 34.058594 C 91.386719 34.414062 91.089844 34.695312 90.730469 34.695312 C 90.375 34.699219 90.074219 34.417969 90.050781 34.0625 C 90.035156 33.824219 89.84375 33.640625 89.597656 33.640625 L 71.710938 33.683594 L 87.292969 30.859375 C 87.617188 31.429688 88.28125 31.757812 88.957031 31.636719 C 89.632812 31.511719 90.132812 30.976562 90.234375 30.328125 Z M 97.714844 34.515625 L 97.738281 39.800781 C 96.550781 40.0625 95.679688 41.113281 95.683594 42.355469 C 95.691406 43.59375 96.574219 44.640625 97.761719 44.898438 L 97.785156 50.183594 L 92.34375 50.195312 C 92.273438 49.917969 92.128906 49.664062 91.921875 49.457031 C 91.621094 49.160156 91.21875 49 90.796875 49 C 90.371094 49 89.972656 49.164062 89.675781 49.460938 C 89.46875 49.671875 89.324219 49.925781 89.257812 50.203125 L 65.078125 50.261719 L 65.054688 45.007812 C 66.28125 44.78125 67.214844 43.707031 67.210938 42.425781 C 67.203125 41.144531 66.261719 40.074219 65.03125 39.855469 L 65.007812 34.597656 L 89.234375 34.539062 C 89.453125 35.15625 90.050781 35.597656 90.734375 35.59375 C 91.421875 35.59375 92.011719 35.148438 92.226562 34.53125 Z M 90.671875 36.136719 C 90.546875 36.136719 90.445312 36.238281 90.445312 36.363281 L 90.449219 36.8125 C 90.449219 36.925781 90.535156 37.015625 90.644531 37.03125 C 90.652344 37.035156 90.664062 37.035156 90.675781 37.035156 C 90.800781 37.035156 90.902344 36.933594 90.898438 36.808594 L 90.898438 36.359375 C 90.898438 36.238281 90.792969 36.136719 90.671875 36.136719 Z M 86.574219 36.441406 L 86.019531 36.441406 C 85.894531 36.441406 85.792969 36.542969 85.792969 36.664062 C 85.792969 36.777344 85.875 36.871094 85.984375 36.886719 C 85.996094 36.890625 86.007812 36.890625 86.019531 36.890625 L 86.574219 36.890625 C 86.699219 36.886719 86.800781 36.789062 86.800781 36.664062 C 86.800781 36.539062 86.695312 36.4375 86.574219 36.441406 Z M 85.320312 36.445312 C 85.277344 36.445312 85.234375 36.460938 85.199219 36.488281 C 85.152344 36.523438 85.121094 36.578125 85.113281 36.636719 C 85.105469 36.691406 85.117188 36.753906 85.15625 36.800781 C 85.191406 36.851562 85.246094 36.878906 85.304688 36.890625 C 85.332031 36.894531 85.363281 36.894531 85.394531 36.882812 C 85.421875 36.878906 85.445312 36.863281 85.472656 36.84375 C 85.515625 36.808594 85.550781 36.753906 85.558594 36.699219 C 85.566406 36.640625 85.550781 36.578125 85.515625 36.53125 C 85.5 36.507812 85.476562 36.488281 85.449219 36.472656 C 85.410156 36.449219 85.363281 36.441406 85.320312 36.445312 Z M 84.402344 36.445312 L 68.664062 36.484375 C 68.601562 36.484375 68.546875 36.507812 68.503906 36.550781 C 68.460938 36.59375 68.4375 36.648438 68.4375 36.707031 L 68.472656 44.335938 C 68.472656 44.449219 68.558594 44.542969 68.667969 44.558594 C 68.675781 44.558594 68.6875 44.558594 68.699219 44.558594 C 68.824219 44.558594 68.925781 44.457031 68.925781 44.332031 L 68.890625 36.933594 L 84.40625 36.894531 C 84.53125 36.894531 84.628906 36.792969 84.628906 36.667969 C 84.628906 36.542969 84.523438 36.445312 84.402344 36.445312 Z M 90.679688 38.035156 C 90.554688 38.035156 90.453125 38.136719 90.453125 38.261719 L 90.457031 39.226562 C 90.457031 39.339844 90.542969 39.433594 90.652344 39.449219 C 90.664062 39.449219 90.675781 39.453125 90.6875 39.453125 C 90.808594 39.449219 90.910156 39.351562 90.910156 39.226562 L 90.90625 38.257812 C 90.90625 38.132812 90.800781 38.035156 90.679688 38.035156 Z M 87.859375 38.207031 C 87.734375 38.207031 87.632812 38.308594 87.636719 38.433594 L 87.679688 47.863281 L 68.941406 47.910156 L 68.933594 46.890625 C 68.933594 46.765625 68.828125 46.664062 68.707031 46.667969 C 68.582031 46.667969 68.484375 46.765625 68.484375 46.890625 L 68.488281 48.136719 C 68.488281 48.25 68.574219 48.34375 68.683594 48.359375 C 68.695312 48.359375 68.707031 48.359375 68.714844 48.359375 L 87.90625 48.3125 C 87.964844 48.3125 88.023438 48.289062 88.066406 48.246094 C 88.109375 48.207031 88.132812 48.148438 88.132812 48.089844 L 88.085938 38.429688 C 88.085938 38.304688 87.980469 38.207031 87.859375 38.207031 Z M 90.691406 40.453125 C 90.566406 40.453125 90.464844 40.554688 90.464844 40.675781 L 90.46875 41.644531 C 90.46875 41.757812 90.554688 41.851562 90.664062 41.863281 C 90.675781 41.867188 90.683594 41.867188 90.695312 41.867188 C 90.820312 41.867188 90.921875 41.765625 90.921875 41.644531 L 90.917969 40.675781 C 90.917969 40.550781 90.8125 40.449219 90.691406 40.453125 Z M 90.699219 42.867188 C 90.574219 42.867188 90.476562 42.96875 90.476562 43.09375 L 90.480469 44.058594 C 90.480469 44.171875 90.566406 44.265625 90.675781 44.28125 C 90.6875 44.28125 90.695312 44.285156 90.707031 44.285156 C 90.832031 44.28125 90.933594 44.183594 90.933594 44.058594 L 90.925781 43.09375 C 90.925781 42.96875 90.820312 42.867188 90.699219 42.867188 Z M 90.710938 45.285156 C 90.585938 45.285156 90.484375 45.386719 90.488281 45.511719 L 90.492188 46.476562 C 90.492188 46.589844 90.574219 46.683594 90.683594 46.699219 C 90.695312 46.699219 90.707031 46.699219 90.71875 46.699219 C 90.84375 46.699219 90.941406 46.597656 90.941406 46.476562 L 90.9375 45.507812 C 90.9375 45.382812 90.835938 45.285156 90.710938 45.285156 Z M 90.722656 47.703125 C 90.597656 47.703125 90.496094 47.800781 90.496094 47.925781 L 90.5 48.375 C 90.5 48.488281 90.585938 48.582031 90.695312 48.597656 C 90.707031 48.597656 90.714844 48.601562 90.726562 48.601562 C 90.851562 48.597656 90.953125 48.5 90.953125 48.375 L 90.949219 47.925781 C 90.949219 47.800781 90.84375 47.699219 90.722656 47.703125 Z M 68.703125 45.320312 C 68.578125 45.320312 68.476562 45.421875 68.476562 45.546875 L 68.480469 45.96875 C 68.480469 46.078125 68.566406 46.171875 68.675781 46.1875 C 68.683594 46.191406 68.695312 46.191406 68.707031 46.191406 C 68.832031 46.191406 68.933594 46.089844 68.933594 45.964844 L 68.929688 45.542969 C 68.929688 45.421875 68.824219 45.316406 68.703125 45.320312 Z M 68.703125 45.320312 " fill-opacity="1" fill-rule="nonzero"/></g></g></g></g><g clip-path="url(#44b68252d1)"><path stroke-linecap="butt" transform="matrix(0.362633, 0, 0, 0.362633, 11.229872, 26.166156)" fill="none" stroke-linejoin="miter" d="M 73.035285 9.48429 C 71.031707 9.48429 69.728304 9.48429 69.125076 9.581238 C 68.338726 9.667413 67.735498 9.925939 67.29385 10.313729 C 66.90606 10.71229 66.593674 11.412465 66.389008 12.446569 L 65.861184 15.581199 L 64.557781 24.866597 C 64.342343 26.611649 64.213079 27.7427 64.169992 28.30284 L 64.169992 28.658314 C 64.169992 29.218454 64.256167 29.649331 64.43929 30.004804 C 64.687044 30.392594 65.128693 30.65112 65.731921 30.834242 C 66.34592 30.920418 67.4662 30.995821 69.211252 30.995821 L 85.627663 30.995821 L 85.627663 30.252559 C 85.627663 29.003015 85.627663 28.098174 85.541488 27.559578 C 85.4984 26.654736 85.336821 26.008421 84.981348 25.652947 C 84.712049 25.308246 84.238085 25.092807 83.548682 25.006632 C 83.074717 24.920457 81.975981 24.866597 80.295561 24.866597 L 70.730093 24.866597 C 70.816268 24.446492 70.859356 24.134106 70.859356 24.004843 C 70.902444 23.746317 70.945532 23.573966 71.031707 23.477019 C 71.117882 23.390843 71.257917 23.304668 71.38718 23.304668 L 81.157315 23.304668 C 82.676156 23.304668 83.721033 23.26158 84.281173 23.186177 C 85.153698 23.046142 85.767698 22.787616 86.155487 22.442914 C 86.500189 22.087441 86.801803 21.484213 86.974153 20.654775 C 87.157276 20.051547 87.329627 18.920495 87.545065 17.175444 L 87.803591 15.581199 C 87.986714 14.191621 88.115977 13.276007 88.159065 12.758955 C 88.191381 12.403482 88.191381 12.101868 88.191381 11.843342 C 88.191381 10.970816 88.029802 10.356816 87.588153 10.055202 C 87.243451 9.753589 86.586364 9.581238 85.627663 9.53815 C 85.110611 9.48429 84.065734 9.48429 82.503805 9.48429 Z M 73.12146 15.581199 L 81.588192 15.581199 C 81.545104 16.098251 81.502016 16.399865 81.458929 16.572216 C 81.458929 16.755339 81.415841 16.884602 81.329666 16.970777 C 81.24349 17.046181 81.071139 17.132356 80.812613 17.175444 L 71.818057 17.175444 C 71.904233 16.658391 71.94732 16.356778 71.94732 16.227514 C 72.033496 16.012076 72.076583 15.925901 72.130443 15.828953 C 72.205847 15.742778 72.292022 15.656603 72.378197 15.613515 C 72.464373 15.581199 72.733671 15.581199 73.12146 15.581199 Z M 89.667134 9.441203 L 90.755098 17.315479 L 91.843063 24.866597 C 92.101589 26.611649 92.317027 27.785788 92.403203 28.389016 C 92.618641 29.089191 92.844852 29.606243 93.092606 29.961717 C 93.448079 30.349506 93.922044 30.608032 94.579131 30.791155 C 95.182359 30.920418 96.615025 30.995821 98.877129 30.995821 L 102.959687 30.995821 C 104.747827 30.995821 105.921966 30.920418 106.525194 30.834242 C 107.225369 30.694207 107.699334 30.435681 108.044035 30.09098 C 108.388737 29.735506 108.614947 29.175366 108.787298 28.432104 C 108.948877 27.828876 109.132 26.654736 109.390526 24.866597 L 110.693928 15.613515 C 110.963226 13.79306 111.081718 12.61892 111.081718 12.101868 L 111.081718 11.800254 C 111.081718 11.013904 110.963226 10.453764 110.650841 10.141378 C 110.349227 9.796676 109.735227 9.624325 108.830386 9.53815 C 108.302561 9.441203 107.483895 9.441203 106.266668 9.441203 L 105.404914 9.441203 L 104.349266 16.755339 L 103.433652 23.304668 C 103.390564 23.832492 103.358249 24.134106 103.272073 24.306457 C 103.228986 24.48958 103.185898 24.575755 103.099722 24.651158 C 103.002775 24.737334 102.9166 24.780422 102.744249 24.823509 C 102.571898 24.823509 102.270284 24.866597 101.753232 24.866597 L 98.004603 24.866597 L 96.7012 15.538111 C 96.528849 14.008498 96.36727 13.006709 96.227235 12.489657 C 96.054885 11.412465 95.699411 10.669202 95.268534 10.270641 C 94.923833 9.882852 94.277517 9.624325 93.318816 9.53815 C 92.758676 9.441203 91.530677 9.441203 89.667134 9.441203 Z M 120.819536 9.441203 C 118.815959 9.441203 117.512556 9.48429 116.909328 9.581238 C 116.122978 9.667413 115.51975 9.925939 115.078101 10.313729 C 114.690312 10.669202 114.377926 11.412465 114.162488 12.446569 C 114.087084 12.963622 113.903962 13.965411 113.645435 15.538111 L 112.342033 24.823509 C 112.115822 26.568561 111.997331 27.699613 111.954243 28.30284 L 111.954243 28.615226 C 111.954243 29.218454 112.040419 29.649331 112.21277 29.961717 C 112.471296 30.349506 112.902173 30.608032 113.5054 30.791155 C 114.130172 30.87733 115.250452 30.952734 116.984732 30.952734 L 133.411915 30.952734 L 133.411915 30.252559 C 133.411915 28.949156 133.411915 28.098174 133.325739 27.559578 C 133.282652 26.611649 133.110301 26.008421 132.765599 25.652947 C 132.496301 25.308246 132.022336 25.092807 131.332933 25.006632 C 130.858969 24.920457 129.760233 24.866597 128.079813 24.866597 L 118.503573 24.866597 C 118.60052 24.392632 118.643608 24.091018 118.643608 23.950983 C 118.686695 23.703229 118.729783 23.520107 118.815959 23.433931 C 118.902134 23.347756 119.031397 23.304668 119.16066 23.304668 C 119.289923 23.26158 119.516134 23.26158 119.806975 23.26158 L 128.930795 23.26158 C 130.460408 23.26158 131.505284 23.229265 132.065424 23.143089 C 132.93795 23.046142 133.55195 22.787616 133.939739 22.442914 C 134.28444 22.044353 134.586054 21.441125 134.758405 20.611687 C 134.941528 20.051547 135.103107 18.920495 135.329317 17.175444 L 135.587843 15.538111 C 135.760194 14.148533 135.889457 13.23292 135.932545 12.758955 C 135.975632 12.360394 135.975632 12.05878 135.975632 11.800254 C 135.975632 10.927728 135.803282 10.313729 135.372405 10.022887 C 135.027703 9.753589 134.359844 9.581238 133.411915 9.48429 C 132.894862 9.441203 131.849986 9.441203 130.277285 9.441203 Z M 120.905712 15.581199 L 129.372443 15.581199 C 129.329356 16.055164 129.286268 16.399865 129.24318 16.572216 C 129.24318 16.755339 129.200093 16.841514 129.113917 16.927689 C 129.027742 17.003093 128.844619 17.089268 128.596865 17.132356 L 119.602309 17.132356 C 119.688484 16.615304 119.7208 16.31369 119.7208 16.184427 C 119.806975 16.012076 119.850063 15.882813 119.903923 15.785866 C 119.990098 15.69969 120.076274 15.613515 120.162449 15.613515 C 120.248624 15.581199 120.507151 15.581199 120.905712 15.581199 Z M 138.970227 15.613515 L 138.744017 17.175444 L 137.882263 23.304668 L 137.666824 24.920457 L 136.794299 30.995821 C 138.668613 30.995821 139.88584 30.952734 140.44598 30.920418 C 141.232331 30.791155 141.835559 30.564944 142.18026 30.295646 C 142.621909 29.961717 142.966611 29.444664 143.138961 28.701402 C 143.311312 28.098174 143.569838 26.827087 143.839136 24.920457 L 144.054575 23.304668 L 144.927101 17.175444 C 145.002504 16.701479 145.045592 16.399865 145.045592 16.270602 C 145.131767 16.012076 145.271802 15.828953 145.357978 15.742778 C 145.487241 15.656603 145.616504 15.613515 145.788854 15.613515 C 145.87503 15.581199 146.004293 15.581199 146.144328 15.581199 C 146.316679 15.581199 146.521345 15.581199 146.747556 15.613515 L 154.708007 15.613515 L 154.481797 17.175444 L 153.609271 23.304668 L 153.393832 24.920457 L 152.532078 30.995821 C 154.654147 30.995821 156.043725 30.920418 156.657725 30.834242 C 157.390216 30.65112 157.91804 30.392594 158.25197 30.004804 C 158.607443 29.649331 158.833654 29.089191 158.995232 28.389016 C 159.167583 27.828876 159.350706 26.654736 159.566144 24.920457 L 159.781583 23.304668 L 160.654109 17.175444 L 160.869547 15.613515 C 161.128073 13.706884 161.257336 12.446569 161.257336 11.886429 L 161.257336 11.574044 C 161.214249 10.830781 160.988038 10.313729 160.654109 10.055202 C 160.38481 9.796676 159.953934 9.667413 159.393794 9.581238 C 158.876741 9.48429 158.047303 9.48429 156.862392 9.48429 L 144.657803 9.48429 C 143.537522 9.48429 142.708084 9.48429 142.18026 9.581238 C 141.480085 9.667413 140.963033 9.839764 140.618331 10.09829 C 140.176682 10.399904 139.842753 10.970816 139.573455 11.800254 C 139.444192 12.360394 139.228753 13.620709 138.970227 15.613515 Z M 171.630698 0.586682 L 170.413471 9.48429 L 169.497858 9.48429 C 168.194455 9.48429 167.289613 9.48429 166.718701 9.581238 C 165.856948 9.667413 165.25372 9.925939 164.812071 10.270641 C 164.424282 10.669202 164.111896 11.412465 163.864142 12.489657 C 163.777966 13.006709 163.594844 14.062358 163.379405 15.613515 L 169.540945 15.613515 L 169.336279 17.175444 L 168.463753 23.304668 L 168.248314 24.920457 C 167.989788 26.525473 167.817438 27.613437 167.72049 28.173577 L 167.72049 28.830665 C 167.72049 29.347717 167.817438 29.778594 167.989788 30.09098 C 168.291402 30.521857 168.980805 30.834242 170.122629 30.952734 C 170.725857 30.952734 171.759961 30.995821 173.289575 30.995821 L 177.232098 30.995821 C 178.934062 30.995821 180.065114 30.952734 180.625254 30.920418 C 181.49778 30.791155 182.144096 30.564944 182.542657 30.220243 C 182.887358 29.875541 183.199744 29.261542 183.415182 28.475191 C 183.576761 27.871964 183.759884 26.697824 183.975322 24.920457 L 174.409855 24.920457 L 174.636065 23.304668 L 175.508591 17.175444 L 175.724029 15.613515 L 179.117185 15.613515 C 180.93764 15.613515 182.101008 15.581199 182.67192 15.538111 C 183.533674 15.408848 184.190761 15.182638 184.589322 14.91334 C 184.977111 14.57941 185.278725 14.062358 185.504936 13.362183 C 185.666514 12.758955 185.892725 11.487868 186.151251 9.48429 L 176.585783 9.48429 L 176.984344 6.705134 C 177.232098 5.186293 177.372134 4.238364 177.372134 3.839803 C 177.458309 3.452013 177.458309 3.139628 177.458309 2.891873 C 177.458309 2.407137 177.415221 2.019348 177.285958 1.75005 C 177.027432 1.146822 176.327257 0.80212 175.11003 0.715945 C 174.452942 0.62977 173.289575 0.586682 171.630698 0.586682 Z M 171.630698 0.586682 " stroke="#000000" stroke-width="11.406019" stroke-opacity="1" stroke-miterlimit="4"/></g><g fill="#ff914d" fill-opacity="1"><g transform="translate(34.342031, 37.407765)"><g><path d="M 3.375 -7.796875 C 2.640625 -7.796875 2.171875 -7.796875 1.953125 -7.765625 C 1.671875 -7.734375 1.453125 -7.640625 1.296875 -7.5 C 1.15625 -7.359375 1.046875 -7.109375 0.953125 -6.71875 L 0.765625 -5.59375 L 0.296875 -2.21875 C 0.21875 -1.59375 0.171875 -1.1875 0.15625 -0.96875 L 0.15625 -0.84375 C 0.15625 -0.640625 0.1875 -0.484375 0.25 -0.359375 C 0.34375 -0.21875 0.5 -0.125 0.71875 -0.0625 C 0.9375 -0.03125 1.359375 0 1.984375 0 L 7.9375 0 L 7.9375 -0.265625 C 7.9375 -0.71875 7.9375 -1.0625 7.90625 -1.25 C 7.890625 -1.578125 7.828125 -1.8125 7.703125 -1.9375 C 7.609375 -2.0625 7.4375 -2.140625 7.1875 -2.171875 C 7.015625 -2.203125 6.609375 -2.21875 6 -2.21875 L 2.53125 -2.21875 C 2.5625 -2.375 2.578125 -2.484375 2.578125 -2.53125 C 2.59375 -2.625 2.609375 -2.6875 2.640625 -2.71875 C 2.671875 -2.75 2.71875 -2.78125 2.765625 -2.78125 L 6.3125 -2.78125 C 6.859375 -2.78125 7.25 -2.796875 7.453125 -2.828125 C 7.765625 -2.875 7.984375 -2.984375 8.125 -3.109375 C 8.25 -3.234375 8.359375 -3.453125 8.421875 -3.75 C 8.484375 -3.96875 8.546875 -4.375 8.625 -5.015625 L 8.71875 -5.59375 C 8.78125 -6.09375 8.828125 -6.421875 8.84375 -6.609375 C 8.875 -6.734375 8.875 -6.84375 8.875 -6.953125 C 8.875 -7.265625 8.796875 -7.484375 8.640625 -7.59375 C 8.515625 -7.703125 8.28125 -7.765625 7.9375 -7.78125 C 7.75 -7.796875 7.375 -7.796875 6.796875 -7.796875 Z M 3.40625 -5.59375 L 6.46875 -5.59375 C 6.453125 -5.40625 6.4375 -5.296875 6.421875 -5.234375 C 6.421875 -5.171875 6.40625 -5.125 6.375 -5.09375 C 6.34375 -5.0625 6.28125 -5.03125 6.1875 -5.015625 L 2.921875 -5.015625 C 2.96875 -5.203125 2.984375 -5.3125 2.984375 -5.359375 C 3.015625 -5.4375 3.03125 -5.46875 3.046875 -5.5 C 3.078125 -5.53125 3.109375 -5.5625 3.140625 -5.578125 C 3.171875 -5.59375 3.265625 -5.59375 3.40625 -5.59375 Z M 3.40625 -5.59375 "/></g></g></g><g fill="#ff914d" fill-opacity="1"><g transform="translate(43.115807, 37.407765)"><g><path d="M 0.625 -7.8125 L 1.03125 -4.96875 L 1.421875 -2.21875 C 1.515625 -1.59375 1.59375 -1.171875 1.625 -0.9375 C 1.703125 -0.6875 1.78125 -0.5 1.875 -0.375 C 2 -0.234375 2.171875 -0.140625 2.40625 -0.078125 C 2.625 -0.03125 3.15625 0 3.96875 0 L 5.453125 0 C 6.09375 0 6.515625 -0.03125 6.734375 -0.0625 C 7 -0.109375 7.171875 -0.203125 7.296875 -0.328125 C 7.421875 -0.453125 7.5 -0.65625 7.5625 -0.921875 C 7.625 -1.15625 7.6875 -1.578125 7.78125 -2.21875 L 8.25 -5.578125 C 8.34375 -6.234375 8.390625 -6.65625 8.390625 -6.84375 L 8.390625 -6.96875 C 8.390625 -7.25 8.34375 -7.453125 8.234375 -7.5625 C 8.125 -7.6875 7.90625 -7.75 7.578125 -7.78125 C 7.390625 -7.8125 7.09375 -7.8125 6.640625 -7.8125 L 6.328125 -7.8125 L 5.953125 -5.171875 L 5.625 -2.78125 C 5.609375 -2.59375 5.59375 -2.484375 5.5625 -2.421875 C 5.546875 -2.359375 5.53125 -2.328125 5.5 -2.296875 C 5.46875 -2.265625 5.4375 -2.25 5.375 -2.234375 C 5.3125 -2.234375 5.203125 -2.21875 5.015625 -2.21875 L 3.65625 -2.21875 L 3.1875 -5.609375 C 3.125 -6.15625 3.0625 -6.515625 3.015625 -6.703125 C 2.9375 -7.109375 2.8125 -7.375 2.65625 -7.515625 C 2.53125 -7.65625 2.296875 -7.75 1.953125 -7.78125 C 1.75 -7.8125 1.3125 -7.8125 0.625 -7.8125 Z M 0.625 -7.8125 "/></g></g></g><g fill="#ff914d" fill-opacity="1"><g transform="translate(51.669057, 37.407765)"><g><path d="M 3.375 -7.8125 C 2.640625 -7.8125 2.171875 -7.796875 1.953125 -7.765625 C 1.671875 -7.734375 1.453125 -7.640625 1.296875 -7.5 C 1.15625 -7.375 1.046875 -7.109375 0.953125 -6.71875 C 0.921875 -6.53125 0.859375 -6.171875 0.765625 -5.609375 L 0.296875 -2.234375 C 0.21875 -1.609375 0.171875 -1.203125 0.15625 -0.96875 L 0.15625 -0.859375 C 0.15625 -0.640625 0.1875 -0.484375 0.25 -0.375 C 0.34375 -0.234375 0.5 -0.140625 0.71875 -0.078125 C 0.9375 -0.046875 1.359375 -0.015625 1.984375 -0.015625 L 7.9375 -0.015625 L 7.9375 -0.265625 C 7.9375 -0.734375 7.9375 -1.0625 7.90625 -1.25 C 7.890625 -1.59375 7.828125 -1.8125 7.703125 -1.9375 C 7.609375 -2.0625 7.4375 -2.140625 7.1875 -2.171875 C 7.015625 -2.203125 6.609375 -2.21875 6 -2.21875 L 2.53125 -2.21875 C 2.5625 -2.390625 2.578125 -2.5 2.578125 -2.546875 C 2.59375 -2.640625 2.609375 -2.703125 2.640625 -2.734375 C 2.671875 -2.765625 2.71875 -2.78125 2.765625 -2.78125 C 2.8125 -2.796875 2.890625 -2.796875 3.015625 -2.796875 L 6.3125 -2.796875 C 6.859375 -2.796875 7.25 -2.8125 7.453125 -2.84375 C 7.765625 -2.875 7.984375 -2.984375 8.125 -3.109375 C 8.25 -3.25 8.359375 -3.46875 8.421875 -3.765625 C 8.484375 -3.96875 8.546875 -4.375 8.625 -5.015625 L 8.71875 -5.609375 C 8.78125 -6.109375 8.828125 -6.4375 8.84375 -6.609375 C 8.875 -6.75 8.875 -6.859375 8.875 -6.96875 C 8.875 -7.28125 8.796875 -7.5 8.640625 -7.609375 C 8.515625 -7.703125 8.28125 -7.765625 7.9375 -7.796875 C 7.75 -7.8125 7.375 -7.8125 6.796875 -7.8125 Z M 3.40625 -5.59375 L 6.46875 -5.59375 C 6.453125 -5.421875 6.4375 -5.296875 6.421875 -5.234375 C 6.421875 -5.171875 6.40625 -5.140625 6.375 -5.109375 C 6.34375 -5.078125 6.28125 -5.046875 6.1875 -5.03125 L 2.921875 -5.03125 C 2.96875 -5.21875 2.984375 -5.328125 2.984375 -5.375 C 3.015625 -5.4375 3.03125 -5.484375 3.046875 -5.515625 C 3.078125 -5.546875 3.109375 -5.578125 3.140625 -5.578125 C 3.171875 -5.59375 3.265625 -5.59375 3.40625 -5.59375 Z M 3.40625 -5.59375 "/></g></g></g><g fill="#ff914d" fill-opacity="1"><g transform="translate(60.679111, 37.407765)"><g><path d="M 0.9375 -5.578125 L 0.859375 -5.015625 L 0.546875 -2.78125 L 0.46875 -2.203125 L 0.15625 0 C 0.828125 0 1.28125 -0.015625 1.484375 -0.03125 C 1.765625 -0.078125 1.984375 -0.15625 2.109375 -0.25 C 2.265625 -0.375 2.390625 -0.5625 2.453125 -0.828125 C 2.515625 -1.0625 2.609375 -1.515625 2.703125 -2.203125 L 2.78125 -2.78125 L 3.109375 -5.015625 C 3.140625 -5.1875 3.15625 -5.296875 3.15625 -5.34375 C 3.1875 -5.4375 3.234375 -5.5 3.265625 -5.53125 C 3.3125 -5.5625 3.359375 -5.578125 3.421875 -5.578125 C 3.453125 -5.59375 3.5 -5.59375 3.546875 -5.59375 C 3.609375 -5.59375 3.6875 -5.59375 3.765625 -5.578125 L 6.640625 -5.578125 L 6.5625 -5.015625 L 6.25 -2.78125 L 6.171875 -2.203125 L 5.859375 0 C 6.625 0 7.140625 -0.03125 7.359375 -0.0625 C 7.625 -0.125 7.8125 -0.21875 7.9375 -0.359375 C 8.0625 -0.484375 8.140625 -0.6875 8.203125 -0.9375 C 8.265625 -1.15625 8.328125 -1.578125 8.40625 -2.203125 L 8.484375 -2.78125 L 8.796875 -5.015625 L 8.890625 -5.578125 C 8.984375 -6.265625 9.03125 -6.71875 9.03125 -6.9375 L 9.03125 -7.046875 C 9.015625 -7.3125 8.9375 -7.5 8.796875 -7.59375 C 8.703125 -7.6875 8.546875 -7.734375 8.34375 -7.765625 C 8.15625 -7.796875 7.859375 -7.796875 7.4375 -7.796875 L 3.015625 -7.796875 C 2.59375 -7.796875 2.296875 -7.796875 2.109375 -7.765625 C 1.859375 -7.734375 1.671875 -7.671875 1.546875 -7.578125 C 1.390625 -7.46875 1.265625 -7.265625 1.171875 -6.96875 C 1.125 -6.75 1.046875 -6.296875 0.9375 -5.578125 Z M 0.9375 -5.578125 "/></g></g></g><g fill="#ff914d" fill-opacity="1"><g transform="translate(69.846683, 37.407765)"><g><path d="M 3.625 -11.03125 L 3.1875 -7.796875 L 2.84375 -7.796875 C 2.375 -7.796875 2.046875 -7.796875 1.84375 -7.765625 C 1.53125 -7.734375 1.3125 -7.640625 1.15625 -7.515625 C 1.015625 -7.375 0.890625 -7.109375 0.796875 -6.703125 C 0.765625 -6.515625 0.703125 -6.140625 0.625 -5.578125 L 2.859375 -5.578125 L 2.78125 -5.015625 L 2.46875 -2.78125 L 2.390625 -2.203125 C 2.296875 -1.625 2.234375 -1.234375 2.203125 -1.03125 L 2.203125 -0.78125 C 2.203125 -0.59375 2.234375 -0.4375 2.296875 -0.328125 C 2.40625 -0.171875 2.65625 -0.0625 3.078125 -0.015625 C 3.296875 -0.015625 3.671875 0 4.21875 0 L 5.65625 0 C 6.265625 0 6.671875 -0.015625 6.875 -0.03125 C 7.203125 -0.078125 7.4375 -0.15625 7.578125 -0.28125 C 7.703125 -0.40625 7.8125 -0.625 7.890625 -0.90625 C 7.953125 -1.140625 8.015625 -1.5625 8.09375 -2.203125 L 4.625 -2.203125 L 4.703125 -2.78125 L 5.03125 -5.015625 L 5.109375 -5.578125 L 6.328125 -5.578125 C 7 -5.578125 7.421875 -5.59375 7.625 -5.609375 C 7.9375 -5.65625 8.171875 -5.734375 8.3125 -5.828125 C 8.453125 -5.953125 8.5625 -6.140625 8.640625 -6.390625 C 8.703125 -6.609375 8.78125 -7.078125 8.890625 -7.796875 L 5.421875 -7.796875 L 5.5625 -8.796875 C 5.65625 -9.359375 5.703125 -9.703125 5.703125 -9.84375 C 5.734375 -9.984375 5.734375 -10.09375 5.734375 -10.1875 C 5.734375 -10.359375 5.71875 -10.5 5.671875 -10.59375 C 5.578125 -10.8125 5.328125 -10.953125 4.875 -10.984375 C 4.640625 -11.015625 4.21875 -11.03125 3.625 -11.03125 Z M 3.625 -11.03125 "/></g></g></g><g clip-path="url(#877c3f972d)"><path stroke-linecap="butt" transform="matrix(0.24742, 0, 0, 0.24742, 59.113683, 37.017142)" fill="none" stroke-linejoin="miter" d="M 46.714773 14.850284 C 46.635834 15.623892 46.493743 16.997439 46.162197 19.128805 C 45.862227 21.212808 45.60962 22.838962 45.435953 23.975691 C 45.214923 25.570269 45.08862 26.628058 45.057044 27.180635 L 45.057044 27.701635 C 45.057044 28.285788 45.183347 28.759425 45.357014 29.106759 C 45.60962 29.454092 46.035894 29.690911 46.714773 29.833002 C 47.314713 29.911941 48.514594 30.006669 50.34599 30.006669 L 60.355519 30.006669 C 62.281643 30.006669 63.528887 29.911941 64.128828 29.833002 C 64.93401 29.659335 65.486587 29.359365 65.833921 28.838364 C 66.086527 28.475243 66.29177 27.859514 66.465437 27.101695 C 66.59174 26.549119 66.765407 25.522905 66.97065 23.975691 L 68.24947 14.850284 C 68.517864 13.224131 68.644167 12.134766 68.644167 11.613765 L 68.644167 11.187491 C 68.644167 10.540188 68.565228 10.082338 68.344197 9.76658 C 68.138954 9.435035 67.744257 9.182428 67.239044 9.103489 C 66.639104 8.929822 65.31292 8.882458 63.228917 8.882458 L 53.408843 8.882458 C 51.70375 8.882458 50.551233 8.882458 49.951293 8.977185 C 49.098746 9.056125 48.514594 9.308731 48.119896 9.735005 C 47.693623 10.161278 47.346289 11.013825 47.109471 12.340008 C 47.014743 12.766282 46.88844 13.618828 46.714773 14.850284 Z M 54.86133 14.850284 L 62.202704 14.850284 L 61.129126 22.444265 C 61.050187 22.965265 61.002823 23.265235 60.923884 23.423114 C 60.923884 23.612569 60.829156 23.723084 60.750217 23.817812 C 60.671277 23.896751 60.544974 23.944115 60.355519 23.975691 L 51.482719 23.975691 L 52.556296 16.429074 C 52.60366 16.176468 52.651024 15.955437 52.651024 15.876498 C 52.729963 15.497588 52.808903 15.244982 52.90363 15.166042 C 53.029933 15.023951 53.235176 14.945012 53.50357 14.897648 C 53.708813 14.850284 54.18245 14.850284 54.86133 14.850284 Z M 74.390963 35.074585 L 75.259297 30.006669 L 85.189887 30.006669 C 86.768677 30.006669 87.826466 29.959305 88.442194 29.880366 C 89.200014 29.738275 89.768378 29.533032 90.099924 29.185698 C 90.526197 28.806788 90.826167 28.159485 90.984046 27.275362 C 91.126137 26.675422 91.284016 25.601845 91.505047 23.975691 C 92.23129 18.907775 92.657564 15.876498 92.783867 14.850284 C 93.036473 13.413585 93.162777 12.466311 93.162777 11.945311 C 93.21014 11.613765 93.21014 11.361158 93.21014 11.155916 C 93.21014 10.634915 93.162777 10.208642 93.004898 9.908672 C 92.736503 9.308731 91.93132 9.008761 90.620925 8.929822 C 90.099924 8.835094 89.121074 8.835094 87.668587 8.835094 L 78.069544 8.835094 C 76.411814 8.835094 75.259297 8.882458 74.659357 8.977185 C 73.633144 9.056125 72.9069 9.356095 72.480627 9.861308 C 72.180657 10.256005 71.92805 10.887521 71.70702 11.819007 C 71.62808 12.340008 71.501777 13.318858 71.280746 14.850284 L 71.075504 16.429074 L 69.196744 30.006669 L 68.423136 36.021859 C 68.391561 36.353405 68.344197 36.574436 68.296833 36.700739 C 68.24947 36.858618 68.17053 37.079648 67.996863 37.253315 C 67.917924 37.426982 67.744257 37.584861 67.49165 37.853255 C 67.317983 38.026922 66.97065 38.279529 66.465437 38.705802 L 68.517864 38.705802 C 69.102016 38.705802 69.623017 38.658438 70.04929 38.611075 C 70.72817 38.532135 71.280746 38.484771 71.754383 38.326892 C 72.259596 38.137438 72.654294 37.932195 72.954264 37.711164 C 73.412113 37.379618 73.759447 36.921769 74.012053 36.400769 C 74.18572 36.021859 74.312023 35.595586 74.390963 35.074585 Z M 76.06448 23.975691 L 77.12227 16.429074 C 77.216997 16.018589 77.311724 15.702831 77.3433 15.592316 C 77.42224 15.323921 77.469603 15.197618 77.548543 15.102891 C 77.674846 14.976588 77.895877 14.897648 78.164271 14.897648 C 78.32215 14.850284 78.62212 14.850284 79.095757 14.850284 L 86.737101 14.850284 L 85.663524 22.444265 C 85.61616 22.838962 85.568796 23.091568 85.537221 23.265235 C 85.489857 23.470478 85.410917 23.644145 85.284614 23.770448 C 85.189887 23.817812 85.110947 23.849388 84.984644 23.944115 C 84.889917 23.944115 84.763614 23.944115 84.589947 23.975691 Z M 104.261671 0.135961 C 102.303971 0.135961 100.977787 0.183325 100.330483 0.262264 C 99.556876 0.388568 99.0043 0.688538 98.62539 1.114811 C 98.32542 1.462145 98.072814 2.093661 97.899147 2.946207 C 97.772844 3.467208 97.599177 4.540785 97.34657 6.151151 L 97.220267 7.303668 L 103.282821 7.303668 Z M 97.015024 8.835094 L 94.441597 26.880665 C 94.410021 27.306938 94.362657 27.575332 94.283718 27.733211 C 94.236354 27.954242 94.141626 28.159485 93.983747 28.380515 C 93.857444 28.554182 93.636414 28.759425 93.28908 29.106759 C 93.131201 29.264638 92.831231 29.580396 92.31023 30.006669 L 94.331081 30.006669 C 95.84672 30.006669 96.920297 29.959305 97.472873 29.911941 C 98.420147 29.833002 99.099027 29.580396 99.5253 29.185698 C 99.90421 28.806788 100.20418 28.159485 100.377847 27.275362 C 100.551514 26.722786 100.725181 25.649208 100.930424 24.038842 L 103.06179 8.835094 Z M 122.859817 8.835094 L 106.345674 8.835094 L 106.345674 9.561338 C 106.345674 10.682279 106.393037 11.519037 106.393037 12.040038 C 106.471977 12.987312 106.645644 13.618828 106.89825 13.997738 C 107.214008 14.392435 107.719221 14.645042 108.47704 14.771345 C 108.998041 14.818709 110.05583 14.850284 111.587256 14.850284 L 120.981057 14.850284 C 120.933694 15.323921 120.88633 15.623892 120.854754 15.797558 C 120.854754 15.955437 120.80739 16.097529 120.728451 16.176468 C 120.649511 16.255408 120.50742 16.350135 120.333753 16.381711 C 120.254814 16.381711 120.002207 16.429074 119.670662 16.429074 L 110.750498 16.429074 C 109.171708 16.429074 108.050767 16.476438 107.450827 16.571166 C 106.724583 16.650105 106.172007 16.902711 105.793097 17.281621 C 105.461551 17.628955 105.161581 18.307835 104.94055 19.334048 C 104.845823 19.839261 104.687944 20.865474 104.466913 22.412689 L 104.214307 23.975691 C 103.993276 25.680784 103.866973 26.849089 103.835397 27.433241 L 103.835397 27.701635 C 103.835397 28.380515 103.914337 28.838364 104.182731 29.185698 C 104.41955 29.485668 104.845823 29.690911 105.461551 29.833002 C 106.045703 29.911941 107.371887 30.006669 109.424314 30.006669 L 118.676024 30.006669 C 120.80739 30.006669 122.180938 29.911941 122.780878 29.833002 C 123.36503 29.690911 123.838667 29.533032 124.186001 29.264638 C 124.564911 28.980455 124.864881 28.506818 125.038548 27.906878 C 125.24379 27.306938 125.512185 26.028118 125.749003 23.975691 L 126.364731 19.634018 L 127.043611 14.850284 C 127.248854 13.318858 127.375157 12.292645 127.375157 11.787432 C 127.422521 11.519037 127.422521 11.361158 127.422521 11.187491 C 127.422521 10.287581 127.217278 9.687641 126.791005 9.403459 C 126.52261 9.182428 126.096337 9.056125 125.512185 8.977185 C 124.991184 8.882458 124.107062 8.835094 122.859817 8.835094 Z M 111.508317 22.412689 L 119.90748 22.412689 C 119.875904 22.870538 119.828541 23.170508 119.781177 23.344175 C 119.749601 23.517842 119.702237 23.691509 119.60751 23.770448 C 119.575934 23.849388 119.481207 23.896751 119.323328 23.944115 C 119.2286 23.944115 118.975994 23.975691 118.62866 23.975691 L 110.261073 23.975691 C 110.3558 23.644145 110.403164 23.391539 110.403164 23.265235 C 110.450528 22.917902 110.482103 22.712659 110.576831 22.617931 C 110.65577 22.538992 110.750498 22.444265 110.876801 22.444265 C 110.95574 22.412689 111.160983 22.412689 111.508317 22.412689 Z M 111.508317 22.412689 " stroke="#000000" stroke-width="11.200008" stroke-opacity="1" stroke-miterlimit="4"/></g><g fill="#ff914d" fill-opacity="1"><g transform="translate(70.154822, 44.439756)"><g><path d="M 0.515625 -3.75 C 0.5 -3.5625 0.46875 -3.21875 0.375 -2.6875 C 0.3125 -2.171875 0.25 -1.78125 0.203125 -1.484375 C 0.140625 -1.09375 0.109375 -0.828125 0.109375 -0.703125 L 0.109375 -0.578125 C 0.109375 -0.421875 0.140625 -0.3125 0.171875 -0.21875 C 0.25 -0.140625 0.34375 -0.078125 0.515625 -0.046875 C 0.671875 -0.015625 0.96875 0 1.421875 0 L 3.890625 0 C 4.375 0 4.671875 -0.015625 4.828125 -0.046875 C 5.03125 -0.078125 5.171875 -0.15625 5.25 -0.28125 C 5.3125 -0.375 5.359375 -0.53125 5.40625 -0.71875 C 5.4375 -0.859375 5.484375 -1.109375 5.53125 -1.484375 L 5.859375 -3.75 C 5.921875 -4.15625 5.953125 -4.421875 5.953125 -4.546875 L 5.953125 -4.65625 C 5.953125 -4.8125 5.921875 -4.9375 5.875 -5 C 5.8125 -5.09375 5.71875 -5.15625 5.59375 -5.171875 C 5.453125 -5.21875 5.125 -5.234375 4.609375 -5.234375 L 2.171875 -5.234375 C 1.75 -5.234375 1.46875 -5.234375 1.3125 -5.203125 C 1.109375 -5.1875 0.96875 -5.125 0.859375 -5.015625 C 0.765625 -4.90625 0.671875 -4.703125 0.609375 -4.375 C 0.59375 -4.265625 0.5625 -4.0625 0.515625 -3.75 Z M 2.53125 -3.75 L 4.359375 -3.75 L 4.09375 -1.875 C 4.0625 -1.75 4.0625 -1.671875 4.03125 -1.625 C 4.03125 -1.578125 4.015625 -1.546875 4 -1.53125 C 3.96875 -1.515625 3.9375 -1.5 3.890625 -1.484375 L 1.703125 -1.484375 L 1.96875 -3.359375 C 1.96875 -3.421875 1.984375 -3.46875 1.984375 -3.5 C 2 -3.59375 2.03125 -3.65625 2.046875 -3.671875 C 2.078125 -3.703125 2.140625 -3.734375 2.203125 -3.734375 C 2.25 -3.75 2.359375 -3.75 2.53125 -3.75 Z M 2.53125 -3.75 "/></g></g></g><g fill="#ff914d" fill-opacity="1"><g transform="translate(76.191718, 44.439756)"><g><path d="M 1.328125 1.25 L 1.546875 0 L 4 0 C 4.390625 0 4.65625 -0.015625 4.8125 -0.03125 C 5 -0.0625 5.140625 -0.109375 5.21875 -0.203125 C 5.328125 -0.296875 5.390625 -0.453125 5.4375 -0.671875 C 5.46875 -0.828125 5.515625 -1.09375 5.5625 -1.484375 C 5.75 -2.75 5.859375 -3.5 5.890625 -3.75 C 5.953125 -4.109375 5.984375 -4.34375 5.984375 -4.46875 C 5.984375 -4.546875 5.984375 -4.609375 5.984375 -4.671875 C 5.984375 -4.796875 5.984375 -4.90625 5.9375 -4.96875 C 5.875 -5.125 5.671875 -5.203125 5.34375 -5.21875 C 5.21875 -5.234375 4.96875 -5.234375 4.609375 -5.234375 L 2.234375 -5.234375 C 1.828125 -5.234375 1.546875 -5.234375 1.390625 -5.203125 C 1.140625 -5.1875 0.96875 -5.109375 0.859375 -4.984375 C 0.78125 -4.890625 0.71875 -4.734375 0.671875 -4.5 C 0.640625 -4.375 0.609375 -4.125 0.5625 -3.75 L 0.5 -3.359375 L 0.046875 0 L -0.140625 1.484375 C -0.15625 1.578125 -0.171875 1.625 -0.171875 1.65625 C -0.1875 1.703125 -0.21875 1.75 -0.25 1.796875 C -0.28125 1.84375 -0.3125 1.875 -0.375 1.9375 C -0.421875 1.984375 -0.5 2.046875 -0.640625 2.15625 L -0.125 2.15625 C 0.015625 2.15625 0.140625 2.140625 0.25 2.140625 C 0.421875 2.109375 0.5625 2.109375 0.671875 2.0625 C 0.796875 2.015625 0.890625 1.96875 0.96875 1.90625 C 1.09375 1.828125 1.171875 1.71875 1.234375 1.578125 C 1.28125 1.484375 1.3125 1.390625 1.328125 1.25 Z M 1.75 -1.484375 L 2 -3.359375 C 2.03125 -3.46875 2.046875 -3.53125 2.0625 -3.5625 C 2.078125 -3.640625 2.09375 -3.671875 2.109375 -3.6875 C 2.140625 -3.71875 2.203125 -3.734375 2.265625 -3.734375 C 2.296875 -3.75 2.375 -3.75 2.5 -3.75 L 4.390625 -3.75 L 4.125 -1.875 C 4.109375 -1.78125 4.09375 -1.71875 4.09375 -1.671875 C 4.078125 -1.609375 4.0625 -1.578125 4.03125 -1.546875 C 4 -1.53125 3.984375 -1.515625 3.953125 -1.5 C 3.921875 -1.5 3.890625 -1.5 3.859375 -1.484375 Z M 1.75 -1.484375 "/></g></g></g><g fill="#ff914d" fill-opacity="1"><g transform="translate(82.27083, 44.439756)"><g><path d="M 2.640625 -7.390625 C 2.15625 -7.390625 1.828125 -7.390625 1.671875 -7.359375 C 1.484375 -7.328125 1.34375 -7.25 1.25 -7.15625 C 1.171875 -7.0625 1.109375 -6.90625 1.0625 -6.703125 C 1.03125 -6.5625 1 -6.3125 0.921875 -5.90625 L 0.890625 -5.625 L 2.390625 -5.625 Z M 0.84375 -5.234375 L 0.21875 -0.765625 C 0.203125 -0.671875 0.1875 -0.609375 0.171875 -0.5625 C 0.15625 -0.5 0.140625 -0.453125 0.09375 -0.40625 C 0.0625 -0.359375 0.015625 -0.3125 -0.078125 -0.21875 C -0.109375 -0.171875 -0.1875 -0.109375 -0.3125 0 L 0.171875 0 C 0.5625 0 0.828125 -0.015625 0.96875 -0.015625 C 1.1875 -0.046875 1.359375 -0.109375 1.46875 -0.203125 C 1.5625 -0.296875 1.640625 -0.453125 1.671875 -0.671875 C 1.71875 -0.8125 1.765625 -1.078125 1.8125 -1.484375 L 2.34375 -5.234375 Z M 0.84375 -5.234375 "/></g></g></g><g fill="#ff914d" fill-opacity="1"><g transform="translate(84.698255, 44.439756)"><g><path d="M 4.8125 -5.234375 L 0.734375 -5.234375 L 0.734375 -5.0625 C 0.734375 -4.78125 0.734375 -4.578125 0.734375 -4.453125 C 0.765625 -4.21875 0.796875 -4.0625 0.859375 -3.953125 C 0.9375 -3.859375 1.0625 -3.796875 1.25 -3.765625 C 1.390625 -3.765625 1.640625 -3.75 2.03125 -3.75 L 4.359375 -3.75 C 4.34375 -3.640625 4.328125 -3.5625 4.3125 -3.515625 C 4.3125 -3.46875 4.3125 -3.4375 4.28125 -3.421875 C 4.265625 -3.40625 4.234375 -3.375 4.1875 -3.375 C 4.171875 -3.375 4.109375 -3.359375 4.03125 -3.359375 L 1.8125 -3.359375 C 1.421875 -3.359375 1.15625 -3.34375 1 -3.328125 C 0.828125 -3.3125 0.6875 -3.25 0.59375 -3.140625 C 0.5 -3.0625 0.4375 -2.890625 0.375 -2.640625 C 0.359375 -2.515625 0.3125 -2.265625 0.265625 -1.875 L 0.203125 -1.484375 C 0.140625 -1.0625 0.109375 -0.78125 0.109375 -0.640625 L 0.109375 -0.578125 C 0.109375 -0.40625 0.125 -0.28125 0.1875 -0.203125 C 0.25 -0.125 0.359375 -0.078125 0.5 -0.046875 C 0.65625 -0.015625 0.984375 0 1.484375 0 L 3.78125 0 C 4.3125 0 4.640625 -0.015625 4.796875 -0.046875 C 4.9375 -0.078125 5.0625 -0.109375 5.140625 -0.171875 C 5.234375 -0.25 5.3125 -0.375 5.359375 -0.515625 C 5.40625 -0.671875 5.46875 -0.984375 5.53125 -1.484375 L 5.6875 -2.5625 L 5.859375 -3.75 C 5.90625 -4.125 5.9375 -4.390625 5.9375 -4.515625 C 5.953125 -4.578125 5.953125 -4.609375 5.953125 -4.65625 C 5.953125 -4.875 5.890625 -5.03125 5.78125 -5.109375 C 5.71875 -5.15625 5.625 -5.1875 5.46875 -5.203125 C 5.34375 -5.234375 5.125 -5.234375 4.8125 -5.234375 Z M 2 -1.875 L 4.09375 -1.875 C 4.078125 -1.765625 4.0625 -1.6875 4.0625 -1.640625 C 4.046875 -1.609375 4.03125 -1.5625 4.015625 -1.546875 C 4 -1.515625 3.984375 -1.515625 3.9375 -1.5 C 3.921875 -1.5 3.859375 -1.484375 3.765625 -1.484375 L 1.703125 -1.484375 C 1.71875 -1.578125 1.734375 -1.640625 1.734375 -1.671875 C 1.75 -1.75 1.75 -1.8125 1.78125 -1.828125 C 1.796875 -1.84375 1.8125 -1.875 1.84375 -1.875 C 1.875 -1.875 1.921875 -1.875 2 -1.875 Z M 2 -1.875 "/></g></g></g></svg>