<svg xmlns="http://www.w3.org/2000/svg" xmlns:xlink="http://www.w3.org/1999/xlink" width="153" zoomAndPan="magnify" viewBox="0 0 114.75 60" height="80" preserveAspectRatio="xMidYMid meet" version="1.0"><defs><g/><clipPath id="de772ec99a"><path d="M 77.617188 17.359375 L 99.316406 17.359375 L 99.316406 28.582031 L 77.617188 28.582031 Z M 77.617188 17.359375 " clip-rule="nonzero"/></clipPath><clipPath id="78b51927c6"><path d="M 17 13 L 79 13 L 79 48 L 17 48 Z M 17 13 " clip-rule="nonzero"/></clipPath><clipPath id="7053d3d248"><path d="M 26.105469 0.0664062 L 82.0625 16.679688 L 69.285156 59.726562 L 13.324219 43.113281 Z M 26.105469 0.0664062 " clip-rule="nonzero"/></clipPath><clipPath id="f7f2653ca4"><path d="M 26.105469 0.0664062 L 82.0625 16.679688 L 69.285156 59.726562 L 13.324219 43.113281 Z M 26.105469 0.0664062 " clip-rule="nonzero"/></clipPath><clipPath id="f5742bbc5b"><path d="M 18 10 L 34 10 L 34 26 L 18 26 Z M 18 10 " clip-rule="nonzero"/></clipPath><clipPath id="f33dff8385"><path d="M 17.945312 17.890625 L 26.140625 10.222656 L 33.300781 17.871094 L 25.105469 25.542969 Z M 17.945312 17.890625 " clip-rule="nonzero"/></clipPath><clipPath id="2c249a88e4"><path d="M 17.945312 17.890625 L 26.140625 10.222656 L 33.300781 17.871094 L 25.105469 25.542969 Z M 17.945312 17.890625 " clip-rule="nonzero"/></clipPath><clipPath id="4831f77d5d"><path d="M 17.945312 17.890625 L 26.140625 10.222656 L 33.300781 17.871094 L 25.105469 25.542969 Z M 17.945312 17.890625 " clip-rule="nonzero"/></clipPath><clipPath id="2c6f15cfa4"><path d="M 47 42 L 57 42 L 57 53 L 47 53 Z M 47 42 " clip-rule="nonzero"/></clipPath><clipPath id="33a9624acf"><path d="M 47.492188 47.226562 L 52.410156 42.625 L 57.011719 47.539062 L 52.09375 52.144531 Z M 47.492188 47.226562 " clip-rule="nonzero"/></clipPath><clipPath id="3c19859b23"><path d="M 47.492188 47.226562 L 52.410156 42.625 L 57.011719 47.539062 L 52.09375 52.144531 Z M 47.492188 47.226562 " clip-rule="nonzero"/></clipPath><clipPath id="b392864c76"><path d="M 47.492188 47.226562 L 52.410156 42.625 L 57.011719 47.539062 L 52.09375 52.144531 Z M 47.492188 47.226562 " clip-rule="nonzero"/></clipPath><clipPath id="5ce2c430e5"><path d="M 81.191406 48.3125 L 95.410156 48.3125 L 95.410156 55.796875 L 81.191406 55.796875 Z M 81.191406 48.3125 " clip-rule="nonzero"/></clipPath><clipPath id="6c9daab00f"><path d="M 8 0.0664062 L 62 0.0664062 L 62 51 L 8 51 Z M 8 0.0664062 " clip-rule="nonzero"/></clipPath><clipPath id="96261fc9ae"><path d="M 64 27 L 100 27 L 100 51 L 64 51 Z M 64 27 " clip-rule="nonzero"/></clipPath><clipPath id="26073ec62e"><path d="M 65.921875 23.460938 L 102.238281 28.546875 L 98.398438 55.96875 L 62.082031 50.882812 Z M 65.921875 23.460938 " clip-rule="nonzero"/></clipPath><clipPath id="32c7b38c5c"><path d="M 65.921875 23.460938 L 102.238281 28.546875 L 98.398438 55.96875 L 62.082031 50.882812 Z M 65.921875 23.460938 " clip-rule="nonzero"/></clipPath><clipPath id="301d45bc9a"><path d="M 11 2 L 103 2 L 103 59.933594 L 11 59.933594 Z M 11 2 " clip-rule="nonzero"/></clipPath><clipPath id="65cb91ea13"><path d="M 54 20 L 108 20 L 108 59.933594 L 54 59.933594 Z M 54 20 " clip-rule="nonzero"/></clipPath></defs><g clip-path="url(#de772ec99a)"><path fill="#ffffff" d="M 77.605469 23.019531 L 77.605469 22.933594 C 87.648438 22.933594 88.378906 22.09375 88.378906 17.371094 L 88.542969 17.371094 C 88.542969 22.09375 89.273438 22.933594 99.316406 22.933594 L 99.316406 23.019531 C 89.273438 23.019531 88.542969 23.859375 88.542969 28.582031 L 88.378906 28.582031 C 88.378906 23.859375 87.648438 23.019531 77.605469 23.019531 " fill-opacity="1" fill-rule="evenodd"/></g><g clip-path="url(#78b51927c6)"><g clip-path="url(#7053d3d248)"><g clip-path="url(#f7f2653ca4)"><path fill="#ffffff" d="M 63.355469 19.589844 C 62.597656 24.003906 55.523438 30.789062 45.65625 36.136719 C 40.769531 38.785156 35.960938 40.671875 31.851562 41.679688 C 32.609375 37.269531 39.679688 30.480469 49.550781 25.132812 C 54.429688 22.492188 59.226562 20.609375 63.328125 19.597656 Z M 72.429688 19.097656 L 72.492188 19.117188 C 73.582031 19.457031 74.378906 20.015625 74.808594 20.820312 C 76.976562 24.816406 69.175781 33.246094 57.402344 39.628906 C 48.070312 44.6875 39.019531 46.953125 34.59375 45.679688 L 34.527344 45.660156 C 33.40625 45.328125 32.585938 44.757812 32.148438 43.945312 C 32 43.675781 31.902344 43.390625 31.84375 43.089844 C 36.207031 41.875 41.160156 39.863281 46.199219 37.136719 C 56.90625 31.328125 64.726562 24.035156 66.171875 19.019531 C 68.714844 18.617188 70.867188 18.632812 72.429688 19.097656 Z M 63.359375 18.179688 C 58.996094 19.390625 54.039062 21.40625 49.007812 24.132812 C 38.296875 29.941406 30.480469 37.238281 29.035156 42.253906 C 24.664062 42.941406 21.449219 42.398438 20.390625 40.453125 C 18.222656 36.457031 26.023438 28.027344 37.796875 21.644531 C 49.570312 15.261719 60.890625 13.328125 63.058594 17.324219 C 63.203125 17.59375 63.304688 17.878906 63.363281 18.183594 Z M 75.113281 17.292969 C 76.351562 17.675781 77.261719 18.3125 77.75 19.21875 C 80.21875 23.769531 71.347656 33.363281 57.949219 40.625 C 47.328125 46.386719 37.027344 48.960938 31.992188 47.511719 L 31.917969 47.488281 C 30.640625 47.109375 29.710938 46.464844 29.207031 45.539062 C 28.925781 45 28.789062 44.429688 28.796875 43.824219 C 23.054688 44.984375 18.773438 44.480469 17.457031 42.050781 C 14.988281 37.5 23.863281 27.910156 37.257812 20.648438 C 50.65625 13.382812 63.53125 11.183594 66 15.734375 C 66.28125 16.269531 66.417969 16.839844 66.410156 17.449219 C 69.96875 16.730469 72.960938 16.652344 75.042969 17.269531 Z M 75.113281 17.292969 " fill-opacity="1" fill-rule="evenodd"/></g></g></g><g clip-path="url(#f5742bbc5b)"><g clip-path="url(#f33dff8385)"><g clip-path="url(#2c249a88e4)"><g clip-path="url(#4831f77d5d)"><path fill="#ffffff" d="M 26.191406 10.292969 L 26.070312 10.292969 C 25.609375 17.320312 24.433594 17.828125 18.023438 17.824219 L 18.015625 17.941406 C 24.425781 17.945312 25.535156 18.457031 25.074219 25.484375 L 25.191406 25.480469 C 25.652344 18.457031 26.828125 17.945312 33.238281 17.949219 L 33.246094 17.832031 C 26.835938 17.828125 25.726562 17.320312 26.191406 10.292969 " fill-opacity="1" fill-rule="evenodd"/></g></g></g></g><g clip-path="url(#2c6f15cfa4)"><g clip-path="url(#33a9624acf)"><g clip-path="url(#3c19859b23)"><g clip-path="url(#b392864c76)"><path fill="#ffffff" d="M 52.445312 42.664062 L 52.371094 42.664062 C 52.234375 47.03125 51.515625 47.324219 47.535156 47.1875 L 47.535156 47.261719 C 51.511719 47.398438 52.210938 47.738281 52.070312 52.109375 L 52.144531 52.113281 C 52.285156 47.742188 53.003906 47.449219 56.980469 47.585938 L 56.984375 47.511719 C 53.003906 47.375 52.304688 47.035156 52.445312 42.664062 " fill-opacity="1" fill-rule="evenodd"/></g></g></g></g><g clip-path="url(#5ce2c430e5)"><path fill="#ffffff" d="M 81.1875 52.089844 L 81.1875 52.03125 C 87.765625 52.03125 88.242188 51.46875 88.242188 48.320312 L 88.351562 48.320312 C 88.351562 51.46875 88.832031 52.03125 95.410156 52.03125 L 95.410156 52.089844 C 88.832031 52.089844 88.351562 52.648438 88.351562 55.796875 L 88.242188 55.796875 C 88.242188 52.648438 87.765625 52.089844 81.1875 52.089844 " fill-opacity="1" fill-rule="evenodd"/></g><g clip-path="url(#6c9daab00f)"><path stroke-linecap="butt" transform="matrix(0.343625, 0, 0, 0.343625, 5.986956, 14.960034)" fill="none" stroke-linejoin="miter" d="M 82.772532 8.83538 C 81.249252 8.83538 80.169315 8.880851 79.578191 8.971794 C 78.987067 9.051368 78.509621 9.176413 78.168589 9.403769 C 77.566097 9.733434 77.14549 10.586016 76.895399 11.870573 C 76.804457 12.382122 76.668044 13.405221 76.463424 14.860294 L 74.883305 26.068908 L 73.473703 35.970229 C 73.473703 36.186216 73.428232 36.390836 73.348657 36.618191 C 73.269083 36.868282 73.13267 37.118373 72.962154 37.379831 C 72.791637 37.629922 72.541546 37.891381 72.189146 38.141471 C 72.029997 38.323356 71.723067 38.493872 71.30246 38.743963 L 73.394128 38.743963 C 74.246711 38.743963 74.883305 38.709859 75.269809 38.709859 C 76.07692 38.709859 76.668044 38.653021 77.100019 38.573446 C 77.747981 38.448401 78.21406 38.243781 78.509621 37.982323 C 78.930229 37.629922 79.237158 37.038798 79.453146 36.186216 C 79.623662 35.595093 79.782811 34.39011 79.998798 32.684945 L 80.385302 30.002154 L 89.854648 30.002154 C 91.480238 30.002154 92.582911 29.956683 93.09446 29.911212 C 94.083456 29.831637 94.765521 29.61565 95.186129 29.274617 C 95.618104 28.933584 95.913665 28.422035 96.084182 27.660395 C 96.254698 27.092006 96.425215 25.864288 96.675305 23.97724 L 81.249252 23.97724 L 82.306454 16.429046 C 82.386028 15.962967 82.431499 15.667406 82.431499 15.496889 C 82.511074 15.246798 82.647487 15.110385 82.738429 15.019443 C 82.863474 14.939869 83.033991 14.894398 83.204507 14.894398 C 83.363656 14.860294 83.75016 14.860294 84.261709 14.860294 L 91.912213 14.860294 C 93.696952 14.860294 94.845096 14.814823 95.402116 14.769352 C 96.254698 14.689778 96.85719 14.47379 97.198222 14.166861 C 97.61883 13.882667 97.959863 13.371118 98.141747 12.643581 C 98.300895 12.211606 98.425941 11.575011 98.516883 10.802003 C 98.607825 10.381396 98.687399 9.733434 98.812445 8.83538 Z M 82.772532 8.83538 " stroke="#ffffff" stroke-width="11.200008" stroke-opacity="1" stroke-miterlimit="4"/></g><g fill="#ff914d" fill-opacity="1"><g transform="translate(31.366902, 25.268791)"><g><path d="M 3.0625 -7.265625 C 2.53125 -7.265625 2.171875 -7.25 1.96875 -7.21875 C 1.765625 -7.203125 1.59375 -7.15625 1.484375 -7.078125 C 1.28125 -6.96875 1.125 -6.671875 1.046875 -6.234375 C 1.015625 -6.046875 0.96875 -5.703125 0.890625 -5.203125 L 0.359375 -1.34375 L -0.125 2.046875 C -0.125 2.125 -0.140625 2.203125 -0.171875 2.265625 C -0.203125 2.359375 -0.25 2.453125 -0.3125 2.53125 C -0.359375 2.625 -0.453125 2.71875 -0.578125 2.796875 C -0.625 2.859375 -0.734375 2.921875 -0.875 3 L -0.15625 3 C 0.125 3 0.359375 2.984375 0.484375 2.984375 C 0.765625 2.984375 0.96875 2.96875 1.109375 2.953125 C 1.328125 2.90625 1.5 2.828125 1.59375 2.734375 C 1.75 2.625 1.84375 2.421875 1.921875 2.125 C 1.984375 1.921875 2.03125 1.515625 2.109375 0.921875 L 2.25 0 L 5.5 0 C 6.046875 0 6.4375 -0.015625 6.609375 -0.03125 C 6.953125 -0.0625 7.1875 -0.125 7.328125 -0.25 C 7.46875 -0.359375 7.578125 -0.546875 7.640625 -0.8125 C 7.6875 -1 7.75 -1.421875 7.84375 -2.0625 L 2.53125 -2.0625 L 2.90625 -4.65625 C 2.9375 -4.828125 2.953125 -4.921875 2.953125 -4.984375 C 2.96875 -5.078125 3.015625 -5.109375 3.046875 -5.140625 C 3.09375 -5.171875 3.15625 -5.1875 3.203125 -5.1875 C 3.265625 -5.203125 3.40625 -5.203125 3.578125 -5.203125 L 6.203125 -5.203125 C 6.8125 -5.203125 7.203125 -5.21875 7.40625 -5.234375 C 7.6875 -5.265625 7.90625 -5.328125 8.015625 -5.4375 C 8.15625 -5.546875 8.28125 -5.71875 8.34375 -5.96875 C 8.390625 -6.109375 8.4375 -6.328125 8.46875 -6.59375 C 8.5 -6.734375 8.53125 -6.96875 8.578125 -7.265625 Z M 3.0625 -7.265625 "/></g></g></g><g clip-path="url(#96261fc9ae)"><g clip-path="url(#26073ec62e)"><g clip-path="url(#32c7b38c5c)"><path fill="#ffffff" d="M 96.765625 27.789062 C 96.707031 27.777344 96.648438 27.777344 96.585938 27.789062 L 90.335938 28.933594 C 90.097656 28.976562 89.9375 29.199219 89.964844 29.4375 C 90.007812 29.796875 89.765625 30.132812 89.410156 30.195312 C 89.058594 30.261719 88.710938 30.035156 88.625 29.683594 C 88.566406 29.449219 88.339844 29.300781 88.101562 29.34375 L 67.300781 33.160156 C 67.257812 33.167969 67.222656 33.183594 67.183594 33.203125 L 64.992188 33.210938 C 64.871094 33.210938 64.757812 33.261719 64.671875 33.347656 C 64.585938 33.429688 64.539062 33.546875 64.539062 33.667969 L 64.5625 39.867188 C 64.5625 40.117188 64.761719 40.320312 65.015625 40.320312 C 65.96875 40.324219 66.75 41.105469 66.753906 42.058594 C 66.757812 43.015625 65.984375 43.800781 65.027344 43.8125 C 64.777344 43.8125 64.574219 44.015625 64.578125 44.269531 L 64.597656 50.46875 C 64.597656 50.589844 64.648438 50.703125 64.734375 50.789062 C 64.804688 50.859375 64.894531 50.902344 64.992188 50.917969 C 65.011719 50.921875 65.035156 50.921875 65.058594 50.921875 L 90.285156 50.832031 C 90.410156 50.832031 90.53125 50.78125 90.617188 50.6875 C 90.703125 50.59375 90.746094 50.472656 90.738281 50.34375 L 90.730469 50.300781 C 90.730469 50.117188 90.800781 49.945312 90.929688 49.816406 C 91.058594 49.683594 91.230469 49.613281 91.414062 49.613281 C 91.597656 49.609375 91.773438 49.679688 91.902344 49.8125 C 92.03125 49.941406 92.105469 50.113281 92.105469 50.28125 C 92.105469 50.289062 92.101562 50.328125 92.101562 50.339844 C 92.089844 50.464844 92.136719 50.589844 92.222656 50.683594 C 92.308594 50.773438 92.425781 50.828125 92.554688 50.824219 L 98.910156 50.804688 C 99.03125 50.804688 99.148438 50.753906 99.234375 50.667969 C 99.316406 50.585938 99.363281 50.46875 99.363281 50.347656 L 99.34375 44.136719 C 99.34375 43.894531 99.152344 43.695312 98.910156 43.683594 C 97.988281 43.628906 97.257812 42.875 97.253906 41.953125 C 97.25 41.03125 97.972656 40.269531 98.898438 40.214844 C 99.140625 40.199219 99.328125 40 99.328125 39.757812 L 99.304688 33.546875 C 99.304688 33.425781 99.257812 33.308594 99.171875 33.226562 C 99.085938 33.140625 98.972656 33.09375 98.847656 33.09375 L 98.023438 33.097656 L 97.117188 28.152344 C 97.082031 27.96875 96.941406 27.828125 96.765625 27.789062 Z M 96.304688 28.765625 L 97.097656 33.101562 L 92.492188 33.117188 C 92.253906 33.117188 92.054688 33.304688 92.039062 33.546875 C 92.019531 33.90625 91.722656 34.195312 91.359375 34.195312 C 91 34.199219 90.699219 33.914062 90.675781 33.550781 C 90.664062 33.308594 90.46875 33.125 90.222656 33.125 L 72.207031 33.1875 L 87.902344 30.308594 C 88.230469 30.886719 88.898438 31.214844 89.578125 31.09375 C 90.257812 30.96875 90.761719 30.421875 90.863281 29.761719 Z M 98.394531 34.003906 L 98.414062 39.363281 C 97.21875 39.632812 96.339844 40.699219 96.34375 41.957031 C 96.347656 43.214844 97.234375 44.273438 98.433594 44.535156 L 98.449219 49.894531 L 92.96875 49.910156 C 92.902344 49.628906 92.753906 49.371094 92.542969 49.164062 C 92.242188 48.863281 91.839844 48.699219 91.414062 48.699219 C 90.984375 48.699219 90.585938 48.867188 90.28125 49.171875 C 90.074219 49.382812 89.929688 49.640625 89.863281 49.921875 L 65.507812 50.007812 L 65.488281 44.675781 C 66.726562 44.449219 67.667969 43.355469 67.664062 42.054688 C 67.660156 40.757812 66.710938 39.671875 65.472656 39.449219 L 65.453125 34.121094 L 89.855469 34.035156 C 90.074219 34.664062 90.675781 35.109375 91.363281 35.105469 C 92.054688 35.101562 92.652344 34.652344 92.867188 34.023438 Z M 91.300781 35.65625 C 91.175781 35.65625 91.070312 35.757812 91.070312 35.882812 L 91.074219 36.339844 C 91.074219 36.453125 91.160156 36.546875 91.269531 36.5625 C 91.28125 36.566406 91.289062 36.566406 91.300781 36.566406 C 91.425781 36.566406 91.53125 36.464844 91.53125 36.335938 L 91.527344 35.882812 C 91.527344 35.757812 91.421875 35.65625 91.300781 35.65625 Z M 87.171875 35.964844 L 86.613281 35.96875 C 86.488281 35.96875 86.382812 36.070312 86.382812 36.195312 C 86.386719 36.3125 86.46875 36.40625 86.578125 36.421875 C 86.589844 36.421875 86.601562 36.421875 86.613281 36.421875 L 87.171875 36.421875 C 87.300781 36.421875 87.402344 36.320312 87.402344 36.191406 C 87.398438 36.066406 87.296875 35.964844 87.171875 35.964844 Z M 85.910156 35.972656 C 85.867188 35.976562 85.824219 35.992188 85.789062 36.019531 C 85.738281 36.050781 85.707031 36.105469 85.699219 36.167969 C 85.691406 36.226562 85.707031 36.285156 85.746094 36.332031 C 85.78125 36.382812 85.835938 36.414062 85.894531 36.421875 C 85.921875 36.425781 85.953125 36.425781 85.980469 36.417969 C 86.011719 36.414062 86.035156 36.398438 86.0625 36.378906 C 86.109375 36.34375 86.140625 36.289062 86.152344 36.230469 C 86.160156 36.171875 86.140625 36.109375 86.105469 36.0625 C 86.089844 36.035156 86.066406 36.015625 86.039062 36.003906 C 86 35.980469 85.953125 35.96875 85.910156 35.972656 Z M 84.988281 35.972656 L 69.132812 36.027344 C 69.074219 36.027344 69.015625 36.054688 68.972656 36.097656 C 68.929688 36.140625 68.90625 36.195312 68.90625 36.257812 L 68.933594 43.992188 C 68.933594 44.105469 69.019531 44.199219 69.128906 44.214844 C 69.140625 44.21875 69.152344 44.21875 69.160156 44.21875 C 69.289062 44.21875 69.390625 44.113281 69.390625 43.988281 L 69.363281 36.484375 L 84.988281 36.429688 C 85.113281 36.429688 85.214844 36.324219 85.214844 36.199219 C 85.214844 36.074219 85.109375 35.972656 84.988281 35.972656 Z M 91.304688 37.582031 C 91.179688 37.582031 91.078125 37.683594 91.078125 37.808594 L 91.082031 38.789062 C 91.082031 38.90625 91.167969 39 91.277344 39.015625 C 91.289062 39.015625 91.300781 39.015625 91.308594 39.015625 C 91.4375 39.015625 91.539062 38.914062 91.539062 38.789062 L 91.535156 37.808594 C 91.53125 37.679688 91.425781 37.578125 91.304688 37.582031 Z M 88.464844 37.757812 C 88.339844 37.757812 88.238281 37.859375 88.238281 37.984375 L 88.273438 47.550781 L 69.402344 47.617188 L 69.398438 46.582031 C 69.398438 46.457031 69.289062 46.355469 69.167969 46.355469 C 69.042969 46.355469 68.941406 46.457031 68.941406 46.585938 L 68.945312 47.847656 C 68.945312 47.960938 69.03125 48.054688 69.140625 48.070312 C 69.152344 48.074219 69.164062 48.074219 69.175781 48.074219 L 88.503906 48.007812 C 88.5625 48.007812 88.621094 47.984375 88.664062 47.941406 C 88.707031 47.898438 88.730469 47.839844 88.730469 47.777344 L 88.695312 37.984375 C 88.695312 37.859375 88.589844 37.757812 88.464844 37.757812 Z M 91.3125 40.03125 C 91.1875 40.03125 91.085938 40.132812 91.085938 40.261719 L 91.089844 41.238281 C 91.089844 41.355469 91.175781 41.449219 91.285156 41.464844 C 91.296875 41.464844 91.308594 41.46875 91.320312 41.46875 C 91.445312 41.464844 91.546875 41.363281 91.546875 41.238281 L 91.542969 40.257812 C 91.542969 40.132812 91.4375 40.03125 91.3125 40.03125 Z M 91.320312 42.480469 C 91.195312 42.484375 91.09375 42.585938 91.09375 42.710938 L 91.097656 43.691406 C 91.097656 43.804688 91.183594 43.898438 91.292969 43.914062 C 91.304688 43.917969 91.316406 43.917969 91.328125 43.917969 C 91.453125 43.917969 91.554688 43.816406 91.554688 43.6875 L 91.550781 42.707031 C 91.550781 42.582031 91.445312 42.480469 91.320312 42.480469 Z M 91.332031 44.933594 C 91.207031 44.933594 91.105469 45.035156 91.105469 45.160156 L 91.105469 46.140625 C 91.105469 46.257812 91.191406 46.351562 91.300781 46.367188 C 91.3125 46.367188 91.324219 46.367188 91.335938 46.367188 C 91.460938 46.367188 91.5625 46.265625 91.5625 46.140625 L 91.558594 45.160156 C 91.558594 45.03125 91.453125 44.929688 91.332031 44.933594 Z M 91.339844 47.382812 C 91.214844 47.382812 91.113281 47.488281 91.113281 47.613281 L 91.113281 48.066406 C 91.113281 48.179688 91.199219 48.277344 91.308594 48.292969 C 91.320312 48.292969 91.332031 48.292969 91.34375 48.292969 C 91.46875 48.292969 91.570312 48.191406 91.570312 48.066406 L 91.566406 47.609375 C 91.566406 47.484375 91.460938 47.382812 91.339844 47.382812 Z M 69.164062 44.992188 C 69.039062 44.992188 68.9375 45.09375 68.9375 45.21875 L 68.9375 45.648438 C 68.941406 45.761719 69.023438 45.855469 69.136719 45.871094 C 69.144531 45.871094 69.15625 45.875 69.167969 45.871094 C 69.292969 45.871094 69.394531 45.769531 69.394531 45.644531 L 69.394531 45.21875 C 69.394531 45.09375 69.289062 44.988281 69.164062 44.992188 Z M 69.164062 44.992188 " fill-opacity="1" fill-rule="nonzero"/></g></g></g><g clip-path="url(#301d45bc9a)"><path stroke-linecap="butt" transform="matrix(0.365405, 0, 0, 0.365405, 11.269955, 25.553942)" fill="none" stroke-linejoin="miter" d="M 73.034265 9.484244 C 71.035198 9.484244 69.730994 9.484244 69.121653 9.580456 C 68.341268 9.665978 67.731927 9.922542 67.293629 10.31808 C 66.908782 10.702927 66.598766 11.40848 66.384962 12.445429 L 65.871833 15.577656 L 64.556939 24.867437 C 64.343135 26.609939 64.214853 27.7431 64.172092 28.309681 L 64.172092 28.651767 C 64.172092 29.218347 64.257613 29.656645 64.439347 29.998732 C 64.685221 30.394269 65.123519 30.650834 65.73286 30.832567 C 66.342202 30.918089 67.464672 31.00361 69.207174 31.00361 L 85.627317 31.00361 L 85.627317 30.255296 C 85.627317 29.004543 85.627317 28.095877 85.541795 27.561367 C 85.499034 26.6527 85.327991 26.000598 84.985905 25.658512 C 84.71865 25.305735 84.237591 25.091931 83.553418 25.00641 C 83.07236 24.920888 81.981959 24.867437 80.292908 24.867437 L 70.725182 24.867437 C 70.821394 24.439829 70.864155 24.140504 70.864155 24.012222 C 70.906916 23.744967 70.949676 23.573924 71.035198 23.477712 C 71.12072 23.39219 71.259692 23.306669 71.387975 23.306669 L 81.148124 23.306669 C 82.676822 23.306669 83.724462 23.263908 84.280352 23.178386 C 85.156948 23.039414 85.766289 22.793539 86.161826 22.440763 C 86.503913 22.087986 86.803238 21.489335 86.974281 20.6555 C 87.156015 20.056849 87.327058 18.912998 87.551552 17.181186 L 87.808117 15.577656 C 87.97916 14.187931 88.107442 13.279264 88.150203 12.755444 C 88.192964 12.402668 88.192964 12.092652 88.192964 11.846778 C 88.192964 10.970182 88.021921 10.36084 87.594313 10.061515 C 87.241536 9.751499 86.578744 9.580456 85.627317 9.537695 C 85.114187 9.484244 84.066548 9.484244 82.495089 9.484244 Z M 73.119786 15.577656 L 81.586422 15.577656 C 81.543661 16.090786 81.500901 16.400802 81.45814 16.571845 C 81.45814 16.753578 81.415379 16.88186 81.329857 16.967382 C 81.244336 17.052904 81.062603 17.138425 80.816728 17.181186 L 71.815582 17.181186 C 71.901104 16.657366 71.943865 16.358041 71.943865 16.219068 C 72.029386 16.015954 72.072147 15.930433 72.125598 15.834221 C 72.21112 15.7487 72.296641 15.663178 72.382163 15.620417 C 72.467684 15.577656 72.734939 15.577656 73.119786 15.577656 Z M 89.668211 9.441484 L 90.747921 17.320158 L 91.838321 24.867437 C 92.094886 26.609939 92.31938 27.785861 92.404901 28.395202 C 92.618705 29.090065 92.843199 29.613885 93.099764 29.955971 C 93.44185 30.351508 93.922909 30.608073 94.575011 30.789806 C 95.184352 30.918089 96.616839 31.00361 98.87247 31.00361 L 102.956125 31.00361 C 104.741388 31.00361 105.91731 30.918089 106.526651 30.832567 C 107.221514 30.693595 107.702573 30.43703 108.044659 30.084253 C 108.386745 29.742167 108.611239 29.175587 108.782283 28.437963 C 108.953326 27.828622 109.135059 26.6527 109.391624 24.867437 L 110.695828 15.620417 C 110.963083 13.792394 111.091365 12.616472 111.091365 12.092652 L 111.091365 11.804017 C 111.091365 11.012942 110.963083 10.457052 110.653067 10.147036 C 110.353741 9.79426 109.73371 9.623217 108.825043 9.537695 C 108.311914 9.441484 107.478079 9.441484 106.270086 9.441484 L 105.40418 9.441484 L 104.345851 16.753578 L 103.437184 23.306669 C 103.394423 23.830488 103.351663 24.140504 103.266141 24.311547 C 103.22338 24.48259 103.180619 24.568112 103.095098 24.653633 C 102.998886 24.739155 102.913365 24.781916 102.753012 24.824677 C 102.571278 24.824677 102.271953 24.867437 101.748133 24.867437 L 98.006564 24.867437 L 96.70236 15.534896 C 96.531317 14.006197 96.360274 13.012009 96.221301 12.48819 C 96.050258 11.40848 95.708172 10.660166 95.269874 10.275319 C 94.917097 9.879782 94.275686 9.623217 93.313568 9.537695 C 92.757678 9.441484 91.538995 9.441484 89.668211 9.441484 Z M 120.819444 9.441484 C 118.809687 9.441484 117.505483 9.484244 116.906832 9.580456 C 116.115757 9.665978 115.517106 9.922542 115.078808 10.31808 C 114.683271 10.660166 114.383946 11.40848 114.170142 12.445429 C 114.08462 12.969248 113.902887 13.963437 113.646322 15.534896 L 112.342118 24.824677 C 112.117624 26.567179 111.989342 27.700339 111.946581 28.309681 L 111.946581 28.609006 C 111.946581 29.218347 112.032102 29.656645 112.213836 29.955971 C 112.4704 30.351508 112.908698 30.608073 113.507349 30.789806 C 114.127381 30.875328 115.249852 30.960849 116.992354 30.960849 L 133.412496 30.960849 L 133.412496 30.255296 C 133.412496 28.951092 133.412496 28.095877 133.326974 27.561367 C 133.284213 26.609939 133.11317 26.000598 132.760394 25.658512 C 132.493139 25.305735 132.02277 25.091931 131.327907 25.00641 C 130.857539 24.920888 129.756448 24.867437 128.078088 24.867437 L 118.510362 24.867437 C 118.606573 24.386378 118.649334 24.097743 118.649334 23.958771 C 118.681405 23.702206 118.724165 23.520473 118.809687 23.434951 C 118.895209 23.349429 119.034181 23.306669 119.162464 23.306669 C 119.290746 23.263908 119.51524 23.263908 119.814566 23.263908 L 128.933303 23.263908 C 130.462001 23.263908 131.498951 23.221147 132.065531 23.135625 C 132.931437 23.039414 133.551468 22.793539 133.936315 22.440763 C 134.278402 22.045225 134.588417 21.446574 134.75946 20.612739 C 134.941194 20.056849 135.112237 18.912998 135.326041 17.181186 L 135.582606 15.534896 C 135.764339 14.14517 135.892621 13.236503 135.935382 12.755444 C 135.978143 12.359907 135.978143 12.049891 135.978143 11.804017 C 135.978143 10.927421 135.8071 10.31808 135.368802 10.018754 C 135.026715 9.751499 134.363923 9.580456 133.412496 9.484244 C 132.888676 9.441484 131.851727 9.441484 130.280268 9.441484 Z M 120.904966 15.577656 L 129.371601 15.577656 C 129.328841 16.058715 129.28608 16.400802 129.243319 16.571845 C 129.243319 16.753578 129.200558 16.8391 129.115037 16.924621 C 129.029515 17.010143 128.847782 17.095664 128.591217 17.138425 L 119.600762 17.138425 C 119.686283 16.614605 119.729044 16.31528 119.729044 16.176307 C 119.814566 16.015954 119.857326 15.887672 119.910777 15.79146 C 119.996299 15.705939 120.07113 15.620417 120.156652 15.620417 C 120.242173 15.577656 120.509428 15.577656 120.904966 15.577656 Z M 138.971398 15.620417 L 138.746904 17.181186 L 137.880998 23.306669 L 137.667194 24.920888 L 136.801288 31.00361 C 138.661382 31.00361 139.880065 30.960849 140.446645 30.918089 C 141.227029 30.789806 141.836371 30.565312 142.189147 30.298057 C 142.616755 29.955971 142.969532 29.442842 143.140575 28.694528 C 143.311618 28.095877 143.578873 26.834434 143.835437 24.920888 L 144.049241 23.306669 L 144.925838 17.181186 C 145.011359 16.700127 145.05412 16.400802 145.05412 16.261829 C 145.139641 16.015954 145.267924 15.834221 145.353445 15.7487 C 145.481728 15.663178 145.61001 15.620417 145.791743 15.620417 C 145.877265 15.577656 146.005547 15.577656 146.14452 15.577656 C 146.315563 15.577656 146.529367 15.577656 146.743171 15.620417 L 154.707368 15.620417 L 154.482873 17.181186 L 153.606277 23.306669 L 153.403164 24.920888 L 152.526567 31.00361 C 154.653917 31.00361 156.043642 30.918089 156.652983 30.832567 C 157.390607 30.650834 157.914427 30.394269 158.256513 29.998732 C 158.609289 29.656645 158.833783 29.090065 158.994136 28.395202 C 159.16518 27.828622 159.346913 26.6527 159.560717 24.920888 L 159.785211 23.306669 L 160.651117 17.181186 L 160.864921 15.620417 C 161.132176 13.706872 161.260458 12.445429 161.260458 11.889539 L 161.260458 11.579523 C 161.217697 10.831209 160.993203 10.31808 160.651117 10.061515 C 160.383862 9.79426 159.956254 9.665978 159.389674 9.580456 C 158.876544 9.484244 158.042709 9.484244 156.866787 9.484244 L 144.658583 9.484244 C 143.536112 9.484244 142.702277 9.484244 142.189147 9.580456 C 141.483594 9.665978 140.970465 9.837021 140.617688 10.104276 C 140.17939 10.403601 139.837304 10.970182 139.580739 11.804017 C 139.452457 12.359907 139.227963 13.62135 138.971398 15.620417 Z M 171.629949 0.590001 L 170.411266 9.484244 L 169.5026 9.484244 C 168.198396 9.484244 167.289729 9.484244 166.723149 9.580456 C 165.857243 9.665978 165.247901 9.922542 164.809603 10.275319 C 164.424756 10.660166 164.114741 11.40848 163.858176 12.48819 C 163.772654 13.012009 163.590921 14.059648 163.377117 15.620417 L 169.545361 15.620417 L 169.331557 17.181186 L 168.465651 23.306669 L 168.251847 24.920888 C 167.984592 26.524418 167.813549 27.614818 167.717337 28.181398 L 167.717337 28.82281 C 167.717337 29.34663 167.813549 29.784928 167.984592 30.084253 C 168.294608 30.522551 168.97878 30.832567 170.122631 30.960849 C 170.721282 30.960849 171.758231 31.00361 173.286929 31.00361 L 177.231612 31.00361 C 178.931353 31.00361 180.064514 30.960849 180.631094 30.918089 C 181.497 30.789806 182.149102 30.565312 182.54464 30.212536 C 182.886726 29.870449 183.196742 29.261108 183.410546 28.470034 C 183.581589 27.871383 183.763322 26.695461 183.977126 24.920888 L 174.4094 24.920888 L 174.633894 23.306669 L 175.51049 17.181186 L 175.724294 15.620417 L 179.113087 15.620417 C 180.94111 15.620417 182.106342 15.577656 182.662232 15.534896 C 183.538828 15.406613 184.19093 15.182119 184.586467 14.914864 C 184.982005 14.583468 185.28133 14.059648 185.495134 13.354095 C 185.666177 12.755444 185.890671 11.494001 186.147236 9.484244 L 176.5902 9.484244 L 176.985737 6.704793 C 177.231612 5.186785 177.370584 4.235358 177.370584 3.83982 C 177.456106 3.454973 177.456106 3.144958 177.456106 2.888393 C 177.456106 2.407334 177.413345 2.022487 177.285063 1.755232 C 177.028498 1.145891 176.322945 0.803805 175.114953 0.718283 C 174.452161 0.632761 173.286929 0.590001 171.629949 0.590001 Z M 171.629949 0.590001 " stroke="#ffffff" stroke-width="11.406019" stroke-opacity="1" stroke-miterlimit="4"/></g><g fill="#ff914d" fill-opacity="1"><g transform="translate(34.558806, 36.881493)"><g><path d="M 3.390625 -7.859375 C 2.671875 -7.859375 2.1875 -7.859375 1.96875 -7.828125 C 1.6875 -7.796875 1.453125 -7.703125 1.296875 -7.5625 C 1.15625 -7.40625 1.046875 -7.15625 0.96875 -6.78125 L 0.78125 -5.640625 L 0.296875 -2.234375 C 0.21875 -1.609375 0.171875 -1.1875 0.15625 -0.984375 L 0.15625 -0.859375 C 0.15625 -0.65625 0.1875 -0.484375 0.25 -0.359375 C 0.34375 -0.21875 0.515625 -0.125 0.734375 -0.0625 C 0.953125 -0.03125 1.359375 0 2 0 L 8 0 L 8 -0.265625 C 8 -0.734375 8 -1.0625 7.96875 -1.25 C 7.953125 -1.59375 7.890625 -1.828125 7.765625 -1.953125 C 7.671875 -2.078125 7.5 -2.15625 7.234375 -2.1875 C 7.0625 -2.21875 6.671875 -2.234375 6.046875 -2.234375 L 2.5625 -2.234375 C 2.59375 -2.390625 2.609375 -2.515625 2.609375 -2.5625 C 2.625 -2.65625 2.640625 -2.71875 2.671875 -2.75 C 2.703125 -2.78125 2.75 -2.8125 2.796875 -2.8125 L 6.359375 -2.8125 C 6.921875 -2.8125 7.296875 -2.828125 7.515625 -2.859375 C 7.828125 -2.90625 8.046875 -3 8.1875 -3.125 C 8.3125 -3.25 8.421875 -3.484375 8.5 -3.78125 C 8.5625 -4 8.625 -4.40625 8.703125 -5.046875 L 8.796875 -5.640625 C 8.859375 -6.140625 8.90625 -6.484375 8.921875 -6.671875 C 8.9375 -6.796875 8.9375 -6.90625 8.9375 -7 C 8.9375 -7.3125 8.875 -7.546875 8.71875 -7.65625 C 8.59375 -7.765625 8.34375 -7.828125 8 -7.84375 C 7.8125 -7.859375 7.421875 -7.859375 6.859375 -7.859375 Z M 3.421875 -5.640625 L 6.53125 -5.640625 C 6.515625 -5.4375 6.5 -5.328125 6.484375 -5.265625 C 6.484375 -5.203125 6.46875 -5.15625 6.421875 -5.125 C 6.390625 -5.09375 6.328125 -5.0625 6.234375 -5.046875 L 2.953125 -5.046875 C 2.984375 -5.234375 3 -5.34375 3 -5.390625 C 3.03125 -5.484375 3.046875 -5.515625 3.0625 -5.546875 C 3.09375 -5.578125 3.125 -5.609375 3.15625 -5.625 C 3.1875 -5.640625 3.28125 -5.640625 3.421875 -5.640625 Z M 3.421875 -5.640625 "/></g></g></g><g fill="#ff914d" fill-opacity="1"><g transform="translate(43.399657, 36.881493)"><g><path d="M 0.640625 -7.875 L 1.03125 -5 L 1.421875 -2.234375 C 1.53125 -1.609375 1.609375 -1.171875 1.640625 -0.953125 C 1.71875 -0.703125 1.796875 -0.515625 1.890625 -0.375 C 2.015625 -0.234375 2.1875 -0.140625 2.421875 -0.078125 C 2.65625 -0.03125 3.171875 0 4 0 L 5.5 0 C 6.140625 0 6.578125 -0.03125 6.796875 -0.0625 C 7.046875 -0.109375 7.21875 -0.203125 7.34375 -0.328125 C 7.484375 -0.453125 7.5625 -0.671875 7.625 -0.9375 C 7.6875 -1.15625 7.75 -1.59375 7.84375 -2.234375 L 8.3125 -5.625 C 8.40625 -6.28125 8.46875 -6.71875 8.46875 -6.90625 L 8.46875 -7.015625 C 8.46875 -7.296875 8.40625 -7.515625 8.296875 -7.625 C 8.1875 -7.75 7.96875 -7.8125 7.640625 -7.84375 C 7.453125 -7.875 7.140625 -7.875 6.703125 -7.875 L 6.375 -7.875 L 6 -5.203125 L 5.671875 -2.8125 C 5.65625 -2.625 5.640625 -2.515625 5.609375 -2.4375 C 5.59375 -2.375 5.578125 -2.34375 5.546875 -2.3125 C 5.515625 -2.28125 5.484375 -2.265625 5.40625 -2.25 C 5.34375 -2.25 5.234375 -2.234375 5.046875 -2.234375 L 3.6875 -2.234375 L 3.203125 -5.65625 C 3.140625 -6.203125 3.078125 -6.578125 3.03125 -6.765625 C 2.96875 -7.15625 2.84375 -7.421875 2.6875 -7.578125 C 2.5625 -7.71875 2.3125 -7.8125 1.96875 -7.84375 C 1.765625 -7.875 1.3125 -7.875 0.640625 -7.875 Z M 0.640625 -7.875 "/></g></g></g><g fill="#ff914d" fill-opacity="1"><g transform="translate(52.018297, 36.881493)"><g><path d="M 3.390625 -7.875 C 2.671875 -7.875 2.1875 -7.859375 1.96875 -7.828125 C 1.6875 -7.796875 1.453125 -7.703125 1.296875 -7.5625 C 1.15625 -7.421875 1.046875 -7.15625 0.96875 -6.78125 C 0.9375 -6.59375 0.875 -6.21875 0.78125 -5.65625 L 0.296875 -2.25 C 0.21875 -1.625 0.171875 -1.203125 0.15625 -0.984375 L 0.15625 -0.875 C 0.15625 -0.65625 0.1875 -0.484375 0.25 -0.375 C 0.34375 -0.234375 0.515625 -0.140625 0.734375 -0.078125 C 0.953125 -0.046875 1.359375 -0.015625 2 -0.015625 L 8 -0.015625 L 8 -0.265625 C 8 -0.75 8 -1.0625 7.96875 -1.25 C 7.953125 -1.609375 7.890625 -1.828125 7.765625 -1.953125 C 7.671875 -2.078125 7.5 -2.15625 7.234375 -2.1875 C 7.0625 -2.21875 6.671875 -2.234375 6.046875 -2.234375 L 2.5625 -2.234375 C 2.59375 -2.40625 2.609375 -2.53125 2.609375 -2.578125 C 2.625 -2.671875 2.640625 -2.734375 2.671875 -2.765625 C 2.703125 -2.796875 2.75 -2.8125 2.796875 -2.8125 C 2.84375 -2.828125 2.921875 -2.828125 3.03125 -2.828125 L 6.359375 -2.828125 C 6.921875 -2.828125 7.296875 -2.84375 7.515625 -2.875 C 7.828125 -2.90625 8.046875 -3 8.1875 -3.125 C 8.3125 -3.265625 8.421875 -3.5 8.5 -3.796875 C 8.5625 -4 8.625 -4.40625 8.703125 -5.046875 L 8.796875 -5.65625 C 8.859375 -6.15625 8.90625 -6.5 8.921875 -6.671875 C 8.9375 -6.8125 8.9375 -6.921875 8.9375 -7.015625 C 8.9375 -7.328125 8.875 -7.5625 8.71875 -7.671875 C 8.59375 -7.765625 8.34375 -7.828125 8 -7.859375 C 7.8125 -7.875 7.421875 -7.875 6.859375 -7.875 Z M 3.421875 -5.640625 L 6.53125 -5.640625 C 6.515625 -5.46875 6.5 -5.328125 6.484375 -5.265625 C 6.484375 -5.203125 6.46875 -5.171875 6.421875 -5.140625 C 6.390625 -5.109375 6.328125 -5.078125 6.234375 -5.0625 L 2.953125 -5.0625 C 2.984375 -5.25 3 -5.359375 3 -5.40625 C 3.03125 -5.484375 3.046875 -5.53125 3.0625 -5.5625 C 3.09375 -5.59375 3.125 -5.625 3.15625 -5.625 C 3.1875 -5.640625 3.28125 -5.640625 3.421875 -5.640625 Z M 3.421875 -5.640625 "/></g></g></g><g fill="#ff914d" fill-opacity="1"><g transform="translate(61.097233, 36.881493)"><g><path d="M 0.953125 -5.625 L 0.875 -5.046875 L 0.5625 -2.8125 L 0.46875 -2.21875 L 0.15625 0 C 0.84375 0 1.28125 -0.015625 1.5 -0.03125 C 1.78125 -0.078125 2 -0.15625 2.125 -0.25 C 2.28125 -0.375 2.40625 -0.578125 2.46875 -0.84375 C 2.546875 -1.0625 2.640625 -1.53125 2.734375 -2.21875 L 2.8125 -2.8125 L 3.125 -5.046875 C 3.15625 -5.21875 3.171875 -5.328125 3.171875 -5.375 C 3.203125 -5.484375 3.25 -5.546875 3.28125 -5.578125 C 3.328125 -5.609375 3.375 -5.625 3.4375 -5.625 C 3.484375 -5.640625 3.53125 -5.640625 3.578125 -5.640625 C 3.640625 -5.640625 3.71875 -5.640625 3.796875 -5.625 L 6.703125 -5.625 L 6.625 -5.046875 L 6.296875 -2.8125 L 6.21875 -2.21875 L 5.90625 0 C 6.6875 0 7.1875 -0.03125 7.40625 -0.0625 C 7.6875 -0.125 7.875 -0.21875 8 -0.359375 C 8.125 -0.484375 8.203125 -0.703125 8.265625 -0.953125 C 8.328125 -1.15625 8.390625 -1.59375 8.484375 -2.21875 L 8.5625 -2.8125 L 8.875 -5.046875 L 8.953125 -5.625 C 9.046875 -6.3125 9.09375 -6.78125 9.09375 -6.984375 L 9.09375 -7.09375 C 9.078125 -7.359375 9 -7.5625 8.875 -7.65625 C 8.78125 -7.75 8.625 -7.796875 8.40625 -7.828125 C 8.21875 -7.859375 7.921875 -7.859375 7.5 -7.859375 L 3.03125 -7.859375 C 2.625 -7.859375 2.3125 -7.859375 2.125 -7.828125 C 1.875 -7.796875 1.6875 -7.734375 1.5625 -7.640625 C 1.390625 -7.53125 1.265625 -7.3125 1.171875 -7.015625 C 1.125 -6.8125 1.046875 -6.34375 0.953125 -5.625 Z M 0.953125 -5.625 "/></g></g></g><g fill="#ff914d" fill-opacity="1"><g transform="translate(70.334891, 36.881493)"><g><path d="M 3.65625 -11.109375 L 3.203125 -7.859375 L 2.875 -7.859375 C 2.390625 -7.859375 2.0625 -7.859375 1.859375 -7.828125 C 1.546875 -7.796875 1.3125 -7.703125 1.15625 -7.578125 C 1.015625 -7.421875 0.90625 -7.15625 0.8125 -6.765625 C 0.78125 -6.578125 0.71875 -6.1875 0.640625 -5.625 L 2.890625 -5.625 L 2.8125 -5.046875 L 2.5 -2.8125 L 2.40625 -2.21875 C 2.3125 -1.640625 2.25 -1.234375 2.21875 -1.03125 L 2.21875 -0.796875 C 2.21875 -0.609375 2.25 -0.4375 2.3125 -0.328125 C 2.421875 -0.171875 2.6875 -0.0625 3.09375 -0.015625 C 3.3125 -0.015625 3.703125 0 4.25 0 L 5.703125 0 C 6.3125 0 6.734375 -0.015625 6.9375 -0.03125 C 7.25 -0.078125 7.5 -0.15625 7.640625 -0.28125 C 7.765625 -0.40625 7.875 -0.640625 7.953125 -0.921875 C 8.015625 -1.140625 8.078125 -1.578125 8.15625 -2.21875 L 4.671875 -2.21875 L 4.75 -2.8125 L 5.0625 -5.046875 L 5.140625 -5.625 L 6.375 -5.625 C 7.046875 -5.625 7.484375 -5.640625 7.6875 -5.65625 C 8 -5.703125 8.234375 -5.78125 8.375 -5.875 C 8.53125 -6 8.640625 -6.1875 8.71875 -6.4375 C 8.78125 -6.671875 8.859375 -7.125 8.953125 -7.859375 L 5.46875 -7.859375 L 5.609375 -8.875 C 5.703125 -9.4375 5.75 -9.78125 5.75 -9.921875 C 5.78125 -10.0625 5.78125 -10.171875 5.78125 -10.265625 C 5.78125 -10.453125 5.765625 -10.59375 5.71875 -10.6875 C 5.625 -10.90625 5.359375 -11.03125 4.921875 -11.0625 C 4.6875 -11.09375 4.25 -11.109375 3.65625 -11.109375 Z M 3.65625 -11.109375 "/></g></g></g><g clip-path="url(#65cb91ea13)"><path stroke-linecap="butt" transform="matrix(0.249312, 0, 0, 0.249312, 59.519838, 36.487886)" fill="none" stroke-linejoin="miter" d="M 46.721105 14.854964 C 46.642765 15.622702 46.501752 16.985829 46.157053 19.132362 C 45.859359 21.216222 45.608669 22.830038 45.436319 23.973811 C 45.216966 25.556291 45.091621 26.621723 45.044616 27.185776 L 45.044616 27.702824 C 45.044616 28.298212 45.169961 28.768256 45.357979 29.097286 C 45.608669 29.441985 46.031708 29.692675 46.721105 29.833688 C 47.316494 29.912029 48.507271 30.006037 50.340441 30.006037 L 60.368039 30.006037 C 62.295218 30.006037 63.532999 29.912029 64.128388 29.833688 C 64.927462 29.661339 65.491514 29.363645 65.836213 28.846597 C 66.086903 28.470562 66.306257 27.859505 66.462938 27.091767 C 66.588283 26.543383 66.760632 25.524955 66.979986 23.973811 L 68.249104 14.854964 C 68.515462 13.22548 68.640807 12.128711 68.640807 11.611663 L 68.640807 11.188624 C 68.640807 10.546231 68.562466 10.076188 68.343112 9.778493 C 68.139427 9.433795 67.747724 9.183105 67.230676 9.104764 C 66.635287 8.932415 65.319165 8.88541 63.219637 8.88541 L 53.411393 8.88541 C 51.703568 8.88541 50.544127 8.88541 49.964406 8.979419 C 49.10266 9.05776 48.507271 9.30845 48.131236 9.731489 C 47.692529 10.154528 47.34783 11.016275 47.09714 12.332397 C 47.003132 12.755436 46.877787 13.617183 46.721105 14.854964 Z M 54.868528 14.854964 L 62.201209 14.854964 L 61.135777 22.454003 C 61.041768 22.955383 61.010432 23.268745 60.932091 23.425427 C 60.932091 23.597776 60.838082 23.723121 60.744074 23.81713 C 60.665733 23.89547 60.540388 23.942475 60.368039 23.973811 L 51.484214 23.973811 L 52.565314 16.421777 C 52.596651 16.186755 52.643655 15.967401 52.643655 15.873392 C 52.721996 15.497357 52.816004 15.246668 52.910013 15.152659 C 53.035358 15.027314 53.239044 14.933305 53.505402 14.901969 C 53.709087 14.854964 54.179131 14.854964 54.868528 14.854964 Z M 74.391007 35.066841 L 75.252754 30.006037 L 85.186342 30.006037 C 86.768823 30.006037 87.834255 29.959033 88.445312 29.880693 C 89.197381 29.739679 89.761434 29.535994 90.090464 29.191295 C 90.513503 28.799592 90.826866 28.172867 90.983547 27.264116 C 91.12456 26.684396 91.29691 25.603295 91.516263 23.973811 C 92.221329 18.913008 92.660036 15.873392 92.785381 14.854964 C 93.036071 13.413497 93.161416 12.47341 93.161416 11.956362 C 93.20842 11.611663 93.20842 11.360974 93.20842 11.14162 C 93.20842 10.624572 93.161416 10.201533 93.004735 9.903838 C 92.738377 9.30845 91.939302 9.010755 90.607512 8.932415 C 90.090464 8.838406 89.119041 8.838406 87.661905 8.838406 L 78.057347 8.838406 C 76.412195 8.838406 75.252754 8.88541 74.657365 8.979419 C 73.623269 9.05776 72.902535 9.355454 72.479496 9.872502 C 72.181802 10.248537 71.931112 10.89093 71.711758 11.831017 C 71.633418 12.332397 71.508073 13.319489 71.288719 14.854964 L 71.069365 16.421777 L 69.189191 30.006037 L 68.437121 36.022596 C 68.390117 36.351626 68.343112 36.57098 68.296108 36.696325 C 68.249104 36.868674 68.170763 37.088028 67.998414 37.244709 C 67.920073 37.432727 67.747724 37.589408 67.497034 37.855766 C 67.309016 38.012447 66.979986 38.278805 66.462938 38.701845 L 68.515462 38.701845 C 69.11085 38.701845 69.61223 38.65484 70.050937 38.607836 C 70.724667 38.529495 71.288719 38.482491 71.758763 38.32581 C 72.260143 38.137792 72.651846 37.934107 72.94954 37.714753 C 73.419583 37.385722 73.764282 36.915679 74.014972 36.398631 C 74.187321 36.022596 74.312666 35.599557 74.391007 35.066841 Z M 76.067496 23.973811 L 77.132928 16.421777 C 77.211269 16.014405 77.305277 15.716711 77.352282 15.591366 C 77.430622 15.325008 77.477627 15.199663 77.555967 15.105654 C 77.681312 14.980309 77.900666 14.901969 78.151356 14.901969 C 78.323705 14.854964 78.6214 14.854964 79.091443 14.854964 L 86.737486 14.854964 L 85.656386 22.454003 C 85.609382 22.830038 85.578045 23.080728 85.531041 23.268745 C 85.484037 23.472431 85.405696 23.64478 85.280351 23.770125 C 85.186342 23.81713 85.108002 23.848466 84.982657 23.942475 C 84.904316 23.942475 84.763303 23.942475 84.590954 23.973811 Z M 104.254446 0.142599 C 102.29593 0.142599 100.979808 0.173935 100.337415 0.267944 C 99.569677 0.393289 99.005625 0.690983 98.62959 1.114022 C 98.331896 1.458721 98.065538 2.101114 97.908857 2.947193 C 97.767843 3.464241 97.611162 4.529673 97.344804 6.143489 L 97.219459 7.30293 L 103.283022 7.30293 Z M 97.015774 8.838406 L 94.446202 26.888081 C 94.399197 27.311121 94.367861 27.577479 94.289521 27.73416 C 94.226848 27.953514 94.148508 28.172867 93.976158 28.376553 C 93.850813 28.548902 93.63146 28.768256 93.286761 29.097286 C 93.13008 29.269636 92.816717 29.56733 92.315337 30.006037 L 94.320857 30.006037 C 95.856333 30.006037 96.921765 29.959033 97.485817 29.912029 C 98.410236 29.833688 99.099634 29.56733 99.522673 29.191295 C 99.898708 28.799592 100.21207 28.172867 100.368752 27.264116 C 100.556769 26.715732 100.71345 25.6503 100.932804 24.036483 L 103.063668 8.838406 Z M 122.868173 8.838406 L 106.353974 8.838406 L 106.353974 9.55914 C 106.353974 10.687244 106.400978 11.517655 106.400978 12.050371 C 106.479319 12.97479 106.651668 13.617183 106.902358 14.008886 C 107.200052 14.384921 107.7171 14.635611 108.484838 14.776624 C 109.001886 14.80796 110.067318 14.854964 111.587126 14.854964 L 120.987999 14.854964 C 120.940994 15.325008 120.89399 15.622702 120.846986 15.795052 C 120.846986 15.967401 120.815649 16.092746 120.721641 16.186755 C 120.6433 16.265095 120.502287 16.343436 120.345606 16.39044 C 120.251597 16.39044 120.000907 16.421777 119.656209 16.421777 L 110.741048 16.421777 C 109.158567 16.421777 108.046131 16.484449 107.450742 16.56279 C 106.730009 16.64113 106.181624 16.907488 105.789921 17.283523 C 105.460891 17.628222 105.147528 18.317619 104.943843 19.336047 C 104.849834 19.853095 104.693153 20.871523 104.473799 22.406999 L 104.223109 23.973811 C 104.003756 25.681636 103.878411 26.841077 103.831406 27.436466 L 103.831406 27.702824 C 103.831406 28.376553 103.909747 28.846597 104.176105 29.191295 C 104.426795 29.488989 104.849834 29.692675 105.460891 29.833688 C 106.056279 29.912029 107.372402 30.006037 109.424926 30.006037 L 118.669117 30.006037 C 120.815649 30.006037 122.178776 29.912029 122.774165 29.833688 C 123.369553 29.692675 123.839597 29.535994 124.184295 29.269636 C 124.575998 28.971941 124.858025 28.517566 125.030374 27.906509 C 125.249728 27.311121 125.500418 26.026335 125.751108 23.973811 L 126.362164 19.633741 L 127.035893 14.854964 C 127.255247 13.319489 127.380592 12.301061 127.380592 11.784013 C 127.427597 11.517655 127.427597 11.360974 127.427597 11.188624 C 127.427597 10.295541 127.208243 9.684485 126.785204 9.402458 C 126.518845 9.183105 126.095806 9.05776 125.500418 8.979419 C 124.999038 8.88541 124.105955 8.838406 122.868173 8.838406 Z M 111.508786 22.406999 L 119.906898 22.406999 C 119.875562 22.877042 119.828558 23.174737 119.781553 23.347086 C 119.750217 23.503767 119.703213 23.691785 119.609204 23.770125 C 119.5622 23.848466 119.483859 23.89547 119.327178 23.942475 C 119.233169 23.942475 118.982479 23.973811 118.637781 23.973811 L 110.271004 23.973811 C 110.365013 23.64478 110.396349 23.39409 110.396349 23.268745 C 110.443353 22.924047 110.490358 22.704693 110.568698 22.610684 C 110.647039 22.532344 110.741048 22.454003 110.866393 22.454003 C 110.960401 22.406999 111.164087 22.406999 111.508786 22.406999 Z M 111.508786 22.406999 " stroke="#ffffff" stroke-width="11.200008" stroke-opacity="1" stroke-miterlimit="4"/></g><g fill="#ff914d" fill-opacity="1"><g transform="translate(70.645385, 43.967245)"><g><path d="M 0.515625 -3.78125 C 0.5 -3.578125 0.46875 -3.25 0.390625 -2.71875 C 0.3125 -2.1875 0.25 -1.78125 0.203125 -1.5 C 0.15625 -1.109375 0.109375 -0.84375 0.109375 -0.703125 L 0.109375 -0.578125 C 0.109375 -0.421875 0.140625 -0.3125 0.1875 -0.21875 C 0.25 -0.140625 0.34375 -0.078125 0.515625 -0.046875 C 0.671875 -0.015625 0.96875 0 1.421875 0 L 3.921875 0 C 4.40625 0 4.71875 -0.015625 4.859375 -0.046875 C 5.0625 -0.078125 5.203125 -0.15625 5.28125 -0.28125 C 5.359375 -0.390625 5.40625 -0.53125 5.453125 -0.71875 C 5.484375 -0.859375 5.515625 -1.125 5.578125 -1.5 L 5.890625 -3.78125 C 5.953125 -4.1875 5.984375 -4.453125 5.984375 -4.59375 L 5.984375 -4.6875 C 5.984375 -4.859375 5.96875 -4.96875 5.921875 -5.046875 C 5.859375 -5.125 5.765625 -5.1875 5.640625 -5.21875 C 5.484375 -5.25 5.15625 -5.265625 4.640625 -5.265625 L 2.1875 -5.265625 C 1.765625 -5.265625 1.484375 -5.265625 1.328125 -5.25 C 1.125 -5.21875 0.96875 -5.15625 0.875 -5.046875 C 0.765625 -4.953125 0.6875 -4.734375 0.609375 -4.40625 C 0.59375 -4.296875 0.5625 -4.09375 0.515625 -3.78125 Z M 2.546875 -3.78125 L 4.390625 -3.78125 L 4.125 -1.890625 C 4.09375 -1.75 4.09375 -1.6875 4.0625 -1.640625 C 4.0625 -1.59375 4.046875 -1.5625 4.015625 -1.546875 C 4 -1.515625 3.96875 -1.515625 3.921875 -1.5 L 1.71875 -1.5 L 1.984375 -3.390625 C 1.984375 -3.453125 2 -3.5 2 -3.515625 C 2.015625 -3.625 2.046875 -3.6875 2.0625 -3.703125 C 2.09375 -3.734375 2.15625 -3.75 2.21875 -3.765625 C 2.265625 -3.78125 2.390625 -3.78125 2.546875 -3.78125 Z M 2.546875 -3.78125 "/></g></g></g><g fill="#ff914d" fill-opacity="1"><g transform="translate(76.728431, 43.967245)"><g><path d="M 1.34375 1.265625 L 1.546875 0 L 4.03125 0 C 4.421875 0 4.6875 -0.015625 4.84375 -0.03125 C 5.03125 -0.0625 5.171875 -0.109375 5.25 -0.203125 C 5.359375 -0.296875 5.4375 -0.453125 5.484375 -0.6875 C 5.515625 -0.828125 5.546875 -1.09375 5.609375 -1.5 C 5.78125 -2.765625 5.890625 -3.515625 5.921875 -3.78125 C 5.984375 -4.140625 6.015625 -4.375 6.015625 -4.5 C 6.03125 -4.59375 6.03125 -4.65625 6.03125 -4.703125 C 6.03125 -4.828125 6.015625 -4.9375 5.984375 -5.015625 C 5.921875 -5.15625 5.71875 -5.234375 5.390625 -5.25 C 5.25 -5.28125 5.015625 -5.28125 4.65625 -5.28125 L 2.25 -5.28125 C 1.84375 -5.28125 1.546875 -5.265625 1.40625 -5.25 C 1.15625 -5.21875 0.96875 -5.15625 0.859375 -5.015625 C 0.78125 -4.921875 0.71875 -4.765625 0.671875 -4.53125 C 0.65625 -4.40625 0.609375 -4.15625 0.5625 -3.78125 L 0.515625 -3.390625 L 0.046875 0 L -0.15625 1.5 C -0.15625 1.578125 -0.171875 1.640625 -0.1875 1.671875 C -0.1875 1.71875 -0.21875 1.765625 -0.25 1.8125 C -0.28125 1.84375 -0.3125 1.890625 -0.390625 1.953125 C -0.421875 2 -0.515625 2.0625 -0.640625 2.171875 L -0.125 2.171875 C 0.015625 2.171875 0.15625 2.15625 0.25 2.15625 C 0.421875 2.125 0.5625 2.125 0.6875 2.078125 C 0.8125 2.03125 0.90625 1.984375 0.984375 1.921875 C 1.09375 1.84375 1.1875 1.71875 1.25 1.59375 C 1.28125 1.5 1.3125 1.390625 1.34375 1.265625 Z M 1.75 -1.5 L 2.015625 -3.390625 C 2.046875 -3.484375 2.0625 -3.5625 2.078125 -3.59375 C 2.09375 -3.65625 2.109375 -3.6875 2.125 -3.71875 C 2.15625 -3.75 2.21875 -3.765625 2.28125 -3.765625 C 2.3125 -3.78125 2.390625 -3.78125 2.515625 -3.78125 L 4.421875 -3.78125 L 4.15625 -1.890625 C 4.140625 -1.78125 4.125 -1.71875 4.125 -1.6875 C 4.109375 -1.625 4.09375 -1.578125 4.046875 -1.546875 C 4.03125 -1.546875 4.015625 -1.53125 3.984375 -1.515625 C 3.953125 -1.515625 3.921875 -1.515625 3.890625 -1.5 Z M 1.75 -1.5 "/></g></g></g><g fill="#ff914d" fill-opacity="1"><g transform="translate(82.854017, 43.967245)"><g><path d="M 2.65625 -7.453125 C 2.171875 -7.453125 1.84375 -7.4375 1.6875 -7.421875 C 1.484375 -7.390625 1.34375 -7.3125 1.25 -7.203125 C 1.1875 -7.125 1.125 -6.953125 1.078125 -6.75 C 1.046875 -6.625 1 -6.359375 0.9375 -5.953125 L 0.90625 -5.65625 L 2.421875 -5.65625 Z M 0.84375 -5.28125 L 0.21875 -0.78125 C 0.203125 -0.671875 0.1875 -0.609375 0.171875 -0.5625 C 0.15625 -0.515625 0.140625 -0.453125 0.09375 -0.40625 C 0.0625 -0.359375 0.015625 -0.3125 -0.078125 -0.21875 C -0.109375 -0.1875 -0.1875 -0.109375 -0.3125 0 L 0.1875 0 C 0.5625 0 0.828125 -0.015625 0.96875 -0.015625 C 1.203125 -0.046875 1.375 -0.109375 1.484375 -0.203125 C 1.578125 -0.296875 1.65625 -0.453125 1.6875 -0.6875 C 1.734375 -0.8125 1.78125 -1.078125 1.828125 -1.484375 L 2.359375 -5.28125 Z M 0.84375 -5.28125 "/></g></g></g><g fill="#ff914d" fill-opacity="1"><g transform="translate(85.299999, 43.967245)"><g><path d="M 4.859375 -5.28125 L 0.734375 -5.28125 L 0.734375 -5.09375 C 0.734375 -4.8125 0.75 -4.609375 0.75 -4.484375 C 0.765625 -4.25 0.8125 -4.09375 0.875 -3.984375 C 0.953125 -3.890625 1.078125 -3.828125 1.265625 -3.796875 C 1.390625 -3.78125 1.65625 -3.78125 2.046875 -3.78125 L 4.390625 -3.78125 C 4.375 -3.65625 4.359375 -3.578125 4.359375 -3.546875 C 4.359375 -3.5 4.34375 -3.46875 4.3125 -3.453125 C 4.296875 -3.421875 4.265625 -3.40625 4.21875 -3.390625 C 4.203125 -3.390625 4.140625 -3.390625 4.046875 -3.390625 L 1.828125 -3.390625 C 1.4375 -3.390625 1.15625 -3.375 1.015625 -3.359375 C 0.828125 -3.328125 0.6875 -3.265625 0.59375 -3.171875 C 0.515625 -3.078125 0.4375 -2.921875 0.390625 -2.65625 C 0.359375 -2.53125 0.3125 -2.28125 0.265625 -1.890625 L 0.203125 -1.5 C 0.15625 -1.078125 0.109375 -0.78125 0.109375 -0.640625 L 0.109375 -0.578125 C 0.109375 -0.40625 0.125 -0.28125 0.1875 -0.203125 C 0.25 -0.125 0.359375 -0.078125 0.515625 -0.046875 C 0.65625 -0.015625 0.984375 0 1.5 0 L 3.8125 0 C 4.34375 0 4.6875 -0.015625 4.828125 -0.046875 C 4.984375 -0.078125 5.09375 -0.109375 5.1875 -0.1875 C 5.28125 -0.25 5.359375 -0.375 5.390625 -0.515625 C 5.453125 -0.671875 5.515625 -0.984375 5.578125 -1.5 L 5.71875 -2.578125 L 5.890625 -3.78125 C 5.953125 -4.15625 5.984375 -4.421875 5.984375 -4.546875 C 5.984375 -4.609375 5.984375 -4.65625 5.984375 -4.6875 C 5.984375 -4.921875 5.9375 -5.0625 5.828125 -5.140625 C 5.765625 -5.1875 5.65625 -5.21875 5.515625 -5.25 C 5.390625 -5.265625 5.15625 -5.28125 4.859375 -5.28125 Z M 2.015625 -1.890625 L 4.125 -1.890625 C 4.109375 -1.78125 4.09375 -1.703125 4.09375 -1.65625 C 4.078125 -1.625 4.0625 -1.578125 4.046875 -1.546875 C 4.03125 -1.53125 4.015625 -1.515625 3.96875 -1.515625 C 3.953125 -1.515625 3.890625 -1.5 3.796875 -1.5 L 1.71875 -1.5 C 1.734375 -1.578125 1.75 -1.65625 1.75 -1.6875 C 1.75 -1.765625 1.765625 -1.8125 1.78125 -1.84375 C 1.8125 -1.859375 1.828125 -1.890625 1.859375 -1.890625 C 1.890625 -1.890625 1.9375 -1.890625 2.015625 -1.890625 Z M 2.015625 -1.890625 "/></g></g></g></svg>